M48
INCH,TZ
T1C0.0157
T2C0.0197
T3C0.0354
T4C0.0433
T5C0.0551
T6C0.0670
T7C0.1570
%
G90
G05
T1
X6.145Y-2.957
X6.146Y-2.914
X6.146Y-3.002
X6.147Y-2.7412
X6.1482Y-2.6111
X6.1484Y-2.5248
X6.1484Y-2.5683
X6.1488Y-2.6542
X6.21Y-2.7525
X6.2625Y-3.048
X6.2634Y-2.3287
X6.3058Y-2.329
X6.3275Y-2.84
X6.3492Y-2.329
X6.35Y-3.0425
X6.38Y-2.665
X6.38Y-2.859
X6.3925Y-2.3285
X6.4358Y-2.2974
X6.4785Y-2.926
X6.4791Y-2.69
X6.48Y-3.25
X6.5225Y-2.926
X6.5225Y-3.2075
X6.565Y-3.0275
X6.5657Y-2.3301
X6.609Y-2.3301
X6.61Y-3.0275
X6.6523Y-2.3301
X6.655Y-3.0275
X6.6956Y-2.96
X6.6965Y-2.4979
T2
X5.9237Y-3.8438
X5.9237Y-3.8831
X5.1737Y-3.8044
X5.1737Y-3.8438
X5.1737Y-3.8831
X5.7013Y-3.8044
X5.7013Y-3.8438
X5.7013Y-3.8831
X4.0487Y-2.8669
X4.0487Y-2.9062
X4.0487Y-2.9456
X4.5763Y-2.8669
X4.5763Y-2.9062
X4.5763Y-2.9456
X5.3263Y-3.0544
X6.4513Y-3.8044
X6.4513Y-3.8438
X6.4513Y-3.8831
X4.5763Y-1.4456
X5.3263Y-3.0938
X1.4237Y-1.9294
X5.9237Y-3.8044
X4.5763Y-1.3669
X5.3263Y-3.1331
X4.0487Y-1.4062
X4.0487Y-1.4456
X4.5763Y-1.4062
X4.0487Y-2.1169
X4.0487Y-2.1562
X4.0487Y-2.1956
X4.5763Y-2.1169
X4.5763Y-2.1562
X4.5763Y-2.1956
X4.0487Y-1.3669
X4.7987Y-2.3044
X4.7987Y-2.3438
X4.7987Y-2.3831
X5.3263Y-2.3044
X5.3263Y-2.3438
X5.3263Y-2.3831
X4.4237Y-3.8044
X4.4237Y-3.8438
X4.4237Y-3.8831
X4.9513Y-3.8044
X4.9513Y-3.8438
X4.9513Y-3.8831
X4.7987Y-3.0544
X4.7987Y-3.0938
X4.7987Y-3.1331
X5.5487Y-4.5544
X5.5487Y-4.5938
X5.5487Y-4.6331
X6.0763Y-4.5544
X6.0763Y-4.5938
X6.0763Y-4.6331
X3.2987Y-2.6794
X3.2987Y-2.7188
X3.2987Y-2.7581
X3.8263Y-2.6794
X3.8263Y-2.7188
X3.8263Y-2.7581
X2.5487Y-2.8669
X2.5487Y-2.9062
X2.5487Y-2.9456
X3.0763Y-2.8669
X3.0763Y-2.9062
X3.0763Y-2.9456
X6.8263Y-4.6331
X1.4237Y-1.9688
X1.4237Y-2.0081
X1.9513Y-1.9294
X1.9513Y-1.9688
X1.9513Y-2.0081
X6.8263Y-4.5544
X6.8263Y-4.5938
X3.2987Y-1.2581
X3.2987Y-1.9688
X2.5487Y-2.1562
X2.5487Y-2.1956
X6.2987Y-4.5938
X2.5487Y-2.1169
X6.2987Y-4.5544
X6.2987Y-4.6331
X1.7987Y-3.4294
X1.7987Y-3.5081
X1.7987Y-2.6794
X1.7987Y-2.7188
X1.7987Y-2.7581
X3.2987Y-2.0081
X1.7987Y-3.4688
X3.0763Y-2.1169
X3.0763Y-2.1562
X3.6737Y-3.8438
X3.6737Y-3.8831
X3.0763Y-2.1956
X3.8263Y-2.0081
X4.2013Y-3.8044
X4.2013Y-3.8438
X4.2013Y-3.8831
X2.3263Y-3.4688
X2.3263Y-3.5081
X3.6737Y-3.8044
X3.8263Y-1.9294
X3.8263Y-1.9688
X2.3263Y-3.4294
X3.2987Y-1.1794
X3.2987Y-1.2188
X2.3263Y-2.7188
X2.3612Y-1.3669
X2.3263Y-2.6794
X2.3612Y-1.4456
X3.8263Y-1.1794
X3.8263Y-1.2188
X3.8263Y-1.2581
X4.7987Y-1.5544
X4.7987Y-1.5938
X4.7987Y-1.6331
X2.3612Y-1.4062
X2.8888Y-1.3669
X2.8888Y-1.4062
X2.8888Y-1.4456
X5.3263Y-1.5544
X5.3263Y-1.5938
X5.3263Y-1.6331
X2.3263Y-2.7581
X3.2987Y-1.9294
T3
X6.6275Y-2.5925
X6.6275Y-2.6925
X6.6275Y-2.7925
X6.6275Y-2.8925
T4
X6.525Y-1.1644
X6.525Y-2.0856
X5.7625Y-4.3937
X3.6125Y-2.5187
X4.2625Y-2.7062
X4.3625Y-2.7062
X5.0125Y-2.8937
X5.1125Y-2.8937
X5.4875Y-3.6437
X2.8625Y-2.7062
X3.5125Y-2.5187
X5.8625Y-4.3937
X6.5125Y-4.3937
X6.6125Y-4.3937
X2.7625Y-2.7062
X1.6375Y-1.7688
X4.6375Y-3.6437
X4.7375Y-3.6437
X1.7375Y-1.7688
X2.0125Y-3.2687
X2.1125Y-3.2687
X6.1375Y-3.6437
X6.2375Y-3.6437
X5.3875Y-3.6437
X2.0125Y-2.5187
X2.675Y-1.2063
X2.1125Y-2.5187
X2.575Y-1.2063
X3.8875Y-3.6437
X3.9875Y-3.6437
X4.2625Y-1.2063
X4.3625Y-1.2063
X4.2625Y-1.9563
X4.3625Y-1.9563
X5.0125Y-1.3938
X5.1125Y-1.3938
X2.7625Y-1.9563
X2.8625Y-1.9563
X3.5125Y-1.7688
X3.6125Y-1.7688
X5.0125Y-2.1437
X5.1125Y-2.1437
X3.5125Y-1.0188
X3.6125Y-1.0188
T5
X4.5375Y-3.9438
X4.5875Y-4.0358
X4.7875Y-4.0358
X4.8375Y-3.9438
X5.6625Y-4.6937
X5.7125Y-4.7858
X5.9125Y-4.7858
X5.9625Y-4.6937
X6.0375Y-3.9438
X6.0875Y-4.0358
X6.2875Y-4.0358
X6.3375Y-3.9438
X5.2875Y-3.9438
X5.3375Y-4.0358
X5.5375Y-4.0358
X5.5875Y-3.9438
X1.9125Y-3.5688
X1.9625Y-3.6607
X2.1625Y-3.6607
X2.2125Y-3.5688
X2.6625Y-3.0063
X1.5375Y-2.0688
X1.5875Y-2.1608
X1.7875Y-2.1608
X1.8375Y-2.0688
X4.1625Y-1.5062
X4.2125Y-1.5982
X4.4125Y-1.5982
X4.4625Y-1.5062
X6.4125Y-4.6937
X6.4625Y-4.7858
X6.7125Y-4.6937
X2.9125Y-3.0982
X6.6625Y-4.7858
X4.9125Y-3.1938
X4.9625Y-3.2857
X5.1625Y-3.2857
X5.2125Y-3.1938
X2.7125Y-3.0982
X2.9625Y-3.0063
X3.4125Y-2.8188
X3.4625Y-2.9107
X3.6625Y-2.9107
X3.7125Y-2.8188
X4.9125Y-1.6937
X4.9625Y-1.7857
X5.1625Y-1.7857
X2.6625Y-2.2563
X2.9125Y-2.3482
X5.2125Y-1.6937
X2.7125Y-2.3482
X2.9625Y-2.2563
X1.9125Y-2.8188
X2.475Y-1.5062
X2.725Y-1.5982
X3.6625Y-2.1608
X3.6625Y-1.4107
X1.9625Y-2.9107
X3.8375Y-4.0358
X4.1625Y-2.2563
X4.2125Y-2.3482
X4.4125Y-2.3482
X4.4625Y-2.2563
X3.4125Y-2.0688
X3.4625Y-2.1608
X2.1625Y-2.9107
X3.7125Y-2.0688
X2.2125Y-2.8188
X3.7875Y-3.9438
X4.1625Y-3.0063
X4.4625Y-3.0063
X4.9125Y-2.4438
X4.9625Y-2.5357
X5.1625Y-2.5357
X5.2125Y-2.4438
X2.525Y-1.5982
X4.0375Y-4.0358
X2.775Y-1.5062
X3.4125Y-1.3187
X3.4625Y-1.4107
X4.2125Y-3.0982
X4.4125Y-3.0982
X4.0875Y-3.9438
X3.7125Y-1.3187
T6
X4.1375Y-3.8438
X2.6125Y-2.9062
X4.4875Y-3.8438
X1.4875Y-1.9688
X1.8875Y-1.9688
X3.0125Y-2.9062
X4.8625Y-2.3438
X5.2625Y-2.3438
X3.7375Y-3.8438
X4.1125Y-2.1562
X4.5125Y-2.1562
X2.425Y-1.4062
X4.1125Y-1.4062
X4.5125Y-1.4062
X4.5125Y-2.9062
X2.825Y-1.4062
X4.1125Y-2.9062
X4.8625Y-3.0938
X5.2625Y-3.0938
X3.3625Y-2.7188
X3.7625Y-2.7188
X4.8875Y-3.8438
X5.2375Y-3.8438
X5.6375Y-3.8438
X3.3625Y-1.9688
X3.7625Y-1.9688
X1.8625Y-3.4688
X2.2625Y-3.4688
X5.9875Y-3.8438
X6.3875Y-3.8438
X5.6125Y-4.5938
X6.0125Y-4.5938
X6.3625Y-4.5938
X6.7625Y-4.5938
X4.8625Y-1.5938
X5.2625Y-1.5938
X1.8625Y-2.7188
X2.2625Y-2.7188
X2.6125Y-2.1562
X3.0125Y-2.1562
X3.3625Y-1.2188
X3.7625Y-1.2188
T7
X5.4375Y-3.8438
X5.0625Y-3.0938
X4.3125Y-2.1562
X4.6875Y-3.8438
X1.6875Y-1.9688
X5.0625Y-1.5938
X2.625Y-1.4062
X5.0625Y-2.3438
X2.8125Y-2.1562
X3.9375Y-3.8438
X4.3125Y-1.4062
X2.8125Y-2.9062
X6.1875Y-3.8438
X4.3125Y-2.9062
X2.0625Y-3.4688
X6.5625Y-4.5938
X3.5625Y-2.7188
X5.8125Y-4.5938
X3.5625Y-1.2188
X3.5625Y-1.9688
X2.0625Y-2.7188
T0
M30
