M48
INCH,TZ
T1C0.0157
T2C0.0197
T3C0.0354
T4C0.0433
T5C0.0551
T6C0.0670
T7C0.1570
%
G90
G05
T1
X3.0695Y-4.27
X3.09Y-4.5725
X3.09Y-4.6175
X3.09Y-4.6625
X3.1166Y-4.154
X3.1575Y-4.7031
X3.1601Y-4.154
X3.1915Y-4.486
X3.1915Y-4.53
X3.2033Y-4.154
X3.2585Y-4.3875
X3.2775Y-4.335
X3.2894Y-4.154
X3.3335Y-4.154
X3.365Y-4.2175
X3.3763Y-4.1545
X3.4201Y-4.1545
X3.4275Y-4.4866
X3.4525Y-4.3875
X3.4633Y-4.1563
X3.5064Y-4.1557
X3.5492Y-4.1559
X3.5927Y-4.1559
X3.6196Y-4.704
X3.7874Y-4.5732
X3.7874Y-4.6165
X3.7874Y-4.6598
X3.7885Y-4.3133
X3.7885Y-4.3567
X3.7888Y-4.2709
X3.789Y-4.4
X3.8201Y-4.4433
T2
X1.7987Y-2.3044
X1.7987Y-2.3438
X1.7987Y-2.3831
X2.3263Y-2.3044
X5.9237Y-4.5544
X5.9237Y-4.5938
X5.9237Y-4.6331
X2.3263Y-2.3438
X2.3263Y-2.3831
X6.0763Y-3.8438
X5.1737Y-4.5544
X5.1737Y-4.6331
X5.5487Y-3.8044
X5.5487Y-3.8438
X5.5487Y-3.8831
X6.0763Y-3.8044
X6.0763Y-3.8831
X6.4513Y-4.5544
X6.4513Y-4.5938
X6.4513Y-4.6331
X1.7987Y-3.0544
X1.7987Y-3.0938
X1.7987Y-3.1331
X2.3263Y-3.0544
X2.3263Y-3.0938
X2.3263Y-3.1331
X4.7987Y-1.5544
X1.4237Y-1.5544
X2.5487Y-2.9062
X2.5487Y-2.9456
X3.0763Y-2.8669
X3.0763Y-2.9062
X3.0763Y-2.9456
X4.7987Y-1.5938
X4.7987Y-1.6331
X5.3263Y-1.5544
X5.3263Y-1.5938
X5.3263Y-1.6331
X4.0487Y-3.6169
X4.0487Y-3.6562
X4.0487Y-3.6956
X3.2987Y-1.1794
X3.2987Y-1.2188
X3.2987Y-1.2581
X4.5763Y-3.6169
X2.5487Y-2.8669
X3.2987Y-2.6794
X4.5763Y-3.6956
X5.1737Y-4.5938
X4.5763Y-3.6562
X3.2987Y-2.7188
X3.2987Y-2.7581
X3.8263Y-2.6794
X3.8263Y-2.7188
X3.8263Y-2.7581
X5.7013Y-4.5544
X5.7013Y-4.5938
X5.7013Y-4.6331
X1.4237Y-1.6331
X2.8888Y-1.4062
X3.8263Y-1.1794
X3.8263Y-1.2188
X3.8263Y-1.2581
X4.5763Y-1.3669
X4.5763Y-1.4062
X4.5763Y-1.4456
X1.4237Y-1.5938
X2.3612Y-1.3669
X2.3612Y-1.4062
X2.3612Y-1.4456
X2.8888Y-1.3669
X2.8888Y-1.4456
X1.9513Y-1.5544
X1.9513Y-1.5938
X1.9513Y-1.6331
X4.7987Y-3.8044
X4.7987Y-3.8438
X4.7987Y-3.8831
X5.3263Y-3.8044
X5.3263Y-3.8438
X5.3263Y-3.8831
X4.0487Y-2.1169
X4.7987Y-3.0938
X4.7987Y-3.1331
X4.0487Y-2.8669
X4.0487Y-2.9062
X4.0487Y-2.9456
X3.8263Y-1.9294
X3.8263Y-1.9688
X3.8263Y-2.0081
X4.7987Y-3.0544
X3.2987Y-1.9688
X3.2987Y-2.0081
X4.0487Y-2.1562
X4.0487Y-2.1956
X4.5763Y-2.1169
X3.2987Y-1.9294
X4.5763Y-2.1562
X5.3263Y-3.0544
X5.3263Y-3.0938
X5.3263Y-3.1331
X3.0763Y-2.1562
X3.2987Y-3.5081
X3.0763Y-2.1169
X4.7987Y-2.3438
X4.7987Y-2.3831
X4.5763Y-2.9456
X4.5763Y-2.1956
X4.0487Y-1.4062
X4.0487Y-1.4456
X3.2987Y-3.4294
X5.3263Y-2.3044
X5.3263Y-2.3438
X5.3263Y-2.3831
X3.0763Y-2.1956
X3.2987Y-3.4688
X4.0487Y-1.3669
X2.5487Y-2.1169
X3.8263Y-3.5081
X4.5763Y-2.8669
X4.5763Y-2.9062
X3.8263Y-3.4294
X3.8263Y-3.4688
X4.7987Y-2.3044
X2.5487Y-2.1562
X2.5487Y-2.1956
T3
X3.225Y-4.635
X3.325Y-4.635
X3.425Y-4.635
X3.525Y-4.635
T4
X5.0125Y-3.6437
X5.1125Y-3.6437
X5.0125Y-2.8937
X4.2625Y-1.9563
X4.3625Y-1.9563
X5.7625Y-3.6437
X5.8625Y-3.6437
X5.1125Y-2.8937
X4.2625Y-1.2063
X3.5125Y-2.5187
X3.6125Y-2.5187
X2.7625Y-2.7062
X2.8625Y-2.7062
X4.2625Y-2.7062
X4.3625Y-2.7062
X4.3625Y-1.2063
X2.575Y-1.2063
X1.6375Y-1.3938
X1.7375Y-1.3938
X2.0125Y-2.1437
X2.1125Y-2.1437
X1.8594Y-4.535
X2.675Y-1.2063
X4.3625Y-3.4562
X6.1375Y-4.3937
X2.7625Y-1.9563
X2.8625Y-1.9563
X3.5125Y-1.7688
X4.2625Y-3.4562
X3.6125Y-1.7688
X5.3875Y-4.3937
X5.4875Y-4.3937
X3.6125Y-1.0188
X3.5125Y-3.2687
X3.6125Y-3.2687
X5.0125Y-2.1437
X5.1125Y-2.1437
X2.1125Y-2.8937
X3.5125Y-1.0188
X2.7806Y-4.535
X5.0125Y-1.3938
X5.1125Y-1.3938
X6.2375Y-4.3937
X2.0125Y-2.8937
T5
X2.475Y-1.5062
X2.725Y-1.5982
X4.9125Y-1.6937
X1.9125Y-2.4438
X1.9625Y-2.5357
X2.1625Y-2.5357
X2.2125Y-2.4438
X2.525Y-1.5982
X2.775Y-1.5062
X4.9625Y-1.7857
X5.1625Y-1.7857
X5.2125Y-1.6937
X4.9125Y-3.1938
X4.2125Y-3.8482
X4.4625Y-3.7563
X4.9625Y-3.2857
X4.1625Y-3.7563
X5.1625Y-3.2857
X4.2125Y-2.3482
X4.4125Y-3.8482
X4.1625Y-2.2563
X5.9625Y-3.9438
X2.9625Y-3.0063
X5.6625Y-3.9438
X5.7125Y-4.0358
X5.9125Y-4.0358
X2.6625Y-3.0063
X2.7125Y-3.0982
X2.9125Y-3.0982
X3.4125Y-2.8188
X3.4625Y-2.9107
X3.6625Y-2.9107
X3.7125Y-2.8188
X3.4125Y-2.0688
X3.4625Y-2.1608
X3.6625Y-2.1608
X3.7125Y-2.0688
X4.4125Y-2.3482
X4.4625Y-2.2563
X5.2875Y-4.6937
X5.3375Y-4.7858
X5.5375Y-4.7858
X5.5875Y-4.6937
X1.5375Y-1.6937
X1.5875Y-1.7857
X1.7875Y-1.7857
X1.8375Y-1.6937
X4.9125Y-3.9438
X4.9625Y-4.0358
X5.1625Y-4.0358
X5.2125Y-3.9438
X5.2125Y-3.1938
X6.0375Y-4.6937
X6.0875Y-4.7858
X6.2875Y-4.7858
X3.4625Y-1.4107
X4.1625Y-3.0063
X6.3375Y-4.6937
X3.4125Y-1.3187
X3.6625Y-1.4107
X4.9125Y-2.4438
X4.9625Y-2.5357
X5.2125Y-2.4438
X2.6625Y-2.2563
X2.9125Y-2.3482
X5.1625Y-2.5357
X2.7125Y-2.3482
X2.9625Y-2.2563
X4.2125Y-1.5982
X4.4125Y-1.5982
X3.7125Y-3.5688
X1.9125Y-3.1938
X1.9625Y-3.2857
X2.2125Y-3.1938
X3.7125Y-1.3187
X3.4625Y-3.6607
X2.1625Y-3.2857
X3.4125Y-3.5688
X3.6625Y-3.6607
X4.1625Y-1.5062
X4.4625Y-3.0063
X4.4625Y-1.5062
X4.2125Y-3.0982
X4.4125Y-3.0982
T6
X2.6125Y-2.1562
X5.2625Y-3.8438
X2.2625Y-2.3438
X4.8625Y-3.8438
X5.2625Y-1.5938
X2.6125Y-2.9062
X1.8625Y-2.3438
X2.425Y-1.4062
X3.0125Y-2.9062
X3.3625Y-2.7188
X3.7625Y-2.7188
X4.8625Y-1.5938
X2.825Y-1.4062
X3.0125Y-2.1562
X5.9875Y-4.5938
X6.3875Y-4.5938
X3.3625Y-1.2188
X3.3625Y-1.9688
X3.7625Y-1.9688
X4.1125Y-2.1562
X5.2375Y-4.5938
X5.6375Y-4.5938
X1.8625Y-3.0938
X4.5125Y-1.4062
X4.1125Y-2.9062
X4.5125Y-2.9062
X4.5125Y-2.1562
X4.1125Y-3.6562
X4.5125Y-3.6562
X4.8625Y-3.0938
X5.2625Y-3.0938
X5.6125Y-3.8438
X6.0125Y-3.8438
X4.8625Y-2.3438
X4.1125Y-1.4062
X2.2625Y-3.0938
X3.7625Y-1.2188
X1.4875Y-1.5938
X1.8875Y-1.5938
X5.2625Y-2.3438
X3.3625Y-3.4688
X3.7625Y-3.4688
T7
X2.0625Y-3.0938
X2.625Y-1.4062
X1.6875Y-1.5938
X5.0625Y-1.5938
X2.0625Y-2.3438
X4.3125Y-3.6562
X5.0625Y-3.8438
X3.5625Y-1.2188
X3.5625Y-1.9688
X5.0625Y-3.0938
X2.8125Y-2.9062
X5.8125Y-3.8438
X4.3125Y-1.4062
X4.3125Y-2.9062
X4.3125Y-2.1562
X3.5625Y-2.7188
X5.4375Y-4.5938
X3.5625Y-3.4688
X6.1875Y-4.5938
X5.0625Y-2.3438
X2.8125Y-2.1562
T0
M30
