G04 #@! TF.GenerationSoftware,KiCad,Pcbnew,(5.0.0-rc2-dev-301-g33f795be4)*
G04 #@! TF.CreationDate,2018-06-10T21:23:58+02:00*
G04 #@! TF.ProjectId,kissboard,6B697373626F6172642E6B696361645F,rev?*
G04 #@! TF.SameCoordinates,Original*
G04 #@! TF.FileFunction,Copper,L1,Top,Signal*
G04 #@! TF.FilePolarity,Positive*
%FSLAX46Y46*%
G04 Gerber Fmt 4.6, Leading zero omitted, Abs format (unit mm)*
G04 Created by KiCad (PCBNEW (5.0.0-rc2-dev-301-g33f795be4)) date 06/10/18 21:23:58*
%MOMM*%
%LPD*%
G01*
G04 APERTURE LIST*
%ADD10C,1.500000*%
%ADD11R,1.500000X1.500000*%
%ADD12C,2.000000*%
%ADD13O,8.500000X15.000000*%
%ADD14R,2.500000X0.800000*%
%ADD15R,0.800000X2.500000*%
%ADD16O,1.550000X0.650000*%
%ADD17C,1.000000*%
%ADD18O,2.500000X1.800000*%
%ADD19C,2.500000*%
%ADD20C,4.300000*%
%ADD21C,1.600000*%
%ADD22C,0.800000*%
%ADD23C,0.250000*%
%ADD24C,0.500000*%
%ADD25C,1.270000*%
%ADD26C,2.540000*%
G04 APERTURE END LIST*
D10*
X168338500Y-65849500D03*
X168338500Y-68389500D03*
X168338500Y-70929500D03*
D11*
X168338500Y-73469500D03*
D12*
X165735000Y-52975000D03*
X165735000Y-29575000D03*
D13*
X165735000Y-41275000D03*
D14*
X154368500Y-64118500D03*
X154368500Y-65218500D03*
X154368500Y-66318500D03*
X154368500Y-67418500D03*
X154368500Y-68518500D03*
X154368500Y-69618500D03*
X154368500Y-70718500D03*
X154368500Y-71818500D03*
X154368500Y-72918500D03*
X154368500Y-74018500D03*
X154368500Y-75118500D03*
X154368500Y-76218500D03*
D15*
X170068500Y-61168500D03*
X168968500Y-61168500D03*
X167868500Y-61168500D03*
X166768500Y-61168500D03*
X165668500Y-61168500D03*
X164568500Y-61168500D03*
X163468500Y-61168500D03*
X162368500Y-61168500D03*
X161268500Y-61168500D03*
X160168500Y-61168500D03*
X159068500Y-61168500D03*
X157968500Y-61168500D03*
X157968500Y-79168500D03*
X159068500Y-79168500D03*
X160168500Y-79168500D03*
X161268500Y-79168500D03*
X162368500Y-79168500D03*
X163468500Y-79168500D03*
X164568500Y-79168500D03*
X165668500Y-79168500D03*
X166768500Y-79168500D03*
X167868500Y-79168500D03*
X168968500Y-79168500D03*
X170068500Y-79168500D03*
D16*
X162043500Y-70863500D03*
X162043500Y-68963500D03*
X159393500Y-69913500D03*
D17*
X159987500Y-115681250D03*
X159987500Y-117681250D03*
X159987500Y-116681250D03*
D18*
X169227500Y-121558050D03*
D19*
X162877500Y-119221250D03*
D18*
X164147500Y-121558050D03*
D19*
X170497500Y-119221250D03*
D12*
X161607500Y-116681250D03*
X171767500Y-116681250D03*
D20*
X166687500Y-116681250D03*
D17*
X173387500Y-116681250D03*
X173387500Y-115681250D03*
X173387500Y-117681250D03*
D21*
X167957500Y-111601250D03*
X165417500Y-111601250D03*
D17*
X45687500Y-87106250D03*
X45687500Y-89106250D03*
X45687500Y-88106250D03*
D18*
X54927500Y-92983050D03*
D19*
X48577500Y-90646250D03*
D18*
X49847500Y-92983050D03*
D19*
X56197500Y-90646250D03*
D12*
X47307500Y-88106250D03*
X57467500Y-88106250D03*
D20*
X52387500Y-88106250D03*
D17*
X59087500Y-88106250D03*
X59087500Y-87106250D03*
X59087500Y-89106250D03*
D21*
X53657500Y-83026250D03*
X51117500Y-83026250D03*
X65405000Y-30638750D03*
X67945000Y-30638750D03*
D17*
X73375000Y-36718750D03*
X73375000Y-34718750D03*
X73375000Y-35718750D03*
D20*
X66675000Y-35718750D03*
D12*
X71755000Y-35718750D03*
X61595000Y-35718750D03*
D19*
X70485000Y-38258750D03*
D18*
X64135000Y-40595550D03*
D19*
X62865000Y-38258750D03*
D18*
X69215000Y-40595550D03*
D17*
X59975000Y-35718750D03*
X59975000Y-36718750D03*
X59975000Y-34718750D03*
X83787500Y-29956250D03*
X83787500Y-31956250D03*
X83787500Y-30956250D03*
D18*
X93027500Y-35833050D03*
D19*
X86677500Y-33496250D03*
D18*
X87947500Y-35833050D03*
D19*
X94297500Y-33496250D03*
D12*
X85407500Y-30956250D03*
X95567500Y-30956250D03*
D20*
X90487500Y-30956250D03*
D17*
X97187500Y-30956250D03*
X97187500Y-29956250D03*
X97187500Y-31956250D03*
D21*
X91757500Y-25876250D03*
X89217500Y-25876250D03*
X108267500Y-30638750D03*
X110807500Y-30638750D03*
D17*
X116237500Y-36718750D03*
X116237500Y-34718750D03*
X116237500Y-35718750D03*
D20*
X109537500Y-35718750D03*
D12*
X114617500Y-35718750D03*
X104457500Y-35718750D03*
D19*
X113347500Y-38258750D03*
D18*
X106997500Y-40595550D03*
D19*
X105727500Y-38258750D03*
D18*
X112077500Y-40595550D03*
D17*
X102837500Y-35718750D03*
X102837500Y-36718750D03*
X102837500Y-34718750D03*
X121887500Y-39481250D03*
X121887500Y-41481250D03*
X121887500Y-40481250D03*
D18*
X131127500Y-45358050D03*
D19*
X124777500Y-43021250D03*
D18*
X126047500Y-45358050D03*
D19*
X132397500Y-43021250D03*
D12*
X123507500Y-40481250D03*
X133667500Y-40481250D03*
D20*
X128587500Y-40481250D03*
D17*
X135287500Y-40481250D03*
X135287500Y-39481250D03*
X135287500Y-41481250D03*
D21*
X129857500Y-35401250D03*
X127317500Y-35401250D03*
X51117500Y-63976250D03*
X53657500Y-63976250D03*
D17*
X59087500Y-70056250D03*
X59087500Y-68056250D03*
X59087500Y-69056250D03*
D20*
X52387500Y-69056250D03*
D12*
X57467500Y-69056250D03*
X47307500Y-69056250D03*
D19*
X56197500Y-71596250D03*
D18*
X49847500Y-73933050D03*
D19*
X48577500Y-71596250D03*
D18*
X54927500Y-73933050D03*
D17*
X45687500Y-69056250D03*
X45687500Y-70056250D03*
X45687500Y-68056250D03*
X64737500Y-53768750D03*
X64737500Y-55768750D03*
X64737500Y-54768750D03*
D18*
X73977500Y-59645550D03*
D19*
X67627500Y-57308750D03*
D18*
X68897500Y-59645550D03*
D19*
X75247500Y-57308750D03*
D12*
X66357500Y-54768750D03*
X76517500Y-54768750D03*
D20*
X71437500Y-54768750D03*
D17*
X78137500Y-54768750D03*
X78137500Y-53768750D03*
X78137500Y-55768750D03*
D21*
X72707500Y-49688750D03*
X70167500Y-49688750D03*
X89217500Y-44926250D03*
X91757500Y-44926250D03*
D17*
X97187500Y-51006250D03*
X97187500Y-49006250D03*
X97187500Y-50006250D03*
D20*
X90487500Y-50006250D03*
D12*
X95567500Y-50006250D03*
X85407500Y-50006250D03*
D19*
X94297500Y-52546250D03*
D18*
X87947500Y-54883050D03*
D19*
X86677500Y-52546250D03*
D18*
X93027500Y-54883050D03*
D17*
X83787500Y-50006250D03*
X83787500Y-51006250D03*
X83787500Y-49006250D03*
X102837500Y-53768750D03*
X102837500Y-55768750D03*
X102837500Y-54768750D03*
D18*
X112077500Y-59645550D03*
D19*
X105727500Y-57308750D03*
D18*
X106997500Y-59645550D03*
D19*
X113347500Y-57308750D03*
D12*
X104457500Y-54768750D03*
X114617500Y-54768750D03*
D20*
X109537500Y-54768750D03*
D17*
X116237500Y-54768750D03*
X116237500Y-53768750D03*
X116237500Y-55768750D03*
D21*
X110807500Y-49688750D03*
X108267500Y-49688750D03*
X127317500Y-54451250D03*
X129857500Y-54451250D03*
D17*
X135287500Y-60531250D03*
X135287500Y-58531250D03*
X135287500Y-59531250D03*
D20*
X128587500Y-59531250D03*
D12*
X133667500Y-59531250D03*
X123507500Y-59531250D03*
D19*
X132397500Y-62071250D03*
D18*
X126047500Y-64408050D03*
D19*
X124777500Y-62071250D03*
D18*
X131127500Y-64408050D03*
D17*
X121887500Y-59531250D03*
X121887500Y-60531250D03*
X121887500Y-58531250D03*
X102837500Y-72818750D03*
X102837500Y-74818750D03*
X102837500Y-73818750D03*
D18*
X112077500Y-78695550D03*
D19*
X105727500Y-76358750D03*
D18*
X106997500Y-78695550D03*
D19*
X113347500Y-76358750D03*
D12*
X104457500Y-73818750D03*
X114617500Y-73818750D03*
D20*
X109537500Y-73818750D03*
D17*
X116237500Y-73818750D03*
X116237500Y-72818750D03*
X116237500Y-74818750D03*
D21*
X110807500Y-68738750D03*
X108267500Y-68738750D03*
X127317500Y-73501250D03*
X129857500Y-73501250D03*
D17*
X135287500Y-79581250D03*
X135287500Y-77581250D03*
X135287500Y-78581250D03*
D20*
X128587500Y-78581250D03*
D12*
X133667500Y-78581250D03*
X123507500Y-78581250D03*
D19*
X132397500Y-81121250D03*
D18*
X126047500Y-83458050D03*
D19*
X124777500Y-81121250D03*
D18*
X131127500Y-83458050D03*
D17*
X121887500Y-78581250D03*
X121887500Y-79581250D03*
X121887500Y-77581250D03*
X93312500Y-96631250D03*
X93312500Y-98631250D03*
X93312500Y-97631250D03*
D18*
X102552500Y-102508050D03*
D19*
X96202500Y-100171250D03*
D18*
X97472500Y-102508050D03*
D19*
X103822500Y-100171250D03*
D12*
X94932500Y-97631250D03*
X105092500Y-97631250D03*
D20*
X100012500Y-97631250D03*
D17*
X106712500Y-97631250D03*
X106712500Y-96631250D03*
X106712500Y-98631250D03*
D21*
X101282500Y-92551250D03*
X98742500Y-92551250D03*
X117792500Y-92551250D03*
X120332500Y-92551250D03*
D17*
X125762500Y-98631250D03*
X125762500Y-96631250D03*
X125762500Y-97631250D03*
D20*
X119062500Y-97631250D03*
D12*
X124142500Y-97631250D03*
X113982500Y-97631250D03*
D19*
X122872500Y-100171250D03*
D18*
X116522500Y-102508050D03*
D19*
X115252500Y-100171250D03*
D18*
X121602500Y-102508050D03*
D17*
X112362500Y-97631250D03*
X112362500Y-98631250D03*
X112362500Y-96631250D03*
X131412500Y-96631250D03*
X131412500Y-98631250D03*
X131412500Y-97631250D03*
D18*
X140652500Y-102508050D03*
D19*
X134302500Y-100171250D03*
D18*
X135572500Y-102508050D03*
D19*
X141922500Y-100171250D03*
D12*
X133032500Y-97631250D03*
X143192500Y-97631250D03*
D20*
X138112500Y-97631250D03*
D17*
X144812500Y-97631250D03*
X144812500Y-96631250D03*
X144812500Y-98631250D03*
D21*
X139382500Y-92551250D03*
X136842500Y-92551250D03*
X155892500Y-92551250D03*
X158432500Y-92551250D03*
D17*
X163862500Y-98631250D03*
X163862500Y-96631250D03*
X163862500Y-97631250D03*
D20*
X157162500Y-97631250D03*
D12*
X162242500Y-97631250D03*
X152082500Y-97631250D03*
D19*
X160972500Y-100171250D03*
D18*
X154622500Y-102508050D03*
D19*
X153352500Y-100171250D03*
D18*
X159702500Y-102508050D03*
D17*
X150462500Y-97631250D03*
X150462500Y-98631250D03*
X150462500Y-96631250D03*
X140937500Y-115681250D03*
X140937500Y-117681250D03*
X140937500Y-116681250D03*
D18*
X150177500Y-121558050D03*
D19*
X143827500Y-119221250D03*
D18*
X145097500Y-121558050D03*
D19*
X151447500Y-119221250D03*
D12*
X142557500Y-116681250D03*
X152717500Y-116681250D03*
D20*
X147637500Y-116681250D03*
D17*
X154337500Y-116681250D03*
X154337500Y-115681250D03*
X154337500Y-117681250D03*
D21*
X148907500Y-111601250D03*
X146367500Y-111601250D03*
X89217500Y-63976250D03*
X91757500Y-63976250D03*
D17*
X97187500Y-70056250D03*
X97187500Y-68056250D03*
X97187500Y-69056250D03*
D20*
X90487500Y-69056250D03*
D12*
X95567500Y-69056250D03*
X85407500Y-69056250D03*
D19*
X94297500Y-71596250D03*
D18*
X87947500Y-73933050D03*
D19*
X86677500Y-71596250D03*
D18*
X93027500Y-73933050D03*
D17*
X83787500Y-69056250D03*
X83787500Y-70056250D03*
X83787500Y-68056250D03*
X64737500Y-72818750D03*
X64737500Y-74818750D03*
X64737500Y-73818750D03*
D18*
X73977500Y-78695550D03*
D19*
X67627500Y-76358750D03*
D18*
X68897500Y-78695550D03*
D19*
X75247500Y-76358750D03*
D12*
X66357500Y-73818750D03*
X76517500Y-73818750D03*
D20*
X71437500Y-73818750D03*
D17*
X78137500Y-73818750D03*
X78137500Y-72818750D03*
X78137500Y-74818750D03*
D21*
X72707500Y-68738750D03*
X70167500Y-68738750D03*
X41592500Y-44926250D03*
X44132500Y-44926250D03*
D17*
X49562500Y-51006250D03*
X49562500Y-49006250D03*
X49562500Y-50006250D03*
D20*
X42862500Y-50006250D03*
D12*
X47942500Y-50006250D03*
X37782500Y-50006250D03*
D19*
X46672500Y-52546250D03*
D18*
X40322500Y-54883050D03*
D19*
X39052500Y-52546250D03*
D18*
X45402500Y-54883050D03*
D17*
X36162500Y-50006250D03*
X36162500Y-51006250D03*
X36162500Y-49006250D03*
D22*
X156083000Y-75107800D03*
X156108400Y-76250800D03*
X156108400Y-74015600D03*
X161290000Y-77279500D03*
X156164280Y-66321940D03*
X156169360Y-65234820D03*
X156133800Y-69626480D03*
X166751000Y-76898500D03*
X164592000Y-82550000D03*
X165671500Y-81470500D03*
X167894000Y-76898500D03*
X169037000Y-76898500D03*
X166768500Y-59184540D03*
X159090500Y-59148980D03*
X162052000Y-67691000D03*
X159068500Y-77418500D03*
X170068500Y-75184000D03*
X170090500Y-63447260D03*
X162368500Y-59143900D03*
X156169360Y-64129920D03*
X160168500Y-59156600D03*
X161268500Y-59156600D03*
X160718500Y-72136000D03*
X156179520Y-67416680D03*
X163468500Y-58353960D03*
X168968500Y-59184540D03*
X164568500Y-68326000D03*
X164553000Y-74319500D03*
X165671500Y-74319500D03*
X157734001Y-69913500D03*
X162052000Y-72619500D03*
X167868500Y-59184540D03*
D23*
X156083000Y-75107800D02*
X154379200Y-75107800D01*
X154379200Y-75107800D02*
X154368500Y-75118500D01*
X156076100Y-76218500D02*
X156108400Y-76250800D01*
X154368500Y-76218500D02*
X156076100Y-76218500D01*
X170068500Y-80668500D02*
X163170500Y-87566500D01*
X170068500Y-79168500D02*
X170068500Y-80668500D01*
X163170500Y-87566500D02*
X161695500Y-87566500D01*
X64579500Y-82804000D02*
X78867000Y-82804000D01*
X78867000Y-82804000D02*
X83566000Y-78105000D01*
X63627000Y-81851500D02*
X64579500Y-82804000D01*
X63563500Y-81851500D02*
X63627000Y-81851500D01*
X101854000Y-78930500D02*
X101854000Y-82296000D01*
X101854000Y-75095144D02*
X101854000Y-78930500D01*
X83566000Y-78105000D02*
X101028500Y-78105000D01*
X101028500Y-78105000D02*
X101854000Y-78930500D01*
X82677000Y-77216000D02*
X83566000Y-78105000D01*
X82677000Y-71166750D02*
X82677000Y-77216000D01*
X120777000Y-84010500D02*
X120777000Y-86677500D01*
X120777000Y-79984644D02*
X120777000Y-84010500D01*
X102425500Y-82867500D02*
X119634000Y-82867500D01*
X119634000Y-82867500D02*
X120777000Y-84010500D01*
X101854000Y-82296000D02*
X102425500Y-82867500D01*
X102130394Y-74818750D02*
X101854000Y-75095144D01*
X101854000Y-75095144D02*
X101727000Y-75222144D01*
X92202000Y-89598500D02*
X93091000Y-88709500D01*
X93091000Y-88709500D02*
X93218000Y-88709500D01*
X93218000Y-88709500D02*
X112077500Y-88709500D01*
X92202000Y-92456000D02*
X92202000Y-89598500D01*
X122872500Y-87566500D02*
X131254500Y-87566500D01*
X121666000Y-87566500D02*
X122872500Y-87566500D01*
X112077500Y-88709500D02*
X121729500Y-88709500D01*
X121729500Y-88709500D02*
X122872500Y-87566500D01*
X111252000Y-89535000D02*
X112077500Y-88709500D01*
X111252000Y-95520750D02*
X111252000Y-89535000D01*
X120777000Y-86677500D02*
X121666000Y-87566500D01*
X130302000Y-95520750D02*
X130302000Y-88519000D01*
X130302000Y-88519000D02*
X131254500Y-87566500D01*
X150431500Y-87566500D02*
X152170500Y-87566500D01*
X131254500Y-87566500D02*
X150431500Y-87566500D01*
X149352000Y-95567500D02*
X149352000Y-88646000D01*
X149352000Y-88646000D02*
X150431500Y-87566500D01*
X149915751Y-96131251D02*
X149352000Y-95567500D01*
X150462500Y-96631250D02*
X149962501Y-96131251D01*
X149962501Y-96131251D02*
X149915751Y-96131251D01*
X161695500Y-87566500D02*
X152170500Y-87566500D01*
X92138500Y-92392500D02*
X92202000Y-92456000D01*
X150685500Y-107315000D02*
X149352000Y-107315000D01*
X158242000Y-107315000D02*
X150685500Y-107315000D01*
X150462500Y-98631250D02*
X149755394Y-98631250D01*
X149755394Y-98631250D02*
X149352000Y-99034644D01*
X149352000Y-99034644D02*
X149352000Y-105981500D01*
X149352000Y-105981500D02*
X150685500Y-107315000D01*
X111252000Y-99758500D02*
X111252000Y-105854500D01*
X111862501Y-99147999D02*
X111252000Y-99758500D01*
X111862501Y-99131249D02*
X111862501Y-99147999D01*
X112362500Y-98631250D02*
X111862501Y-99131249D01*
X93345000Y-106680000D02*
X112077500Y-106680000D01*
X112077500Y-106680000D02*
X131508500Y-106680000D01*
X111252000Y-105854500D02*
X112077500Y-106680000D01*
X92202000Y-98631250D02*
X92202000Y-105537000D01*
X93312500Y-98631250D02*
X92202000Y-98631250D01*
X92202000Y-105537000D02*
X93345000Y-106680000D01*
X131508500Y-106680000D02*
X131572000Y-106616500D01*
X92202000Y-92456000D02*
X92202000Y-92583000D01*
X92202000Y-92583000D02*
X92202000Y-95520750D01*
X102837500Y-74818750D02*
X102130394Y-74818750D01*
X111252000Y-95520750D02*
X112362500Y-96631250D01*
X61404500Y-93726000D02*
X61404500Y-93535500D01*
X61404500Y-95504000D02*
X61404500Y-93726000D01*
X61404500Y-84010500D02*
X61404500Y-93726000D01*
X44704000Y-58928000D02*
X44704000Y-67072750D01*
X46164500Y-97091500D02*
X59817000Y-97091500D01*
X59817000Y-97091500D02*
X61404500Y-95504000D01*
X44704000Y-95631000D02*
X46164500Y-97091500D01*
X44704000Y-70332644D02*
X44704000Y-86122750D01*
X43434000Y-57658000D02*
X44704000Y-58928000D01*
X156108400Y-74015600D02*
X154371400Y-74015600D01*
X154371400Y-74015600D02*
X154368500Y-74018500D01*
D24*
X169579800Y-29575000D02*
X172770800Y-32766000D01*
X165735000Y-29575000D02*
X169579800Y-29575000D01*
X172770800Y-32766000D02*
X172770800Y-70287200D01*
X172770800Y-70287200D02*
X169588500Y-73469500D01*
X169588500Y-73469500D02*
X168338500Y-73469500D01*
X157990500Y-62917500D02*
X157990500Y-61167500D01*
X160718500Y-65645500D02*
X157990500Y-62917500D01*
X160718500Y-70802500D02*
X160718500Y-66294000D01*
X160718500Y-66294000D02*
X160718500Y-65645500D01*
D23*
X161290000Y-77279500D02*
X161290000Y-79147000D01*
X161290000Y-79147000D02*
X161268500Y-79168500D01*
D24*
X157734001Y-64436559D02*
X156921200Y-63623758D01*
X157734001Y-69913500D02*
X157734001Y-64436559D01*
X156921200Y-63623758D02*
X156921200Y-59755798D01*
X156921200Y-59755798D02*
X163701998Y-52975000D01*
X163701998Y-52975000D02*
X164320787Y-52975000D01*
X164320787Y-52975000D02*
X165735000Y-52975000D01*
D23*
X154394040Y-68513960D02*
X154390500Y-68517500D01*
D25*
X97187500Y-31956250D02*
X96567500Y-31956250D01*
X96567500Y-31956250D02*
X95567500Y-30956250D01*
X97187500Y-30956250D02*
X95567500Y-30956250D01*
X97187500Y-29956250D02*
X96567500Y-29956250D01*
X96567500Y-29956250D02*
X95567500Y-30956250D01*
X95567500Y-30956250D02*
X96187500Y-30956250D01*
X96187500Y-30956250D02*
X97187500Y-31956250D01*
X97187500Y-29956250D02*
X97187500Y-31956250D01*
D26*
X93027500Y-35833050D02*
X93027500Y-34766250D01*
X93027500Y-34766250D02*
X94297500Y-33496250D01*
X94297500Y-32226250D02*
X95567500Y-30956250D01*
X94297500Y-33496250D02*
X94297500Y-32226250D01*
D23*
X156164280Y-66321940D02*
X154394940Y-66321940D01*
X154394940Y-66321940D02*
X154390500Y-66317500D01*
D25*
X116237500Y-72818750D02*
X115617500Y-72818750D01*
X115617500Y-72818750D02*
X114617500Y-73818750D01*
X116237500Y-73818750D02*
X114617500Y-73818750D01*
X116237500Y-74818750D02*
X115617500Y-74818750D01*
X115617500Y-74818750D02*
X114617500Y-73818750D01*
X116237500Y-72818750D02*
X116237500Y-74818750D01*
D26*
X113347500Y-76358750D02*
X113347500Y-75088750D01*
X113347500Y-75088750D02*
X114617500Y-73818750D01*
X112077500Y-78695550D02*
X112077500Y-77628750D01*
X112077500Y-77628750D02*
X113347500Y-76358750D01*
D23*
X154390500Y-65217500D02*
X156152040Y-65217500D01*
X156152040Y-65217500D02*
X156169360Y-65234820D01*
D25*
X116237500Y-53768750D02*
X115617500Y-53768750D01*
X115617500Y-53768750D02*
X114617500Y-54768750D01*
X116237500Y-55768750D02*
X115617500Y-55768750D01*
X115617500Y-55768750D02*
X114617500Y-54768750D01*
X114617500Y-54768750D02*
X116237500Y-54768750D01*
X116237500Y-53768750D02*
X116237500Y-55768750D01*
D26*
X113347500Y-57308750D02*
X113347500Y-56038750D01*
X113347500Y-56038750D02*
X114617500Y-54768750D01*
X112077500Y-59645550D02*
X112077500Y-58578750D01*
X112077500Y-58578750D02*
X113347500Y-57308750D01*
D23*
X159068500Y-80668500D02*
X159068500Y-79168500D01*
X156124820Y-69617500D02*
X156133800Y-69626480D01*
X154390500Y-69617500D02*
X156124820Y-69617500D01*
D25*
X97187500Y-49006250D02*
X96567500Y-49006250D01*
X96567500Y-49006250D02*
X95567500Y-50006250D01*
X97187500Y-50006250D02*
X95567500Y-50006250D01*
X97187500Y-51006250D02*
X96567500Y-51006250D01*
X96567500Y-51006250D02*
X95567500Y-50006250D01*
X97187500Y-49006250D02*
X97187500Y-51006250D01*
D26*
X93027500Y-53816250D02*
X94297500Y-52546250D01*
X93027500Y-54883050D02*
X93027500Y-53816250D01*
X94297500Y-52546250D02*
X94297500Y-51276250D01*
X94297500Y-51276250D02*
X95567500Y-50006250D01*
D23*
X154393496Y-70714504D02*
X154390500Y-70717500D01*
D25*
X97187500Y-70056250D02*
X96567500Y-70056250D01*
X96567500Y-70056250D02*
X95567500Y-69056250D01*
X97187500Y-69056250D02*
X95567500Y-69056250D01*
X97187500Y-69215000D02*
X97187500Y-70056250D01*
X97187500Y-68056250D02*
X97187500Y-69215000D01*
X97187500Y-69056250D02*
X97187500Y-69215000D01*
X97187500Y-68056250D02*
X96567500Y-68056250D01*
X96567500Y-68056250D02*
X95567500Y-69056250D01*
D26*
X93027500Y-72866250D02*
X94297500Y-71596250D01*
X93027500Y-73933050D02*
X93027500Y-72866250D01*
X94297500Y-71596250D02*
X94297500Y-70326250D01*
X94297500Y-70326250D02*
X95567500Y-69056250D01*
D23*
X154393680Y-74020680D02*
X154390500Y-74017500D01*
D26*
X69215000Y-40595550D02*
X69215000Y-39528750D01*
X69215000Y-39528750D02*
X70485000Y-38258750D01*
X70485000Y-36988750D02*
X71755000Y-35718750D01*
X70485000Y-38258750D02*
X70485000Y-36988750D01*
D25*
X73375000Y-36718750D02*
X72755000Y-36718750D01*
X72755000Y-36718750D02*
X71755000Y-35718750D01*
X73375000Y-35718750D02*
X71755000Y-35718750D01*
X73375000Y-34718750D02*
X72755000Y-34718750D01*
X72755000Y-34718750D02*
X71755000Y-35718750D01*
D23*
X154390960Y-75117960D02*
X154390500Y-75117500D01*
D25*
X78137500Y-53768750D02*
X77517500Y-53768750D01*
X77517500Y-53768750D02*
X76517500Y-54768750D01*
X78137500Y-54768750D02*
X76517500Y-54768750D01*
X78137500Y-55768750D02*
X77517500Y-55768750D01*
X77517500Y-55768750D02*
X76517500Y-54768750D01*
X78137500Y-53768750D02*
X78137500Y-55768750D01*
D26*
X73977500Y-58578750D02*
X75247500Y-57308750D01*
X73977500Y-59645550D02*
X73977500Y-58578750D01*
X75247500Y-57308750D02*
X75247500Y-56038750D01*
X75247500Y-56038750D02*
X76517500Y-54768750D01*
D23*
X154395860Y-76222860D02*
X154390500Y-76217500D01*
D25*
X78137500Y-72818750D02*
X77517500Y-72818750D01*
X77517500Y-72818750D02*
X76517500Y-73818750D01*
X78137500Y-73818750D02*
X76517500Y-73818750D01*
X78137500Y-74818750D02*
X77517500Y-74818750D01*
X77517500Y-74818750D02*
X76517500Y-73818750D01*
X78137500Y-72818750D02*
X78137500Y-74818750D01*
D26*
X73977500Y-78695550D02*
X73977500Y-77628750D01*
X73977500Y-77628750D02*
X75247500Y-76358750D01*
X75247500Y-75088750D02*
X76517500Y-73818750D01*
X75247500Y-76358750D02*
X75247500Y-75088750D01*
D23*
X166790500Y-79167500D02*
X166790500Y-76938000D01*
X166790500Y-76938000D02*
X166751000Y-76898500D01*
D26*
X45402500Y-54883050D02*
X45402500Y-53816250D01*
X45402500Y-53816250D02*
X46672500Y-52546250D01*
X46672500Y-51276250D02*
X47942500Y-50006250D01*
X46672500Y-52546250D02*
X46672500Y-51276250D01*
D25*
X49562500Y-51006250D02*
X48942500Y-51006250D01*
X48942500Y-51006250D02*
X47942500Y-50006250D01*
X49562500Y-49006250D02*
X48942500Y-49006250D01*
X48942500Y-49006250D02*
X47942500Y-50006250D01*
X49562500Y-50006250D02*
X47942500Y-50006250D01*
X49562500Y-49006250D02*
X49562500Y-51006250D01*
D23*
X163893500Y-82550000D02*
X162368500Y-81025000D01*
X164592000Y-82550000D02*
X163893500Y-82550000D01*
X162368500Y-81025000D02*
X162368500Y-80668500D01*
X162368500Y-80668500D02*
X162368500Y-79168500D01*
X164274500Y-81470500D02*
X163468500Y-80664500D01*
X165671500Y-81470500D02*
X164274500Y-81470500D01*
X163468500Y-80664500D02*
X163468500Y-79168500D01*
X167890500Y-79167500D02*
X167890500Y-76902000D01*
X167890500Y-76902000D02*
X167894000Y-76898500D01*
D25*
X59087500Y-68056250D02*
X58467500Y-68056250D01*
X58467500Y-68056250D02*
X57467500Y-69056250D01*
X59087500Y-69056250D02*
X57467500Y-69056250D01*
X59087500Y-70056250D02*
X58467500Y-70056250D01*
X58467500Y-70056250D02*
X57467500Y-69056250D01*
X59087500Y-68056250D02*
X59087500Y-70056250D01*
D26*
X54927500Y-72866250D02*
X56197500Y-71596250D01*
X54927500Y-73933050D02*
X54927500Y-72866250D01*
X56197500Y-71596250D02*
X56197500Y-70326250D01*
X56197500Y-70326250D02*
X57467500Y-69056250D01*
D23*
X168990500Y-79167500D02*
X168990500Y-76945000D01*
X168990500Y-76945000D02*
X169037000Y-76898500D01*
D25*
X59087500Y-89106250D02*
X58467500Y-89106250D01*
X58467500Y-89106250D02*
X57467500Y-88106250D01*
X59087500Y-87106250D02*
X58467500Y-87106250D01*
X58467500Y-87106250D02*
X57467500Y-88106250D01*
X59087500Y-88106250D02*
X57467500Y-88106250D01*
X59087500Y-87106250D02*
X59087500Y-89106250D01*
D26*
X54927500Y-91916250D02*
X56197500Y-90646250D01*
X54927500Y-92983050D02*
X54927500Y-91916250D01*
X56197500Y-89376250D02*
X57467500Y-88106250D01*
X56197500Y-90646250D02*
X56197500Y-89376250D01*
D23*
X166790500Y-59206540D02*
X166768500Y-59184540D01*
X166790500Y-61167500D02*
X166790500Y-59206540D01*
D25*
X163862500Y-98631250D02*
X163242500Y-98631250D01*
X163242500Y-98631250D02*
X162242500Y-97631250D01*
X163862500Y-97631250D02*
X162242500Y-97631250D01*
X163862500Y-96631250D02*
X163242500Y-96631250D01*
X163242500Y-96631250D02*
X162242500Y-97631250D01*
X163862500Y-96631250D02*
X163862500Y-98631250D01*
D26*
X160972500Y-100171250D02*
X160972500Y-98901250D01*
X160972500Y-98901250D02*
X162242500Y-97631250D01*
X159702500Y-102508050D02*
X159702500Y-101441250D01*
X159702500Y-101441250D02*
X160972500Y-100171250D01*
D23*
X44704000Y-89382644D02*
X44704000Y-95631000D01*
X45687500Y-89106250D02*
X44980394Y-89106250D01*
X44980394Y-89106250D02*
X44704000Y-89382644D01*
X61404500Y-84010500D02*
X63563500Y-81851500D01*
X63563500Y-75285644D02*
X64030394Y-74818750D01*
X63563500Y-75285644D02*
X63563500Y-81851500D01*
X64030394Y-74818750D02*
X64737500Y-74818750D01*
X131572000Y-106616500D02*
X139128500Y-106616500D01*
X139128500Y-106616500D02*
X139827000Y-107315000D01*
X130302000Y-105346500D02*
X131572000Y-106616500D01*
X130302000Y-101854000D02*
X130302000Y-105346500D01*
X130302000Y-99034644D02*
X130302000Y-101854000D01*
X159090500Y-59148980D02*
X159090500Y-61167500D01*
D24*
X170090500Y-63447260D02*
X170090500Y-61167500D01*
X169148760Y-64389000D02*
X170090500Y-63447260D01*
X162052000Y-64389000D02*
X169148760Y-64389000D01*
X162043500Y-67699500D02*
X162052000Y-67691000D01*
X160951998Y-64389000D02*
X162052000Y-64389000D01*
X159090500Y-61167500D02*
X159090500Y-62527502D01*
X162052000Y-67691000D02*
X162052000Y-64389000D01*
X162043500Y-68963500D02*
X162043500Y-67699500D01*
X170090500Y-79167500D02*
X170090500Y-75206000D01*
X159090500Y-62527502D02*
X160951998Y-64389000D01*
X159090500Y-77440500D02*
X159068500Y-77418500D01*
X170090500Y-75206000D02*
X170068500Y-75184000D01*
X159090500Y-79167500D02*
X159090500Y-77440500D01*
X162052000Y-67691000D02*
X162052000Y-67125315D01*
D23*
X63627000Y-46672500D02*
X63627000Y-52658250D01*
X61658500Y-44704000D02*
X63627000Y-46672500D01*
X59817000Y-44704000D02*
X61658500Y-44704000D01*
X58928000Y-43815000D02*
X59817000Y-44704000D01*
X59975000Y-36718750D02*
X58928000Y-37765750D01*
X58928000Y-37765750D02*
X58928000Y-43815000D01*
X63627000Y-52658250D02*
X64737500Y-53768750D01*
X35687000Y-57658000D02*
X43434000Y-57658000D01*
X35115500Y-57086500D02*
X35687000Y-57658000D01*
X35115500Y-51346144D02*
X35115500Y-57086500D01*
X36162500Y-51006250D02*
X35455394Y-51006250D01*
X35455394Y-51006250D02*
X35115500Y-51346144D01*
X44704000Y-67072750D02*
X45687500Y-68056250D01*
X131412500Y-98631250D02*
X130705394Y-98631250D01*
X130705394Y-98631250D02*
X130302000Y-99034644D01*
X101727000Y-56172144D02*
X101727000Y-71708250D01*
X101727000Y-71708250D02*
X102837500Y-72818750D01*
X102837500Y-55768750D02*
X102130394Y-55768750D01*
X102130394Y-55768750D02*
X101727000Y-56172144D01*
X44704000Y-86122750D02*
X45687500Y-87106250D01*
X45687500Y-70056250D02*
X44980394Y-70056250D01*
X44980394Y-70056250D02*
X44704000Y-70332644D01*
X149352000Y-107315000D02*
X139827000Y-107315000D01*
X140937500Y-115681250D02*
X140230394Y-115681250D01*
X140230394Y-115681250D02*
X139827000Y-115277856D01*
X139827000Y-115277856D02*
X139827000Y-107315000D01*
X158877000Y-107950000D02*
X158242000Y-107315000D01*
X158877000Y-115277856D02*
X158877000Y-107950000D01*
X159987500Y-115681250D02*
X159280394Y-115681250D01*
X159280394Y-115681250D02*
X158877000Y-115277856D01*
X130302000Y-95520750D02*
X131412500Y-96631250D01*
X121887500Y-79581250D02*
X121180394Y-79581250D01*
X121180394Y-79581250D02*
X120777000Y-79984644D01*
X120777000Y-60934644D02*
X120777000Y-76470750D01*
X120777000Y-76470750D02*
X121887500Y-77581250D01*
X121887500Y-60531250D02*
X121180394Y-60531250D01*
X121180394Y-60531250D02*
X120777000Y-60934644D01*
X120777000Y-41884644D02*
X120777000Y-57420750D01*
X120777000Y-57420750D02*
X121887500Y-58531250D01*
X121887500Y-41481250D02*
X121180394Y-41481250D01*
X121180394Y-41481250D02*
X120777000Y-41884644D01*
X101727000Y-37122144D02*
X101727000Y-52658250D01*
X101727000Y-52658250D02*
X102837500Y-53768750D01*
X102837500Y-36718750D02*
X102130394Y-36718750D01*
X102130394Y-36718750D02*
X101727000Y-37122144D01*
X92202000Y-95520750D02*
X93312500Y-96631250D01*
X83787500Y-70056250D02*
X82677000Y-71166750D01*
X82677000Y-52116750D02*
X82677000Y-66945750D01*
X82677000Y-66945750D02*
X83787500Y-68056250D01*
X83787500Y-51006250D02*
X82677000Y-52116750D01*
X82677000Y-32359644D02*
X82677000Y-47895750D01*
X82677000Y-47895750D02*
X83787500Y-49006250D01*
X83787500Y-31956250D02*
X83080394Y-31956250D01*
X83080394Y-31956250D02*
X82677000Y-32359644D01*
X63627000Y-56172144D02*
X63627000Y-71708250D01*
X63627000Y-71708250D02*
X64737500Y-72818750D01*
X64737500Y-55768750D02*
X64030394Y-55768750D01*
X64030394Y-55768750D02*
X63627000Y-56172144D01*
D25*
X159987500Y-117681250D02*
X160607500Y-117681250D01*
X160607500Y-117681250D02*
X161607500Y-116681250D01*
X159987500Y-116681250D02*
X161607500Y-116681250D01*
X159987500Y-115681250D02*
X160607500Y-115681250D01*
X160607500Y-115681250D02*
X161607500Y-116681250D01*
X159987500Y-115681250D02*
X159987500Y-117681250D01*
X140937500Y-117681250D02*
X141557500Y-117681250D01*
X141557500Y-117681250D02*
X142557500Y-116681250D01*
X140937500Y-116681250D02*
X142557500Y-116681250D01*
X140937500Y-115681250D02*
X141557500Y-115681250D01*
X141557500Y-115681250D02*
X142557500Y-116681250D01*
X140937500Y-115681250D02*
X140937500Y-117681250D01*
X150462500Y-98631250D02*
X151082500Y-98631250D01*
X151082500Y-98631250D02*
X152082500Y-97631250D01*
X150462500Y-97631250D02*
X152082500Y-97631250D01*
X150462500Y-96631250D02*
X151082500Y-96631250D01*
X151082500Y-96631250D02*
X152082500Y-97631250D01*
X150462500Y-96631250D02*
X150462500Y-98631250D01*
X131412500Y-98631250D02*
X132032500Y-98631250D01*
X132032500Y-98631250D02*
X133032500Y-97631250D01*
X131412500Y-97631250D02*
X133032500Y-97631250D01*
X131412500Y-96631250D02*
X132032500Y-96631250D01*
X132032500Y-96631250D02*
X133032500Y-97631250D01*
X131412500Y-96631250D02*
X131412500Y-98631250D01*
X112362500Y-96631250D02*
X112982500Y-96631250D01*
X112982500Y-96631250D02*
X113982500Y-97631250D01*
X112362500Y-97631250D02*
X113982500Y-97631250D01*
X112362500Y-98631250D02*
X112982500Y-98631250D01*
X112982500Y-98631250D02*
X113982500Y-97631250D01*
X112362500Y-96631250D02*
X112362500Y-98631250D01*
X93312500Y-98631250D02*
X93932500Y-98631250D01*
X93932500Y-98631250D02*
X94932500Y-97631250D01*
X93312500Y-97631250D02*
X94932500Y-97631250D01*
X93312500Y-96631250D02*
X93932500Y-96631250D01*
X93932500Y-96631250D02*
X94932500Y-97631250D01*
X93312500Y-96631250D02*
X93312500Y-98631250D01*
X64737500Y-74818750D02*
X65357500Y-74818750D01*
X65357500Y-74818750D02*
X66357500Y-73818750D01*
X64737500Y-73818750D02*
X66357500Y-73818750D01*
X64737500Y-72818750D02*
X65357500Y-72818750D01*
X65357500Y-72818750D02*
X66357500Y-73818750D01*
X64737500Y-72818750D02*
X64737500Y-74818750D01*
X45687500Y-89106250D02*
X46307500Y-89106250D01*
X46307500Y-89106250D02*
X47307500Y-88106250D01*
X45687500Y-88106250D02*
X47307500Y-88106250D01*
X45687500Y-87106250D02*
X46307500Y-87106250D01*
X46307500Y-87106250D02*
X47307500Y-88106250D01*
X45687500Y-87106250D02*
X45687500Y-89106250D01*
X83787500Y-68056250D02*
X84407500Y-68056250D01*
X84407500Y-68056250D02*
X85407500Y-69056250D01*
X83787500Y-69056250D02*
X85407500Y-69056250D01*
X83787500Y-70056250D02*
X84407500Y-70056250D01*
X84407500Y-70056250D02*
X85407500Y-69056250D01*
X83787500Y-68056250D02*
X83787500Y-70056250D01*
X102837500Y-72818750D02*
X103457500Y-72818750D01*
X103457500Y-72818750D02*
X104457500Y-73818750D01*
X104457500Y-73818750D02*
X102837500Y-73818750D01*
X102837500Y-74818750D02*
X103457500Y-74818750D01*
X103457500Y-74818750D02*
X104457500Y-73818750D01*
X102837500Y-72818750D02*
X102837500Y-74818750D01*
X121887500Y-77581250D02*
X122507500Y-77581250D01*
X122507500Y-77581250D02*
X123507500Y-78581250D01*
X121887500Y-78581250D02*
X123507500Y-78581250D01*
X121887500Y-79581250D02*
X122507500Y-79581250D01*
X122507500Y-79581250D02*
X123507500Y-78581250D01*
X121887500Y-77581250D02*
X121887500Y-79581250D01*
X121887500Y-58531250D02*
X122507500Y-58531250D01*
X122507500Y-58531250D02*
X123507500Y-59531250D01*
X123507500Y-59531250D02*
X121887500Y-59531250D01*
X121887500Y-60531250D02*
X122507500Y-60531250D01*
X122507500Y-60531250D02*
X123507500Y-59531250D01*
X121887500Y-58531250D02*
X121887500Y-60531250D01*
X121887500Y-39481250D02*
X122507500Y-39481250D01*
X122507500Y-39481250D02*
X123507500Y-40481250D01*
X121887500Y-40481250D02*
X123507500Y-40481250D01*
X121887500Y-41481250D02*
X122507500Y-41481250D01*
X122507500Y-41481250D02*
X123507500Y-40481250D01*
X121887500Y-39481250D02*
X121887500Y-41481250D01*
X83787500Y-29956250D02*
X84407500Y-29956250D01*
X84407500Y-29956250D02*
X85407500Y-30956250D01*
X83787500Y-30956250D02*
X85407500Y-30956250D01*
X83787500Y-31956250D02*
X84407500Y-31956250D01*
X84407500Y-31956250D02*
X85407500Y-30956250D01*
X83787500Y-29956250D02*
X83787500Y-31956250D01*
X102837500Y-36718750D02*
X103457500Y-36718750D01*
X103457500Y-36718750D02*
X104457500Y-35718750D01*
X102837500Y-35718750D02*
X104457500Y-35718750D01*
X102837500Y-34718750D02*
X103457500Y-34718750D01*
X103457500Y-34718750D02*
X104457500Y-35718750D01*
X102837500Y-34718750D02*
X102837500Y-36718750D01*
X102837500Y-53768750D02*
X103457500Y-53768750D01*
X103457500Y-53768750D02*
X104457500Y-54768750D01*
X102837500Y-54768750D02*
X104457500Y-54768750D01*
X102837500Y-55768750D02*
X103457500Y-55768750D01*
X103457500Y-55768750D02*
X104457500Y-54768750D01*
X102837500Y-53768750D02*
X102837500Y-55768750D01*
X83787500Y-49006250D02*
X84407500Y-49006250D01*
X84407500Y-49006250D02*
X85407500Y-50006250D01*
X83787500Y-50006250D02*
X85407500Y-50006250D01*
X83787500Y-51006250D02*
X84407500Y-51006250D01*
X84407500Y-51006250D02*
X85407500Y-50006250D01*
X83787500Y-49006250D02*
X83787500Y-51006250D01*
X64737500Y-53768750D02*
X65357500Y-53768750D01*
X65357500Y-53768750D02*
X66357500Y-54768750D01*
X64737500Y-54768750D02*
X66357500Y-54768750D01*
X64737500Y-55768750D02*
X65357500Y-55768750D01*
X65357500Y-55768750D02*
X66357500Y-54768750D01*
X64737500Y-53768750D02*
X64737500Y-55768750D01*
X45687500Y-70056250D02*
X46307500Y-70056250D01*
X46307500Y-70056250D02*
X47307500Y-69056250D01*
X45687500Y-69056250D02*
X47307500Y-69056250D01*
X45687500Y-68056250D02*
X46307500Y-68056250D01*
X46307500Y-68056250D02*
X47307500Y-69056250D01*
X45687500Y-68056250D02*
X45687500Y-70056250D01*
D26*
X40322500Y-54883050D02*
X40322500Y-53816250D01*
X40322500Y-53816250D02*
X39052500Y-52546250D01*
X39052500Y-52546250D02*
X39052500Y-51276250D01*
X39052500Y-51276250D02*
X37782500Y-50006250D01*
X64135000Y-39528750D02*
X62865000Y-38258750D01*
X64135000Y-40595550D02*
X64135000Y-39528750D01*
X62865000Y-38258750D02*
X62865000Y-36988750D01*
X62865000Y-36988750D02*
X61595000Y-35718750D01*
X87947500Y-34766250D02*
X86677500Y-33496250D01*
X87947500Y-35833050D02*
X87947500Y-34766250D01*
X86677500Y-33496250D02*
X86677500Y-32226250D01*
X86677500Y-32226250D02*
X85407500Y-30956250D01*
X48577500Y-71596250D02*
X48577500Y-70326250D01*
X48577500Y-70326250D02*
X47307500Y-69056250D01*
X49847500Y-73933050D02*
X49847500Y-72866250D01*
X49847500Y-72866250D02*
X48577500Y-71596250D01*
X67627500Y-56038750D02*
X66357500Y-54768750D01*
X67627500Y-57308750D02*
X67627500Y-56038750D01*
X68897500Y-59645550D02*
X68897500Y-58578750D01*
X68897500Y-58578750D02*
X67627500Y-57308750D01*
X86677500Y-51276250D02*
X85407500Y-50006250D01*
X86677500Y-52546250D02*
X86677500Y-51276250D01*
X87947500Y-54883050D02*
X87947500Y-53816250D01*
X87947500Y-53816250D02*
X86677500Y-52546250D01*
X49847500Y-92983050D02*
X49847500Y-91916250D01*
X49847500Y-91916250D02*
X48577500Y-90646250D01*
X48577500Y-89376250D02*
X47307500Y-88106250D01*
X48577500Y-90646250D02*
X48577500Y-89376250D01*
X68897500Y-77628750D02*
X67627500Y-76358750D01*
X68897500Y-78695550D02*
X68897500Y-77628750D01*
X67627500Y-75088750D02*
X66357500Y-73818750D01*
X67627500Y-76358750D02*
X67627500Y-75088750D01*
X87947500Y-73933050D02*
X87947500Y-72866250D01*
X87947500Y-72866250D02*
X86677500Y-71596250D01*
X86677500Y-70326250D02*
X85407500Y-69056250D01*
X86677500Y-71596250D02*
X86677500Y-70326250D01*
X106997500Y-58578750D02*
X105727500Y-57308750D01*
X106997500Y-59645550D02*
X106997500Y-58578750D01*
X105727500Y-57308750D02*
X105727500Y-56038750D01*
X105727500Y-56038750D02*
X104457500Y-54768750D01*
X106997500Y-39528750D02*
X105727500Y-38258750D01*
X106997500Y-40595550D02*
X106997500Y-39528750D01*
X105727500Y-36988750D02*
X104457500Y-35718750D01*
X105727500Y-38258750D02*
X105727500Y-36988750D01*
X162877500Y-119221250D02*
X162877500Y-117951250D01*
X162877500Y-117951250D02*
X161607500Y-116681250D01*
X164147500Y-121558050D02*
X164147500Y-120491250D01*
X164147500Y-120491250D02*
X162877500Y-119221250D01*
X143827500Y-119221250D02*
X143827500Y-117951250D01*
X143827500Y-117951250D02*
X142557500Y-116681250D01*
X145097500Y-121558050D02*
X145097500Y-120491250D01*
X145097500Y-120491250D02*
X143827500Y-119221250D01*
X153352500Y-100171250D02*
X153352500Y-98901250D01*
X153352500Y-98901250D02*
X152082500Y-97631250D01*
X154622500Y-102508050D02*
X154622500Y-101441250D01*
X154622500Y-101441250D02*
X153352500Y-100171250D01*
X134302500Y-100171250D02*
X134302500Y-98901250D01*
X134302500Y-98901250D02*
X133032500Y-97631250D01*
X135572500Y-102508050D02*
X135572500Y-101441250D01*
X135572500Y-101441250D02*
X134302500Y-100171250D01*
X115252500Y-100171250D02*
X115252500Y-98901250D01*
X115252500Y-98901250D02*
X113982500Y-97631250D01*
X116522500Y-102508050D02*
X116522500Y-101441250D01*
X116522500Y-101441250D02*
X115252500Y-100171250D01*
X124777500Y-81121250D02*
X124777500Y-79851250D01*
X124777500Y-79851250D02*
X123507500Y-78581250D01*
X126047500Y-83458050D02*
X126047500Y-82391250D01*
X126047500Y-82391250D02*
X124777500Y-81121250D01*
X105727500Y-76358750D02*
X105727500Y-75088750D01*
X105727500Y-75088750D02*
X104457500Y-73818750D01*
X106997500Y-78695550D02*
X106997500Y-77628750D01*
X106997500Y-77628750D02*
X105727500Y-76358750D01*
X96202500Y-100171250D02*
X96202500Y-98901250D01*
X96202500Y-98901250D02*
X94932500Y-97631250D01*
X97472500Y-102508050D02*
X97472500Y-101441250D01*
X97472500Y-101441250D02*
X96202500Y-100171250D01*
X124777500Y-62071250D02*
X124777500Y-60801250D01*
X124777500Y-60801250D02*
X123507500Y-59531250D01*
X126047500Y-64408050D02*
X126047500Y-63341250D01*
X126047500Y-63341250D02*
X124777500Y-62071250D01*
X124777500Y-43021250D02*
X124777500Y-41751250D01*
X124777500Y-41751250D02*
X123507500Y-40481250D01*
X126047500Y-45358050D02*
X126047500Y-44291250D01*
X126047500Y-44291250D02*
X124777500Y-43021250D01*
D25*
X59975000Y-36718750D02*
X60595000Y-36718750D01*
X60595000Y-36718750D02*
X61595000Y-35718750D01*
X59975000Y-35718750D02*
X61595000Y-35718750D01*
X59975000Y-34718750D02*
X60595000Y-34718750D01*
X60595000Y-34718750D02*
X61595000Y-35718750D01*
X36162500Y-51006250D02*
X36782500Y-51006250D01*
X36782500Y-51006250D02*
X37782500Y-50006250D01*
X36162500Y-49006250D02*
X36782500Y-49006250D01*
X36782500Y-49006250D02*
X37782500Y-50006250D01*
X36162500Y-50006250D02*
X37782500Y-50006250D01*
X36162500Y-49006250D02*
X36162500Y-51006250D01*
D23*
X164066900Y-59143900D02*
X164590500Y-59667500D01*
X164590500Y-59667500D02*
X164590500Y-61167500D01*
X162368500Y-59143900D02*
X164066900Y-59143900D01*
D25*
X135287500Y-77581250D02*
X134667500Y-77581250D01*
X134667500Y-77581250D02*
X133667500Y-78581250D01*
X133667500Y-78581250D02*
X135287500Y-78581250D01*
X135287500Y-79581250D02*
X134667500Y-79581250D01*
X134667500Y-79581250D02*
X133667500Y-78581250D01*
X135287500Y-77581250D02*
X135287500Y-79581250D01*
D26*
X132397500Y-81121250D02*
X132397500Y-79851250D01*
X132397500Y-79851250D02*
X133667500Y-78581250D01*
X131127500Y-83458050D02*
X131127500Y-82391250D01*
X131127500Y-82391250D02*
X132397500Y-81121250D01*
D23*
X154390500Y-64117500D02*
X156156940Y-64117500D01*
X156156940Y-64117500D02*
X156169360Y-64129920D01*
D25*
X116237500Y-36718750D02*
X115617500Y-36718750D01*
X115617500Y-36718750D02*
X114617500Y-35718750D01*
X116237500Y-35718750D02*
X114617500Y-35718750D01*
X116237500Y-34718750D02*
X115617500Y-34718750D01*
X115617500Y-34718750D02*
X114617500Y-35718750D01*
X116237500Y-34718750D02*
X116237500Y-36718750D01*
D26*
X113347500Y-38258750D02*
X113347500Y-36988750D01*
X113347500Y-36988750D02*
X114617500Y-35718750D01*
X112077500Y-40595550D02*
X112077500Y-39528750D01*
X112077500Y-39528750D02*
X113347500Y-38258750D01*
D23*
X160168500Y-59156600D02*
X160168500Y-61145500D01*
X160168500Y-61145500D02*
X160190500Y-61167500D01*
D25*
X135287500Y-41481250D02*
X134667500Y-41481250D01*
X134667500Y-41481250D02*
X133667500Y-40481250D01*
X135287500Y-40481250D02*
X133667500Y-40481250D01*
X135287500Y-39481250D02*
X134667500Y-39481250D01*
X134667500Y-39481250D02*
X133667500Y-40481250D01*
X135287500Y-39481250D02*
X135287500Y-41481250D01*
D26*
X132397500Y-43021250D02*
X132397500Y-41751250D01*
X132397500Y-41751250D02*
X133667500Y-40481250D01*
X131127500Y-45358050D02*
X131127500Y-44291250D01*
X131127500Y-44291250D02*
X132397500Y-43021250D01*
D23*
X161268500Y-61145500D02*
X161290500Y-61167500D01*
X161268500Y-59156600D02*
X161268500Y-61145500D01*
X161290500Y-61167500D02*
X161290500Y-59178600D01*
X161290500Y-59178600D02*
X161268500Y-59156600D01*
D25*
X135287500Y-58531250D02*
X134667500Y-58531250D01*
X134667500Y-58531250D02*
X133667500Y-59531250D01*
X135287500Y-59531250D02*
X133667500Y-59531250D01*
X135287500Y-60531250D02*
X134667500Y-60531250D01*
X134667500Y-60531250D02*
X133667500Y-59531250D01*
X135287500Y-58531250D02*
X135287500Y-60531250D01*
D26*
X132397500Y-62071250D02*
X132397500Y-60801250D01*
X132397500Y-60801250D02*
X133667500Y-59531250D01*
X131127500Y-64408050D02*
X131127500Y-63341250D01*
X131127500Y-63341250D02*
X132397500Y-62071250D01*
D24*
X160718500Y-70802500D02*
X160718500Y-70813500D01*
X160768500Y-70863500D02*
X162043500Y-70863500D01*
X161982500Y-70802500D02*
X162043500Y-70863500D01*
X160718500Y-72707500D02*
X160718500Y-72136000D01*
X165735000Y-41275000D02*
X165735000Y-32004000D01*
X160718500Y-72136000D02*
X160718500Y-70802500D01*
X168338500Y-73469500D02*
X161480500Y-73469500D01*
X165735000Y-32004000D02*
X165735000Y-29575000D01*
X160718500Y-70813500D02*
X160768500Y-70863500D01*
X161480500Y-73469500D02*
X160718500Y-72707500D01*
D23*
X154391320Y-67416680D02*
X154390500Y-67417500D01*
X156179520Y-67416680D02*
X154391320Y-67416680D01*
D25*
X125762500Y-98631250D02*
X125142500Y-98631250D01*
X125142500Y-98631250D02*
X124142500Y-97631250D01*
X125762500Y-97631250D02*
X124142500Y-97631250D01*
X125762500Y-96631250D02*
X125142500Y-96631250D01*
X125142500Y-96631250D02*
X124142500Y-97631250D01*
X125762500Y-96631250D02*
X125762500Y-98631250D01*
D26*
X122872500Y-100171250D02*
X122872500Y-98901250D01*
X122872500Y-98901250D02*
X124142500Y-97631250D01*
X121602500Y-102508050D02*
X121602500Y-101441250D01*
X121602500Y-101441250D02*
X122872500Y-100171250D01*
D23*
X165690500Y-59667500D02*
X165690500Y-61167500D01*
X164376960Y-58353960D02*
X165690500Y-59667500D01*
X163468500Y-58353960D02*
X164376960Y-58353960D01*
D25*
X144812500Y-98631250D02*
X144192500Y-98631250D01*
X144192500Y-98631250D02*
X143192500Y-97631250D01*
X144812500Y-97631250D02*
X143192500Y-97631250D01*
X144812500Y-96631250D02*
X144192500Y-96631250D01*
X144192500Y-96631250D02*
X143192500Y-97631250D01*
X144812500Y-96631250D02*
X144812500Y-98631250D01*
D26*
X141922500Y-100171250D02*
X141922500Y-98901250D01*
X141922500Y-98901250D02*
X143192500Y-97631250D01*
X140652500Y-102508050D02*
X140652500Y-101441250D01*
X140652500Y-101441250D02*
X141922500Y-100171250D01*
D23*
X168990500Y-61167500D02*
X168990500Y-59206540D01*
X168990500Y-59206540D02*
X168968500Y-59184540D01*
D25*
X154337500Y-117681250D02*
X153717500Y-117681250D01*
X153717500Y-117681250D02*
X152717500Y-116681250D01*
X154337500Y-116681250D02*
X152717500Y-116681250D01*
X154337500Y-115681250D02*
X153717500Y-115681250D01*
X153717500Y-115681250D02*
X152717500Y-116681250D01*
X154337500Y-115681250D02*
X154337500Y-117681250D01*
D26*
X151447500Y-119221250D02*
X151447500Y-117951250D01*
X151447500Y-117951250D02*
X152717500Y-116681250D01*
X150177500Y-121558050D02*
X150177500Y-120491250D01*
X150177500Y-120491250D02*
X151447500Y-119221250D01*
D23*
X154406740Y-71833740D02*
X154390500Y-71817500D01*
D25*
X106712500Y-96631250D02*
X106092500Y-96631250D01*
X106092500Y-96631250D02*
X105092500Y-97631250D01*
X106712500Y-97631250D02*
X105092500Y-97631250D01*
X106712500Y-98631250D02*
X106092500Y-98631250D01*
X106092500Y-98631250D02*
X105092500Y-97631250D01*
X106712500Y-96631250D02*
X106712500Y-98631250D01*
D26*
X103822500Y-100171250D02*
X103822500Y-98901250D01*
X103822500Y-98901250D02*
X105092500Y-97631250D01*
X102552500Y-102508050D02*
X102552500Y-101441250D01*
X102552500Y-101441250D02*
X103822500Y-100171250D01*
D23*
X164553000Y-74319500D02*
X164553000Y-79130000D01*
X164568500Y-68326000D02*
X168275000Y-68326000D01*
X168275000Y-68326000D02*
X168338500Y-68389500D01*
X164553000Y-79130000D02*
X164590500Y-79167500D01*
X165671500Y-74319500D02*
X165671500Y-79148500D01*
X165671500Y-79148500D02*
X165690500Y-79167500D01*
D24*
X162052000Y-72644000D02*
X162052000Y-72619500D01*
X168338500Y-70929500D02*
X167277840Y-70929500D01*
X167277840Y-70929500D02*
X165563340Y-72644000D01*
X165563340Y-72644000D02*
X162052000Y-72619500D01*
X159393500Y-69913500D02*
X157734001Y-69913500D01*
D23*
X167890500Y-61167500D02*
X167890500Y-59206540D01*
X167890500Y-59206540D02*
X167868500Y-59184540D01*
D25*
X173387500Y-115681250D02*
X172767500Y-115681250D01*
X172767500Y-115681250D02*
X171767500Y-116681250D01*
X173387500Y-116681250D02*
X171767500Y-116681250D01*
X173387500Y-117681250D02*
X172767500Y-117681250D01*
X172767500Y-117681250D02*
X171767500Y-116681250D01*
X173387500Y-115681250D02*
X173387500Y-117681250D01*
D26*
X170497500Y-119221250D02*
X170497500Y-117951250D01*
X170497500Y-117951250D02*
X171767500Y-116681250D01*
X169227500Y-121558050D02*
X169227500Y-120491250D01*
X169227500Y-120491250D02*
X170497500Y-119221250D01*
M02*
