G04 #@! TF.GenerationSoftware,KiCad,Pcbnew,(5.0.0-rc2-dev-301-g33f795be4)*
G04 #@! TF.CreationDate,2018-06-10T21:23:58+02:00*
G04 #@! TF.ProjectId,kissboard,6B697373626F6172642E6B696361645F,rev?*
G04 #@! TF.SameCoordinates,Original*
G04 #@! TF.FileFunction,Legend,Top*
G04 #@! TF.FilePolarity,Positive*
%FSLAX46Y46*%
G04 Gerber Fmt 4.6, Leading zero omitted, Abs format (unit mm)*
G04 Created by KiCad (PCBNEW (5.0.0-rc2-dev-301-g33f795be4)) date 06/10/18 21:23:58*
%MOMM*%
%LPD*%
G01*
G04 APERTURE LIST*
%ADD10C,0.300000*%
%ADD11C,0.150000*%
G04 APERTURE END LIST*
D10*
X35910547Y-31829261D02*
X35910547Y-29829261D01*
X37053404Y-31829261D02*
X36196261Y-30686404D01*
X37053404Y-29829261D02*
X35910547Y-30972119D01*
X37910547Y-31829261D02*
X37910547Y-29829261D01*
X38767690Y-31734023D02*
X39053404Y-31829261D01*
X39529595Y-31829261D01*
X39720071Y-31734023D01*
X39815309Y-31638785D01*
X39910547Y-31448309D01*
X39910547Y-31257833D01*
X39815309Y-31067357D01*
X39720071Y-30972119D01*
X39529595Y-30876880D01*
X39148642Y-30781642D01*
X38958166Y-30686404D01*
X38862928Y-30591166D01*
X38767690Y-30400690D01*
X38767690Y-30210214D01*
X38862928Y-30019738D01*
X38958166Y-29924500D01*
X39148642Y-29829261D01*
X39624833Y-29829261D01*
X39910547Y-29924500D01*
X40672452Y-31734023D02*
X40958166Y-31829261D01*
X41434357Y-31829261D01*
X41624833Y-31734023D01*
X41720071Y-31638785D01*
X41815309Y-31448309D01*
X41815309Y-31257833D01*
X41720071Y-31067357D01*
X41624833Y-30972119D01*
X41434357Y-30876880D01*
X41053404Y-30781642D01*
X40862928Y-30686404D01*
X40767690Y-30591166D01*
X40672452Y-30400690D01*
X40672452Y-30210214D01*
X40767690Y-30019738D01*
X40862928Y-29924500D01*
X41053404Y-29829261D01*
X41529595Y-29829261D01*
X41815309Y-29924500D01*
X43339119Y-30781642D02*
X43624833Y-30876880D01*
X43720071Y-30972119D01*
X43815309Y-31162595D01*
X43815309Y-31448309D01*
X43720071Y-31638785D01*
X43624833Y-31734023D01*
X43434357Y-31829261D01*
X42672452Y-31829261D01*
X42672452Y-29829261D01*
X43339119Y-29829261D01*
X43529595Y-29924500D01*
X43624833Y-30019738D01*
X43720071Y-30210214D01*
X43720071Y-30400690D01*
X43624833Y-30591166D01*
X43529595Y-30686404D01*
X43339119Y-30781642D01*
X42672452Y-30781642D01*
X45053404Y-29829261D02*
X45434357Y-29829261D01*
X45624833Y-29924500D01*
X45815309Y-30114976D01*
X45910547Y-30495928D01*
X45910547Y-31162595D01*
X45815309Y-31543547D01*
X45624833Y-31734023D01*
X45434357Y-31829261D01*
X45053404Y-31829261D01*
X44862928Y-31734023D01*
X44672452Y-31543547D01*
X44577214Y-31162595D01*
X44577214Y-30495928D01*
X44672452Y-30114976D01*
X44862928Y-29924500D01*
X45053404Y-29829261D01*
X46672452Y-31257833D02*
X47624833Y-31257833D01*
X46481976Y-31829261D02*
X47148642Y-29829261D01*
X47815309Y-31829261D01*
X49624833Y-31829261D02*
X48958166Y-30876880D01*
X48481976Y-31829261D02*
X48481976Y-29829261D01*
X49243880Y-29829261D01*
X49434357Y-29924500D01*
X49529595Y-30019738D01*
X49624833Y-30210214D01*
X49624833Y-30495928D01*
X49529595Y-30686404D01*
X49434357Y-30781642D01*
X49243880Y-30876880D01*
X48481976Y-30876880D01*
X50481976Y-31829261D02*
X50481976Y-29829261D01*
X50958166Y-29829261D01*
X51243880Y-29924500D01*
X51434357Y-30114976D01*
X51529595Y-30305452D01*
X51624833Y-30686404D01*
X51624833Y-30972119D01*
X51529595Y-31353071D01*
X51434357Y-31543547D01*
X51243880Y-31734023D01*
X50958166Y-31829261D01*
X50481976Y-31829261D01*
X53720071Y-29829261D02*
X54386738Y-31829261D01*
X55053404Y-29829261D01*
X56767690Y-31829261D02*
X55624833Y-31829261D01*
X56196261Y-31829261D02*
X56196261Y-29829261D01*
X56005785Y-30114976D01*
X55815309Y-30305452D01*
X55624833Y-30400690D01*
D11*
X156268500Y-61668500D02*
X154868500Y-61668500D01*
X175668500Y-78668500D02*
X175668500Y-61668500D01*
X154868500Y-78668500D02*
X156268500Y-78668500D01*
X154868500Y-61668500D02*
X154868500Y-62668500D01*
X175668500Y-61668500D02*
X172268500Y-61668500D01*
X172268500Y-78668500D02*
X175668500Y-78668500D01*
X154868500Y-78668500D02*
X154868500Y-77668500D01*
X168005166Y-75461880D02*
X168005166Y-76176166D01*
X167957547Y-76319023D01*
X167862309Y-76414261D01*
X167719452Y-76461880D01*
X167624214Y-76461880D01*
X169005166Y-76461880D02*
X168433738Y-76461880D01*
X168719452Y-76461880D02*
X168719452Y-75461880D01*
X168624214Y-75604738D01*
X168528976Y-75699976D01*
X168433738Y-75747595D01*
X158043571Y-42060714D02*
X158091190Y-41917857D01*
X158138809Y-41870238D01*
X158234047Y-41822619D01*
X158376904Y-41822619D01*
X158472142Y-41870238D01*
X158519761Y-41917857D01*
X158567380Y-42013095D01*
X158567380Y-42394047D01*
X157567380Y-42394047D01*
X157567380Y-42060714D01*
X157615000Y-41965476D01*
X157662619Y-41917857D01*
X157757857Y-41870238D01*
X157853095Y-41870238D01*
X157948333Y-41917857D01*
X157995952Y-41965476D01*
X158043571Y-42060714D01*
X158043571Y-42394047D01*
X157567380Y-41536904D02*
X157567380Y-40965476D01*
X158567380Y-41251190D02*
X157567380Y-41251190D01*
X158567380Y-40108333D02*
X158567380Y-40679761D01*
X158567380Y-40394047D02*
X157567380Y-40394047D01*
X157710238Y-40489285D01*
X157805476Y-40584523D01*
X157853095Y-40679761D01*
X157100880Y-70930404D02*
X157910404Y-70930404D01*
X158005642Y-70882785D01*
X158053261Y-70835166D01*
X158100880Y-70739928D01*
X158100880Y-70549452D01*
X158053261Y-70454214D01*
X158005642Y-70406595D01*
X157910404Y-70358976D01*
X157100880Y-70358976D01*
X158100880Y-69358976D02*
X158100880Y-69930404D01*
X158100880Y-69644690D02*
X157100880Y-69644690D01*
X157243738Y-69739928D01*
X157338976Y-69835166D01*
X157386595Y-69930404D01*
M02*
