G04 #@! TF.GenerationSoftware,KiCad,Pcbnew,(5.0.0-rc2-dev-301-g33f795be4)*
G04 #@! TF.CreationDate,2018-06-05T21:08:48+02:00*
G04 #@! TF.ProjectId,kissboard,6B697373626F6172642E6B696361645F,rev?*
G04 #@! TF.SameCoordinates,Original*
G04 #@! TF.FileFunction,Legend,Bot*
G04 #@! TF.FilePolarity,Positive*
%FSLAX46Y46*%
G04 Gerber Fmt 4.6, Leading zero omitted, Abs format (unit mm)*
G04 Created by KiCad (PCBNEW (5.0.0-rc2-dev-301-g33f795be4)) date 06/05/18 21:08:48*
%MOMM*%
%LPD*%
G01*
G04 APERTURE LIST*
%ADD10C,0.250000*%
%ADD11C,0.150000*%
%ADD12C,0.200000*%
%ADD13C,0.050000*%
G04 APERTURE END LIST*
D10*
X56291452Y-31892761D02*
X56291452Y-29892761D01*
X55148595Y-31892761D02*
X56005738Y-30749904D01*
X55148595Y-29892761D02*
X56291452Y-31035619D01*
X54291452Y-31892761D02*
X54291452Y-29892761D01*
X53434309Y-31797523D02*
X53148595Y-31892761D01*
X52672404Y-31892761D01*
X52481928Y-31797523D01*
X52386690Y-31702285D01*
X52291452Y-31511809D01*
X52291452Y-31321333D01*
X52386690Y-31130857D01*
X52481928Y-31035619D01*
X52672404Y-30940380D01*
X53053357Y-30845142D01*
X53243833Y-30749904D01*
X53339071Y-30654666D01*
X53434309Y-30464190D01*
X53434309Y-30273714D01*
X53339071Y-30083238D01*
X53243833Y-29988000D01*
X53053357Y-29892761D01*
X52577166Y-29892761D01*
X52291452Y-29988000D01*
X51529547Y-31797523D02*
X51243833Y-31892761D01*
X50767642Y-31892761D01*
X50577166Y-31797523D01*
X50481928Y-31702285D01*
X50386690Y-31511809D01*
X50386690Y-31321333D01*
X50481928Y-31130857D01*
X50577166Y-31035619D01*
X50767642Y-30940380D01*
X51148595Y-30845142D01*
X51339071Y-30749904D01*
X51434309Y-30654666D01*
X51529547Y-30464190D01*
X51529547Y-30273714D01*
X51434309Y-30083238D01*
X51339071Y-29988000D01*
X51148595Y-29892761D01*
X50672404Y-29892761D01*
X50386690Y-29988000D01*
X48862880Y-30845142D02*
X48577166Y-30940380D01*
X48481928Y-31035619D01*
X48386690Y-31226095D01*
X48386690Y-31511809D01*
X48481928Y-31702285D01*
X48577166Y-31797523D01*
X48767642Y-31892761D01*
X49529547Y-31892761D01*
X49529547Y-29892761D01*
X48862880Y-29892761D01*
X48672404Y-29988000D01*
X48577166Y-30083238D01*
X48481928Y-30273714D01*
X48481928Y-30464190D01*
X48577166Y-30654666D01*
X48672404Y-30749904D01*
X48862880Y-30845142D01*
X49529547Y-30845142D01*
X47148595Y-29892761D02*
X46767642Y-29892761D01*
X46577166Y-29988000D01*
X46386690Y-30178476D01*
X46291452Y-30559428D01*
X46291452Y-31226095D01*
X46386690Y-31607047D01*
X46577166Y-31797523D01*
X46767642Y-31892761D01*
X47148595Y-31892761D01*
X47339071Y-31797523D01*
X47529547Y-31607047D01*
X47624785Y-31226095D01*
X47624785Y-30559428D01*
X47529547Y-30178476D01*
X47339071Y-29988000D01*
X47148595Y-29892761D01*
X45529547Y-31321333D02*
X44577166Y-31321333D01*
X45720023Y-31892761D02*
X45053357Y-29892761D01*
X44386690Y-31892761D01*
X42577166Y-31892761D02*
X43243833Y-30940380D01*
X43720023Y-31892761D02*
X43720023Y-29892761D01*
X42958119Y-29892761D01*
X42767642Y-29988000D01*
X42672404Y-30083238D01*
X42577166Y-30273714D01*
X42577166Y-30559428D01*
X42672404Y-30749904D01*
X42767642Y-30845142D01*
X42958119Y-30940380D01*
X43720023Y-30940380D01*
X41720023Y-31892761D02*
X41720023Y-29892761D01*
X41243833Y-29892761D01*
X40958119Y-29988000D01*
X40767642Y-30178476D01*
X40672404Y-30368952D01*
X40577166Y-30749904D01*
X40577166Y-31035619D01*
X40672404Y-31416571D01*
X40767642Y-31607047D01*
X40958119Y-31797523D01*
X41243833Y-31892761D01*
X41720023Y-31892761D01*
X38481928Y-29892761D02*
X37815261Y-31892761D01*
X37148595Y-29892761D01*
X35434309Y-31892761D02*
X36577166Y-31892761D01*
X36005738Y-31892761D02*
X36005738Y-29892761D01*
X36196214Y-30178476D01*
X36386690Y-30368952D01*
X36577166Y-30464190D01*
D11*
X146743500Y-78668500D02*
X145343500Y-78668500D01*
X166143500Y-61668500D02*
X166143500Y-78668500D01*
X145343500Y-61668500D02*
X146743500Y-61668500D01*
X145343500Y-78668500D02*
X145343500Y-77668500D01*
X166143500Y-78668500D02*
X162743500Y-78668500D01*
X162743500Y-61668500D02*
X166143500Y-61668500D01*
X145343500Y-61668500D02*
X145343500Y-62668500D01*
X153820880Y-69405595D02*
X154630404Y-69405595D01*
X154725642Y-69453214D01*
X154773261Y-69500833D01*
X154820880Y-69596071D01*
X154820880Y-69786547D01*
X154773261Y-69881785D01*
X154725642Y-69929404D01*
X154630404Y-69977023D01*
X153820880Y-69977023D01*
X153916119Y-70405595D02*
X153868500Y-70453214D01*
X153820880Y-70548452D01*
X153820880Y-70786547D01*
X153868500Y-70881785D01*
X153916119Y-70929404D01*
X154011357Y-70977023D01*
X154106595Y-70977023D01*
X154249452Y-70929404D01*
X154820880Y-70357976D01*
X154820880Y-70977023D01*
D12*
X158376785Y-121451630D02*
X158376785Y-120451630D01*
X157805357Y-121451630D02*
X158233928Y-120880202D01*
X157805357Y-120451630D02*
X158376785Y-121023059D01*
X157424404Y-120546869D02*
X157376785Y-120499250D01*
X157281547Y-120451630D01*
X157043452Y-120451630D01*
X156948214Y-120499250D01*
X156900595Y-120546869D01*
X156852976Y-120642107D01*
X156852976Y-120737345D01*
X156900595Y-120880202D01*
X157472023Y-121451630D01*
X156852976Y-121451630D01*
X155900595Y-121451630D02*
X156472023Y-121451630D01*
X156186309Y-121451630D02*
X156186309Y-120451630D01*
X156281547Y-120594488D01*
X156376785Y-120689726D01*
X156472023Y-120737345D01*
X53601785Y-92876630D02*
X53601785Y-91876630D01*
X53030357Y-92876630D02*
X53458928Y-92305202D01*
X53030357Y-91876630D02*
X53601785Y-92448059D01*
X52077976Y-92876630D02*
X52649404Y-92876630D01*
X52363690Y-92876630D02*
X52363690Y-91876630D01*
X52458928Y-92019488D01*
X52554166Y-92114726D01*
X52649404Y-92162345D01*
X51125595Y-92876630D02*
X51697023Y-92876630D01*
X51411309Y-92876630D02*
X51411309Y-91876630D01*
X51506547Y-92019488D01*
X51601785Y-92114726D01*
X51697023Y-92162345D01*
X67413095Y-40489130D02*
X67413095Y-39489130D01*
X66841666Y-40489130D02*
X67270238Y-39917702D01*
X66841666Y-39489130D02*
X67413095Y-40060559D01*
X66460714Y-39584369D02*
X66413095Y-39536750D01*
X66317857Y-39489130D01*
X66079761Y-39489130D01*
X65984523Y-39536750D01*
X65936904Y-39584369D01*
X65889285Y-39679607D01*
X65889285Y-39774845D01*
X65936904Y-39917702D01*
X66508333Y-40489130D01*
X65889285Y-40489130D01*
X91225595Y-35726630D02*
X91225595Y-34726630D01*
X90654166Y-35726630D02*
X91082738Y-35155202D01*
X90654166Y-34726630D02*
X91225595Y-35298059D01*
X90320833Y-34726630D02*
X89701785Y-34726630D01*
X90035119Y-35107583D01*
X89892261Y-35107583D01*
X89797023Y-35155202D01*
X89749404Y-35202821D01*
X89701785Y-35298059D01*
X89701785Y-35536154D01*
X89749404Y-35631392D01*
X89797023Y-35679011D01*
X89892261Y-35726630D01*
X90177976Y-35726630D01*
X90273214Y-35679011D01*
X90320833Y-35631392D01*
X110275595Y-40489130D02*
X110275595Y-39489130D01*
X109704166Y-40489130D02*
X110132738Y-39917702D01*
X109704166Y-39489130D02*
X110275595Y-40060559D01*
X108847023Y-39822464D02*
X108847023Y-40489130D01*
X109085119Y-39441511D02*
X109323214Y-40155797D01*
X108704166Y-40155797D01*
X129325595Y-45251630D02*
X129325595Y-44251630D01*
X128754166Y-45251630D02*
X129182738Y-44680202D01*
X128754166Y-44251630D02*
X129325595Y-44823059D01*
X127849404Y-44251630D02*
X128325595Y-44251630D01*
X128373214Y-44727821D01*
X128325595Y-44680202D01*
X128230357Y-44632583D01*
X127992261Y-44632583D01*
X127897023Y-44680202D01*
X127849404Y-44727821D01*
X127801785Y-44823059D01*
X127801785Y-45061154D01*
X127849404Y-45156392D01*
X127897023Y-45204011D01*
X127992261Y-45251630D01*
X128230357Y-45251630D01*
X128325595Y-45204011D01*
X128373214Y-45156392D01*
X53125595Y-73826630D02*
X53125595Y-72826630D01*
X52554166Y-73826630D02*
X52982738Y-73255202D01*
X52554166Y-72826630D02*
X53125595Y-73398059D01*
X51697023Y-72826630D02*
X51887500Y-72826630D01*
X51982738Y-72874250D01*
X52030357Y-72921869D01*
X52125595Y-73064726D01*
X52173214Y-73255202D01*
X52173214Y-73636154D01*
X52125595Y-73731392D01*
X52077976Y-73779011D01*
X51982738Y-73826630D01*
X51792261Y-73826630D01*
X51697023Y-73779011D01*
X51649404Y-73731392D01*
X51601785Y-73636154D01*
X51601785Y-73398059D01*
X51649404Y-73302821D01*
X51697023Y-73255202D01*
X51792261Y-73207583D01*
X51982738Y-73207583D01*
X52077976Y-73255202D01*
X52125595Y-73302821D01*
X52173214Y-73398059D01*
X72175595Y-59539130D02*
X72175595Y-58539130D01*
X71604166Y-59539130D02*
X72032738Y-58967702D01*
X71604166Y-58539130D02*
X72175595Y-59110559D01*
X71270833Y-58539130D02*
X70604166Y-58539130D01*
X71032738Y-59539130D01*
X91225595Y-54776630D02*
X91225595Y-53776630D01*
X90654166Y-54776630D02*
X91082738Y-54205202D01*
X90654166Y-53776630D02*
X91225595Y-54348059D01*
X90082738Y-54205202D02*
X90177976Y-54157583D01*
X90225595Y-54109964D01*
X90273214Y-54014726D01*
X90273214Y-53967107D01*
X90225595Y-53871869D01*
X90177976Y-53824250D01*
X90082738Y-53776630D01*
X89892261Y-53776630D01*
X89797023Y-53824250D01*
X89749404Y-53871869D01*
X89701785Y-53967107D01*
X89701785Y-54014726D01*
X89749404Y-54109964D01*
X89797023Y-54157583D01*
X89892261Y-54205202D01*
X90082738Y-54205202D01*
X90177976Y-54252821D01*
X90225595Y-54300440D01*
X90273214Y-54395678D01*
X90273214Y-54586154D01*
X90225595Y-54681392D01*
X90177976Y-54729011D01*
X90082738Y-54776630D01*
X89892261Y-54776630D01*
X89797023Y-54729011D01*
X89749404Y-54681392D01*
X89701785Y-54586154D01*
X89701785Y-54395678D01*
X89749404Y-54300440D01*
X89797023Y-54252821D01*
X89892261Y-54205202D01*
X110275595Y-59539130D02*
X110275595Y-58539130D01*
X109704166Y-59539130D02*
X110132738Y-58967702D01*
X109704166Y-58539130D02*
X110275595Y-59110559D01*
X109227976Y-59539130D02*
X109037500Y-59539130D01*
X108942261Y-59491511D01*
X108894642Y-59443892D01*
X108799404Y-59301035D01*
X108751785Y-59110559D01*
X108751785Y-58729607D01*
X108799404Y-58634369D01*
X108847023Y-58586750D01*
X108942261Y-58539130D01*
X109132738Y-58539130D01*
X109227976Y-58586750D01*
X109275595Y-58634369D01*
X109323214Y-58729607D01*
X109323214Y-58967702D01*
X109275595Y-59062940D01*
X109227976Y-59110559D01*
X109132738Y-59158178D01*
X108942261Y-59158178D01*
X108847023Y-59110559D01*
X108799404Y-59062940D01*
X108751785Y-58967702D01*
X129801785Y-64301630D02*
X129801785Y-63301630D01*
X129230357Y-64301630D02*
X129658928Y-63730202D01*
X129230357Y-63301630D02*
X129801785Y-63873059D01*
X128277976Y-64301630D02*
X128849404Y-64301630D01*
X128563690Y-64301630D02*
X128563690Y-63301630D01*
X128658928Y-63444488D01*
X128754166Y-63539726D01*
X128849404Y-63587345D01*
X127658928Y-63301630D02*
X127563690Y-63301630D01*
X127468452Y-63349250D01*
X127420833Y-63396869D01*
X127373214Y-63492107D01*
X127325595Y-63682583D01*
X127325595Y-63920678D01*
X127373214Y-64111154D01*
X127420833Y-64206392D01*
X127468452Y-64254011D01*
X127563690Y-64301630D01*
X127658928Y-64301630D01*
X127754166Y-64254011D01*
X127801785Y-64206392D01*
X127849404Y-64111154D01*
X127897023Y-63920678D01*
X127897023Y-63682583D01*
X127849404Y-63492107D01*
X127801785Y-63396869D01*
X127754166Y-63349250D01*
X127658928Y-63301630D01*
X110751785Y-78589130D02*
X110751785Y-77589130D01*
X110180357Y-78589130D02*
X110608928Y-78017702D01*
X110180357Y-77589130D02*
X110751785Y-78160559D01*
X109227976Y-78589130D02*
X109799404Y-78589130D01*
X109513690Y-78589130D02*
X109513690Y-77589130D01*
X109608928Y-77731988D01*
X109704166Y-77827226D01*
X109799404Y-77874845D01*
X108370833Y-77922464D02*
X108370833Y-78589130D01*
X108608928Y-77541511D02*
X108847023Y-78255797D01*
X108227976Y-78255797D01*
X129801785Y-83351630D02*
X129801785Y-82351630D01*
X129230357Y-83351630D02*
X129658928Y-82780202D01*
X129230357Y-82351630D02*
X129801785Y-82923059D01*
X128277976Y-83351630D02*
X128849404Y-83351630D01*
X128563690Y-83351630D02*
X128563690Y-82351630D01*
X128658928Y-82494488D01*
X128754166Y-82589726D01*
X128849404Y-82637345D01*
X127373214Y-82351630D02*
X127849404Y-82351630D01*
X127897023Y-82827821D01*
X127849404Y-82780202D01*
X127754166Y-82732583D01*
X127516071Y-82732583D01*
X127420833Y-82780202D01*
X127373214Y-82827821D01*
X127325595Y-82923059D01*
X127325595Y-83161154D01*
X127373214Y-83256392D01*
X127420833Y-83304011D01*
X127516071Y-83351630D01*
X127754166Y-83351630D01*
X127849404Y-83304011D01*
X127897023Y-83256392D01*
X91701785Y-102401630D02*
X91701785Y-101401630D01*
X91130357Y-102401630D02*
X91558928Y-101830202D01*
X91130357Y-101401630D02*
X91701785Y-101973059D01*
X90177976Y-102401630D02*
X90749404Y-102401630D01*
X90463690Y-102401630D02*
X90463690Y-101401630D01*
X90558928Y-101544488D01*
X90654166Y-101639726D01*
X90749404Y-101687345D01*
X89320833Y-101401630D02*
X89511309Y-101401630D01*
X89606547Y-101449250D01*
X89654166Y-101496869D01*
X89749404Y-101639726D01*
X89797023Y-101830202D01*
X89797023Y-102211154D01*
X89749404Y-102306392D01*
X89701785Y-102354011D01*
X89606547Y-102401630D01*
X89416071Y-102401630D01*
X89320833Y-102354011D01*
X89273214Y-102306392D01*
X89225595Y-102211154D01*
X89225595Y-101973059D01*
X89273214Y-101877821D01*
X89320833Y-101830202D01*
X89416071Y-101782583D01*
X89606547Y-101782583D01*
X89701785Y-101830202D01*
X89749404Y-101877821D01*
X89797023Y-101973059D01*
X110751785Y-102401630D02*
X110751785Y-101401630D01*
X110180357Y-102401630D02*
X110608928Y-101830202D01*
X110180357Y-101401630D02*
X110751785Y-101973059D01*
X109227976Y-102401630D02*
X109799404Y-102401630D01*
X109513690Y-102401630D02*
X109513690Y-101401630D01*
X109608928Y-101544488D01*
X109704166Y-101639726D01*
X109799404Y-101687345D01*
X108894642Y-101401630D02*
X108227976Y-101401630D01*
X108656547Y-102401630D01*
X129801785Y-102401630D02*
X129801785Y-101401630D01*
X129230357Y-102401630D02*
X129658928Y-101830202D01*
X129230357Y-101401630D02*
X129801785Y-101973059D01*
X128277976Y-102401630D02*
X128849404Y-102401630D01*
X128563690Y-102401630D02*
X128563690Y-101401630D01*
X128658928Y-101544488D01*
X128754166Y-101639726D01*
X128849404Y-101687345D01*
X127706547Y-101830202D02*
X127801785Y-101782583D01*
X127849404Y-101734964D01*
X127897023Y-101639726D01*
X127897023Y-101592107D01*
X127849404Y-101496869D01*
X127801785Y-101449250D01*
X127706547Y-101401630D01*
X127516071Y-101401630D01*
X127420833Y-101449250D01*
X127373214Y-101496869D01*
X127325595Y-101592107D01*
X127325595Y-101639726D01*
X127373214Y-101734964D01*
X127420833Y-101782583D01*
X127516071Y-101830202D01*
X127706547Y-101830202D01*
X127801785Y-101877821D01*
X127849404Y-101925440D01*
X127897023Y-102020678D01*
X127897023Y-102211154D01*
X127849404Y-102306392D01*
X127801785Y-102354011D01*
X127706547Y-102401630D01*
X127516071Y-102401630D01*
X127420833Y-102354011D01*
X127373214Y-102306392D01*
X127325595Y-102211154D01*
X127325595Y-102020678D01*
X127373214Y-101925440D01*
X127420833Y-101877821D01*
X127516071Y-101830202D01*
X148851785Y-102401630D02*
X148851785Y-101401630D01*
X148280357Y-102401630D02*
X148708928Y-101830202D01*
X148280357Y-101401630D02*
X148851785Y-101973059D01*
X147327976Y-102401630D02*
X147899404Y-102401630D01*
X147613690Y-102401630D02*
X147613690Y-101401630D01*
X147708928Y-101544488D01*
X147804166Y-101639726D01*
X147899404Y-101687345D01*
X146851785Y-102401630D02*
X146661309Y-102401630D01*
X146566071Y-102354011D01*
X146518452Y-102306392D01*
X146423214Y-102163535D01*
X146375595Y-101973059D01*
X146375595Y-101592107D01*
X146423214Y-101496869D01*
X146470833Y-101449250D01*
X146566071Y-101401630D01*
X146756547Y-101401630D01*
X146851785Y-101449250D01*
X146899404Y-101496869D01*
X146947023Y-101592107D01*
X146947023Y-101830202D01*
X146899404Y-101925440D01*
X146851785Y-101973059D01*
X146756547Y-102020678D01*
X146566071Y-102020678D01*
X146470833Y-101973059D01*
X146423214Y-101925440D01*
X146375595Y-101830202D01*
X139326785Y-121451630D02*
X139326785Y-120451630D01*
X138755357Y-121451630D02*
X139183928Y-120880202D01*
X138755357Y-120451630D02*
X139326785Y-121023059D01*
X138374404Y-120546869D02*
X138326785Y-120499250D01*
X138231547Y-120451630D01*
X137993452Y-120451630D01*
X137898214Y-120499250D01*
X137850595Y-120546869D01*
X137802976Y-120642107D01*
X137802976Y-120737345D01*
X137850595Y-120880202D01*
X138422023Y-121451630D01*
X137802976Y-121451630D01*
X137183928Y-120451630D02*
X137088690Y-120451630D01*
X136993452Y-120499250D01*
X136945833Y-120546869D01*
X136898214Y-120642107D01*
X136850595Y-120832583D01*
X136850595Y-121070678D01*
X136898214Y-121261154D01*
X136945833Y-121356392D01*
X136993452Y-121404011D01*
X137088690Y-121451630D01*
X137183928Y-121451630D01*
X137279166Y-121404011D01*
X137326785Y-121356392D01*
X137374404Y-121261154D01*
X137422023Y-121070678D01*
X137422023Y-120832583D01*
X137374404Y-120642107D01*
X137326785Y-120546869D01*
X137279166Y-120499250D01*
X137183928Y-120451630D01*
X91701785Y-73826630D02*
X91701785Y-72826630D01*
X91130357Y-73826630D02*
X91558928Y-73255202D01*
X91130357Y-72826630D02*
X91701785Y-73398059D01*
X90177976Y-73826630D02*
X90749404Y-73826630D01*
X90463690Y-73826630D02*
X90463690Y-72826630D01*
X90558928Y-72969488D01*
X90654166Y-73064726D01*
X90749404Y-73112345D01*
X89844642Y-72826630D02*
X89225595Y-72826630D01*
X89558928Y-73207583D01*
X89416071Y-73207583D01*
X89320833Y-73255202D01*
X89273214Y-73302821D01*
X89225595Y-73398059D01*
X89225595Y-73636154D01*
X89273214Y-73731392D01*
X89320833Y-73779011D01*
X89416071Y-73826630D01*
X89701785Y-73826630D01*
X89797023Y-73779011D01*
X89844642Y-73731392D01*
X72651785Y-78589130D02*
X72651785Y-77589130D01*
X72080357Y-78589130D02*
X72508928Y-78017702D01*
X72080357Y-77589130D02*
X72651785Y-78160559D01*
X71127976Y-78589130D02*
X71699404Y-78589130D01*
X71413690Y-78589130D02*
X71413690Y-77589130D01*
X71508928Y-77731988D01*
X71604166Y-77827226D01*
X71699404Y-77874845D01*
X70747023Y-77684369D02*
X70699404Y-77636750D01*
X70604166Y-77589130D01*
X70366071Y-77589130D01*
X70270833Y-77636750D01*
X70223214Y-77684369D01*
X70175595Y-77779607D01*
X70175595Y-77874845D01*
X70223214Y-78017702D01*
X70794642Y-78589130D01*
X70175595Y-78589130D01*
D13*
X39224857Y-45933178D02*
X39224857Y-44409178D01*
X38354000Y-45933178D02*
X39007142Y-45062321D01*
X38354000Y-44409178D02*
X39224857Y-45280035D01*
X36902571Y-45933178D02*
X37773428Y-45933178D01*
X37338000Y-45933178D02*
X37338000Y-44409178D01*
X37483142Y-44626892D01*
X37628285Y-44772035D01*
X37773428Y-44844607D01*
M02*
