G04 #@! TF.GenerationSoftware,KiCad,Pcbnew,(5.0.0-rc2-dev-301-g33f795be4)*
G04 #@! TF.CreationDate,2018-04-18T21:52:43+02:00*
G04 #@! TF.ProjectId,kissboard,6B697373626F6172642E6B696361645F,rev?*
G04 #@! TF.SameCoordinates,Original*
G04 #@! TF.FileFunction,Legend,Bot*
G04 #@! TF.FilePolarity,Positive*
%FSLAX46Y46*%
G04 Gerber Fmt 4.6, Leading zero omitted, Abs format (unit mm)*
G04 Created by KiCad (PCBNEW (5.0.0-rc2-dev-301-g33f795be4)) date 04/18/18 21:52:43*
%MOMM*%
%LPD*%
G01*
G04 APERTURE LIST*
%ADD10C,0.300000*%
%ADD11C,0.150000*%
%ADD12C,0.200000*%
%ADD13C,0.050000*%
G04 APERTURE END LIST*
D10*
X115335257Y-118070372D02*
X117208290Y-113434453D01*
X112686160Y-117000068D02*
X115743287Y-115153699D01*
X114559193Y-112364148D02*
X116137985Y-116083550D01*
X110699337Y-116197339D02*
X112572370Y-111561420D01*
X108801707Y-115173853D02*
X108050241Y-115127035D01*
X106946450Y-114681074D01*
X106594126Y-114281932D01*
X106462560Y-113971982D01*
X106420186Y-113441274D01*
X106598570Y-112999758D01*
X106997713Y-112647434D01*
X107307663Y-112515868D01*
X107838371Y-112473494D01*
X108810595Y-112609504D01*
X109341303Y-112567130D01*
X109651253Y-112435564D01*
X110050396Y-112083240D01*
X110228780Y-111641724D01*
X110186406Y-111111016D01*
X110054840Y-110801065D01*
X109702516Y-110401923D01*
X108598725Y-109955963D01*
X107847259Y-109909145D01*
X104386546Y-113390012D02*
X103635079Y-113343194D01*
X102531289Y-112897233D01*
X102178965Y-112498091D01*
X102047399Y-112188141D01*
X102005025Y-111657433D01*
X102183409Y-111215917D01*
X102582551Y-110863593D01*
X102892501Y-110732027D01*
X103423210Y-110689653D01*
X104395434Y-110825663D01*
X104926142Y-110783289D01*
X105236092Y-110651723D01*
X105635234Y-110299399D01*
X105813618Y-109857883D01*
X105771244Y-109327175D01*
X105639678Y-109017224D01*
X105287354Y-108618082D01*
X104183564Y-108172122D01*
X103432098Y-108125304D01*
X99097240Y-108685054D02*
X98345774Y-108638236D01*
X98035824Y-108769802D01*
X97636682Y-109122126D01*
X97369106Y-109784400D01*
X97411480Y-110315108D01*
X97543046Y-110625058D01*
X97895370Y-111024200D01*
X99661434Y-111737737D01*
X101534467Y-107101818D01*
X99989161Y-106477473D01*
X99458453Y-106519847D01*
X99148503Y-106651413D01*
X98749360Y-107003737D01*
X98570976Y-107445253D01*
X98613350Y-107975962D01*
X98744916Y-108285912D01*
X99097240Y-108685054D01*
X100642547Y-109309398D01*
X96015516Y-104872016D02*
X95132484Y-104515248D01*
X94601775Y-104557622D01*
X93981875Y-104820754D01*
X93404349Y-105614594D01*
X92780005Y-107159901D01*
X92643995Y-108132125D01*
X92907127Y-108752025D01*
X93259451Y-109151167D01*
X94142483Y-109507936D01*
X94673191Y-109465562D01*
X95293091Y-109202430D01*
X95870617Y-108408589D01*
X96494962Y-106863283D01*
X96630972Y-105891059D01*
X96367840Y-105271159D01*
X96015516Y-104872016D01*
X90924748Y-106667123D02*
X88717167Y-105775202D01*
X90831112Y-108170055D02*
X91158838Y-102909791D01*
X87740499Y-106921366D01*
X83546096Y-105226717D02*
X85983323Y-103643481D01*
X86195193Y-106297022D02*
X88068226Y-101661103D01*
X86302161Y-100947566D01*
X85771453Y-100989940D01*
X85461503Y-101121506D01*
X85062361Y-101473830D01*
X84794785Y-102136105D01*
X84837159Y-102666813D01*
X84968725Y-102976763D01*
X85321049Y-103375905D01*
X87087113Y-104089441D01*
X81559273Y-104423989D02*
X83432306Y-99788070D01*
X82328516Y-99342110D01*
X81577050Y-99295291D01*
X80957150Y-99558423D01*
X80558007Y-99910748D01*
X79980481Y-100704588D01*
X79712905Y-101366862D01*
X79576895Y-102339086D01*
X79619269Y-102869794D01*
X79882401Y-103489695D01*
X80455483Y-103978029D01*
X81559273Y-104423989D01*
X75926532Y-96755540D02*
X72508193Y-100767115D01*
X72835919Y-95506852D01*
X66989241Y-98537314D02*
X69638338Y-99607619D01*
X68313790Y-99072466D02*
X70186823Y-94436547D01*
X70360763Y-95277205D01*
X70623895Y-95897106D01*
X70976219Y-96296248D01*
D11*
X146743500Y-78668500D02*
X145343500Y-78668500D01*
X166143500Y-61668500D02*
X166143500Y-78668500D01*
X145343500Y-61668500D02*
X146743500Y-61668500D01*
X145343500Y-78668500D02*
X145343500Y-77668500D01*
X166143500Y-78668500D02*
X162743500Y-78668500D01*
X162743500Y-61668500D02*
X166143500Y-61668500D01*
X145343500Y-61668500D02*
X145343500Y-62668500D01*
X153820880Y-69405595D02*
X154630404Y-69405595D01*
X154725642Y-69453214D01*
X154773261Y-69500833D01*
X154820880Y-69596071D01*
X154820880Y-69786547D01*
X154773261Y-69881785D01*
X154725642Y-69929404D01*
X154630404Y-69977023D01*
X153820880Y-69977023D01*
X153916119Y-70405595D02*
X153868500Y-70453214D01*
X153820880Y-70548452D01*
X153820880Y-70786547D01*
X153868500Y-70881785D01*
X153916119Y-70929404D01*
X154011357Y-70977023D01*
X154106595Y-70977023D01*
X154249452Y-70929404D01*
X154820880Y-70357976D01*
X154820880Y-70977023D01*
D12*
X158376785Y-121451630D02*
X158376785Y-120451630D01*
X157805357Y-121451630D02*
X158233928Y-120880202D01*
X157805357Y-120451630D02*
X158376785Y-121023059D01*
X157424404Y-120546869D02*
X157376785Y-120499250D01*
X157281547Y-120451630D01*
X157043452Y-120451630D01*
X156948214Y-120499250D01*
X156900595Y-120546869D01*
X156852976Y-120642107D01*
X156852976Y-120737345D01*
X156900595Y-120880202D01*
X157472023Y-121451630D01*
X156852976Y-121451630D01*
X155900595Y-121451630D02*
X156472023Y-121451630D01*
X156186309Y-121451630D02*
X156186309Y-120451630D01*
X156281547Y-120594488D01*
X156376785Y-120689726D01*
X156472023Y-120737345D01*
X53601785Y-83351630D02*
X53601785Y-82351630D01*
X53030357Y-83351630D02*
X53458928Y-82780202D01*
X53030357Y-82351630D02*
X53601785Y-82923059D01*
X52077976Y-83351630D02*
X52649404Y-83351630D01*
X52363690Y-83351630D02*
X52363690Y-82351630D01*
X52458928Y-82494488D01*
X52554166Y-82589726D01*
X52649404Y-82637345D01*
X51125595Y-83351630D02*
X51697023Y-83351630D01*
X51411309Y-83351630D02*
X51411309Y-82351630D01*
X51506547Y-82494488D01*
X51601785Y-82589726D01*
X51697023Y-82637345D01*
X67413095Y-40489130D02*
X67413095Y-39489130D01*
X66841666Y-40489130D02*
X67270238Y-39917702D01*
X66841666Y-39489130D02*
X67413095Y-40060559D01*
X66460714Y-39584369D02*
X66413095Y-39536750D01*
X66317857Y-39489130D01*
X66079761Y-39489130D01*
X65984523Y-39536750D01*
X65936904Y-39584369D01*
X65889285Y-39679607D01*
X65889285Y-39774845D01*
X65936904Y-39917702D01*
X66508333Y-40489130D01*
X65889285Y-40489130D01*
X91225595Y-35726630D02*
X91225595Y-34726630D01*
X90654166Y-35726630D02*
X91082738Y-35155202D01*
X90654166Y-34726630D02*
X91225595Y-35298059D01*
X90320833Y-34726630D02*
X89701785Y-34726630D01*
X90035119Y-35107583D01*
X89892261Y-35107583D01*
X89797023Y-35155202D01*
X89749404Y-35202821D01*
X89701785Y-35298059D01*
X89701785Y-35536154D01*
X89749404Y-35631392D01*
X89797023Y-35679011D01*
X89892261Y-35726630D01*
X90177976Y-35726630D01*
X90273214Y-35679011D01*
X90320833Y-35631392D01*
X110275595Y-40489130D02*
X110275595Y-39489130D01*
X109704166Y-40489130D02*
X110132738Y-39917702D01*
X109704166Y-39489130D02*
X110275595Y-40060559D01*
X108847023Y-39822464D02*
X108847023Y-40489130D01*
X109085119Y-39441511D02*
X109323214Y-40155797D01*
X108704166Y-40155797D01*
X129325595Y-45251630D02*
X129325595Y-44251630D01*
X128754166Y-45251630D02*
X129182738Y-44680202D01*
X128754166Y-44251630D02*
X129325595Y-44823059D01*
X127849404Y-44251630D02*
X128325595Y-44251630D01*
X128373214Y-44727821D01*
X128325595Y-44680202D01*
X128230357Y-44632583D01*
X127992261Y-44632583D01*
X127897023Y-44680202D01*
X127849404Y-44727821D01*
X127801785Y-44823059D01*
X127801785Y-45061154D01*
X127849404Y-45156392D01*
X127897023Y-45204011D01*
X127992261Y-45251630D01*
X128230357Y-45251630D01*
X128325595Y-45204011D01*
X128373214Y-45156392D01*
X53125595Y-64301630D02*
X53125595Y-63301630D01*
X52554166Y-64301630D02*
X52982738Y-63730202D01*
X52554166Y-63301630D02*
X53125595Y-63873059D01*
X51697023Y-63301630D02*
X51887500Y-63301630D01*
X51982738Y-63349250D01*
X52030357Y-63396869D01*
X52125595Y-63539726D01*
X52173214Y-63730202D01*
X52173214Y-64111154D01*
X52125595Y-64206392D01*
X52077976Y-64254011D01*
X51982738Y-64301630D01*
X51792261Y-64301630D01*
X51697023Y-64254011D01*
X51649404Y-64206392D01*
X51601785Y-64111154D01*
X51601785Y-63873059D01*
X51649404Y-63777821D01*
X51697023Y-63730202D01*
X51792261Y-63682583D01*
X51982738Y-63682583D01*
X52077976Y-63730202D01*
X52125595Y-63777821D01*
X52173214Y-63873059D01*
X72175595Y-59539130D02*
X72175595Y-58539130D01*
X71604166Y-59539130D02*
X72032738Y-58967702D01*
X71604166Y-58539130D02*
X72175595Y-59110559D01*
X71270833Y-58539130D02*
X70604166Y-58539130D01*
X71032738Y-59539130D01*
X91225595Y-54776630D02*
X91225595Y-53776630D01*
X90654166Y-54776630D02*
X91082738Y-54205202D01*
X90654166Y-53776630D02*
X91225595Y-54348059D01*
X90082738Y-54205202D02*
X90177976Y-54157583D01*
X90225595Y-54109964D01*
X90273214Y-54014726D01*
X90273214Y-53967107D01*
X90225595Y-53871869D01*
X90177976Y-53824250D01*
X90082738Y-53776630D01*
X89892261Y-53776630D01*
X89797023Y-53824250D01*
X89749404Y-53871869D01*
X89701785Y-53967107D01*
X89701785Y-54014726D01*
X89749404Y-54109964D01*
X89797023Y-54157583D01*
X89892261Y-54205202D01*
X90082738Y-54205202D01*
X90177976Y-54252821D01*
X90225595Y-54300440D01*
X90273214Y-54395678D01*
X90273214Y-54586154D01*
X90225595Y-54681392D01*
X90177976Y-54729011D01*
X90082738Y-54776630D01*
X89892261Y-54776630D01*
X89797023Y-54729011D01*
X89749404Y-54681392D01*
X89701785Y-54586154D01*
X89701785Y-54395678D01*
X89749404Y-54300440D01*
X89797023Y-54252821D01*
X89892261Y-54205202D01*
X110275595Y-59539130D02*
X110275595Y-58539130D01*
X109704166Y-59539130D02*
X110132738Y-58967702D01*
X109704166Y-58539130D02*
X110275595Y-59110559D01*
X109227976Y-59539130D02*
X109037500Y-59539130D01*
X108942261Y-59491511D01*
X108894642Y-59443892D01*
X108799404Y-59301035D01*
X108751785Y-59110559D01*
X108751785Y-58729607D01*
X108799404Y-58634369D01*
X108847023Y-58586750D01*
X108942261Y-58539130D01*
X109132738Y-58539130D01*
X109227976Y-58586750D01*
X109275595Y-58634369D01*
X109323214Y-58729607D01*
X109323214Y-58967702D01*
X109275595Y-59062940D01*
X109227976Y-59110559D01*
X109132738Y-59158178D01*
X108942261Y-59158178D01*
X108847023Y-59110559D01*
X108799404Y-59062940D01*
X108751785Y-58967702D01*
X129801785Y-64301630D02*
X129801785Y-63301630D01*
X129230357Y-64301630D02*
X129658928Y-63730202D01*
X129230357Y-63301630D02*
X129801785Y-63873059D01*
X128277976Y-64301630D02*
X128849404Y-64301630D01*
X128563690Y-64301630D02*
X128563690Y-63301630D01*
X128658928Y-63444488D01*
X128754166Y-63539726D01*
X128849404Y-63587345D01*
X127658928Y-63301630D02*
X127563690Y-63301630D01*
X127468452Y-63349250D01*
X127420833Y-63396869D01*
X127373214Y-63492107D01*
X127325595Y-63682583D01*
X127325595Y-63920678D01*
X127373214Y-64111154D01*
X127420833Y-64206392D01*
X127468452Y-64254011D01*
X127563690Y-64301630D01*
X127658928Y-64301630D01*
X127754166Y-64254011D01*
X127801785Y-64206392D01*
X127849404Y-64111154D01*
X127897023Y-63920678D01*
X127897023Y-63682583D01*
X127849404Y-63492107D01*
X127801785Y-63396869D01*
X127754166Y-63349250D01*
X127658928Y-63301630D01*
X110751785Y-78589130D02*
X110751785Y-77589130D01*
X110180357Y-78589130D02*
X110608928Y-78017702D01*
X110180357Y-77589130D02*
X110751785Y-78160559D01*
X109227976Y-78589130D02*
X109799404Y-78589130D01*
X109513690Y-78589130D02*
X109513690Y-77589130D01*
X109608928Y-77731988D01*
X109704166Y-77827226D01*
X109799404Y-77874845D01*
X108370833Y-77922464D02*
X108370833Y-78589130D01*
X108608928Y-77541511D02*
X108847023Y-78255797D01*
X108227976Y-78255797D01*
X129801785Y-83351630D02*
X129801785Y-82351630D01*
X129230357Y-83351630D02*
X129658928Y-82780202D01*
X129230357Y-82351630D02*
X129801785Y-82923059D01*
X128277976Y-83351630D02*
X128849404Y-83351630D01*
X128563690Y-83351630D02*
X128563690Y-82351630D01*
X128658928Y-82494488D01*
X128754166Y-82589726D01*
X128849404Y-82637345D01*
X127373214Y-82351630D02*
X127849404Y-82351630D01*
X127897023Y-82827821D01*
X127849404Y-82780202D01*
X127754166Y-82732583D01*
X127516071Y-82732583D01*
X127420833Y-82780202D01*
X127373214Y-82827821D01*
X127325595Y-82923059D01*
X127325595Y-83161154D01*
X127373214Y-83256392D01*
X127420833Y-83304011D01*
X127516071Y-83351630D01*
X127754166Y-83351630D01*
X127849404Y-83304011D01*
X127897023Y-83256392D01*
X91701785Y-92876630D02*
X91701785Y-91876630D01*
X91130357Y-92876630D02*
X91558928Y-92305202D01*
X91130357Y-91876630D02*
X91701785Y-92448059D01*
X90177976Y-92876630D02*
X90749404Y-92876630D01*
X90463690Y-92876630D02*
X90463690Y-91876630D01*
X90558928Y-92019488D01*
X90654166Y-92114726D01*
X90749404Y-92162345D01*
X89320833Y-91876630D02*
X89511309Y-91876630D01*
X89606547Y-91924250D01*
X89654166Y-91971869D01*
X89749404Y-92114726D01*
X89797023Y-92305202D01*
X89797023Y-92686154D01*
X89749404Y-92781392D01*
X89701785Y-92829011D01*
X89606547Y-92876630D01*
X89416071Y-92876630D01*
X89320833Y-92829011D01*
X89273214Y-92781392D01*
X89225595Y-92686154D01*
X89225595Y-92448059D01*
X89273214Y-92352821D01*
X89320833Y-92305202D01*
X89416071Y-92257583D01*
X89606547Y-92257583D01*
X89701785Y-92305202D01*
X89749404Y-92352821D01*
X89797023Y-92448059D01*
X110751785Y-97639130D02*
X110751785Y-96639130D01*
X110180357Y-97639130D02*
X110608928Y-97067702D01*
X110180357Y-96639130D02*
X110751785Y-97210559D01*
X109227976Y-97639130D02*
X109799404Y-97639130D01*
X109513690Y-97639130D02*
X109513690Y-96639130D01*
X109608928Y-96781988D01*
X109704166Y-96877226D01*
X109799404Y-96924845D01*
X108894642Y-96639130D02*
X108227976Y-96639130D01*
X108656547Y-97639130D01*
X129801785Y-102401630D02*
X129801785Y-101401630D01*
X129230357Y-102401630D02*
X129658928Y-101830202D01*
X129230357Y-101401630D02*
X129801785Y-101973059D01*
X128277976Y-102401630D02*
X128849404Y-102401630D01*
X128563690Y-102401630D02*
X128563690Y-101401630D01*
X128658928Y-101544488D01*
X128754166Y-101639726D01*
X128849404Y-101687345D01*
X127706547Y-101830202D02*
X127801785Y-101782583D01*
X127849404Y-101734964D01*
X127897023Y-101639726D01*
X127897023Y-101592107D01*
X127849404Y-101496869D01*
X127801785Y-101449250D01*
X127706547Y-101401630D01*
X127516071Y-101401630D01*
X127420833Y-101449250D01*
X127373214Y-101496869D01*
X127325595Y-101592107D01*
X127325595Y-101639726D01*
X127373214Y-101734964D01*
X127420833Y-101782583D01*
X127516071Y-101830202D01*
X127706547Y-101830202D01*
X127801785Y-101877821D01*
X127849404Y-101925440D01*
X127897023Y-102020678D01*
X127897023Y-102211154D01*
X127849404Y-102306392D01*
X127801785Y-102354011D01*
X127706547Y-102401630D01*
X127516071Y-102401630D01*
X127420833Y-102354011D01*
X127373214Y-102306392D01*
X127325595Y-102211154D01*
X127325595Y-102020678D01*
X127373214Y-101925440D01*
X127420833Y-101877821D01*
X127516071Y-101830202D01*
X148851785Y-102401630D02*
X148851785Y-101401630D01*
X148280357Y-102401630D02*
X148708928Y-101830202D01*
X148280357Y-101401630D02*
X148851785Y-101973059D01*
X147327976Y-102401630D02*
X147899404Y-102401630D01*
X147613690Y-102401630D02*
X147613690Y-101401630D01*
X147708928Y-101544488D01*
X147804166Y-101639726D01*
X147899404Y-101687345D01*
X146851785Y-102401630D02*
X146661309Y-102401630D01*
X146566071Y-102354011D01*
X146518452Y-102306392D01*
X146423214Y-102163535D01*
X146375595Y-101973059D01*
X146375595Y-101592107D01*
X146423214Y-101496869D01*
X146470833Y-101449250D01*
X146566071Y-101401630D01*
X146756547Y-101401630D01*
X146851785Y-101449250D01*
X146899404Y-101496869D01*
X146947023Y-101592107D01*
X146947023Y-101830202D01*
X146899404Y-101925440D01*
X146851785Y-101973059D01*
X146756547Y-102020678D01*
X146566071Y-102020678D01*
X146470833Y-101973059D01*
X146423214Y-101925440D01*
X146375595Y-101830202D01*
X139326785Y-121451630D02*
X139326785Y-120451630D01*
X138755357Y-121451630D02*
X139183928Y-120880202D01*
X138755357Y-120451630D02*
X139326785Y-121023059D01*
X138374404Y-120546869D02*
X138326785Y-120499250D01*
X138231547Y-120451630D01*
X137993452Y-120451630D01*
X137898214Y-120499250D01*
X137850595Y-120546869D01*
X137802976Y-120642107D01*
X137802976Y-120737345D01*
X137850595Y-120880202D01*
X138422023Y-121451630D01*
X137802976Y-121451630D01*
X137183928Y-120451630D02*
X137088690Y-120451630D01*
X136993452Y-120499250D01*
X136945833Y-120546869D01*
X136898214Y-120642107D01*
X136850595Y-120832583D01*
X136850595Y-121070678D01*
X136898214Y-121261154D01*
X136945833Y-121356392D01*
X136993452Y-121404011D01*
X137088690Y-121451630D01*
X137183928Y-121451630D01*
X137279166Y-121404011D01*
X137326785Y-121356392D01*
X137374404Y-121261154D01*
X137422023Y-121070678D01*
X137422023Y-120832583D01*
X137374404Y-120642107D01*
X137326785Y-120546869D01*
X137279166Y-120499250D01*
X137183928Y-120451630D01*
X91701785Y-73826630D02*
X91701785Y-72826630D01*
X91130357Y-73826630D02*
X91558928Y-73255202D01*
X91130357Y-72826630D02*
X91701785Y-73398059D01*
X90177976Y-73826630D02*
X90749404Y-73826630D01*
X90463690Y-73826630D02*
X90463690Y-72826630D01*
X90558928Y-72969488D01*
X90654166Y-73064726D01*
X90749404Y-73112345D01*
X89844642Y-72826630D02*
X89225595Y-72826630D01*
X89558928Y-73207583D01*
X89416071Y-73207583D01*
X89320833Y-73255202D01*
X89273214Y-73302821D01*
X89225595Y-73398059D01*
X89225595Y-73636154D01*
X89273214Y-73731392D01*
X89320833Y-73779011D01*
X89416071Y-73826630D01*
X89701785Y-73826630D01*
X89797023Y-73779011D01*
X89844642Y-73731392D01*
X72651785Y-78589130D02*
X72651785Y-77589130D01*
X72080357Y-78589130D02*
X72508928Y-78017702D01*
X72080357Y-77589130D02*
X72651785Y-78160559D01*
X71127976Y-78589130D02*
X71699404Y-78589130D01*
X71413690Y-78589130D02*
X71413690Y-77589130D01*
X71508928Y-77731988D01*
X71604166Y-77827226D01*
X71699404Y-77874845D01*
X70747023Y-77684369D02*
X70699404Y-77636750D01*
X70604166Y-77589130D01*
X70366071Y-77589130D01*
X70270833Y-77636750D01*
X70223214Y-77684369D01*
X70175595Y-77779607D01*
X70175595Y-77874845D01*
X70223214Y-78017702D01*
X70794642Y-78589130D01*
X70175595Y-78589130D01*
D13*
X39224857Y-36408178D02*
X39224857Y-34884178D01*
X38354000Y-36408178D02*
X39007142Y-35537321D01*
X38354000Y-34884178D02*
X39224857Y-35755035D01*
X36902571Y-36408178D02*
X37773428Y-36408178D01*
X37338000Y-36408178D02*
X37338000Y-34884178D01*
X37483142Y-35101892D01*
X37628285Y-35247035D01*
X37773428Y-35319607D01*
M02*
