G04 #@! TF.GenerationSoftware,KiCad,Pcbnew,(5.0.0-rc2-dev-301-g33f795be4)*
G04 #@! TF.CreationDate,2018-06-05T21:08:48+02:00*
G04 #@! TF.ProjectId,kissboard,6B697373626F6172642E6B696361645F,rev?*
G04 #@! TF.SameCoordinates,Original*
G04 #@! TF.FileFunction,Copper,L2,Bot,Signal*
G04 #@! TF.FilePolarity,Positive*
%FSLAX46Y46*%
G04 Gerber Fmt 4.6, Leading zero omitted, Abs format (unit mm)*
G04 Created by KiCad (PCBNEW (5.0.0-rc2-dev-301-g33f795be4)) date 06/05/18 21:08:48*
%MOMM*%
%LPD*%
G01*
G04 APERTURE LIST*
%ADD10C,1.500000*%
%ADD11R,1.500000X1.500000*%
%ADD12C,2.000000*%
%ADD13O,8.500000X15.000000*%
%ADD14R,2.500000X0.800000*%
%ADD15R,0.800000X2.500000*%
%ADD16O,1.550000X0.650000*%
%ADD17C,1.000000*%
%ADD18O,2.500000X1.800000*%
%ADD19C,2.500000*%
%ADD20C,4.300000*%
%ADD21C,1.600000*%
%ADD22C,0.800000*%
%ADD23C,0.250000*%
%ADD24C,0.500000*%
%ADD25C,1.270000*%
%ADD26C,2.540000*%
G04 APERTURE END LIST*
D10*
X158813500Y-65849500D03*
X158813500Y-68389500D03*
X158813500Y-70929500D03*
D11*
X158813500Y-73469500D03*
D12*
X156210000Y-52975000D03*
X156210000Y-29575000D03*
D13*
X156210000Y-41275000D03*
D14*
X144843500Y-76218500D03*
X144843500Y-75118500D03*
X144843500Y-74018500D03*
X144843500Y-72918500D03*
X144843500Y-71818500D03*
X144843500Y-70718500D03*
X144843500Y-69618500D03*
X144843500Y-68518500D03*
X144843500Y-67418500D03*
X144843500Y-66318500D03*
X144843500Y-65218500D03*
X144843500Y-64118500D03*
D15*
X160543500Y-79168500D03*
X159443500Y-79168500D03*
X158343500Y-79168500D03*
X157243500Y-79168500D03*
X156143500Y-79168500D03*
X155043500Y-79168500D03*
X153943500Y-79168500D03*
X152843500Y-79168500D03*
X151743500Y-79168500D03*
X150643500Y-79168500D03*
X149543500Y-79168500D03*
X148443500Y-79168500D03*
X148443500Y-61168500D03*
X149543500Y-61168500D03*
X150643500Y-61168500D03*
X151743500Y-61168500D03*
X152843500Y-61168500D03*
X153943500Y-61168500D03*
X155043500Y-61168500D03*
X156143500Y-61168500D03*
X157243500Y-61168500D03*
X158343500Y-61168500D03*
X159443500Y-61168500D03*
X160543500Y-61168500D03*
D16*
X152518500Y-69913500D03*
X149868500Y-68963500D03*
X149868500Y-70863500D03*
D17*
X150462500Y-115681250D03*
X150462500Y-117681250D03*
X150462500Y-116681250D03*
D18*
X159702500Y-121558050D03*
D19*
X153352500Y-119221250D03*
D18*
X154622500Y-121558050D03*
D19*
X160972500Y-119221250D03*
D12*
X152082500Y-116681250D03*
X162242500Y-116681250D03*
D20*
X157162500Y-116681250D03*
D17*
X163862500Y-116681250D03*
X163862500Y-115681250D03*
X163862500Y-117681250D03*
D21*
X158432500Y-111601250D03*
X155892500Y-111601250D03*
D17*
X45687500Y-87106250D03*
X45687500Y-89106250D03*
X45687500Y-88106250D03*
D18*
X54927500Y-92983050D03*
D19*
X48577500Y-90646250D03*
D18*
X49847500Y-92983050D03*
D19*
X56197500Y-90646250D03*
D12*
X47307500Y-88106250D03*
X57467500Y-88106250D03*
D20*
X52387500Y-88106250D03*
D17*
X59087500Y-88106250D03*
X59087500Y-87106250D03*
X59087500Y-89106250D03*
D21*
X53657500Y-83026250D03*
X51117500Y-83026250D03*
X65405000Y-30638750D03*
X67945000Y-30638750D03*
D17*
X73375000Y-36718750D03*
X73375000Y-34718750D03*
X73375000Y-35718750D03*
D20*
X66675000Y-35718750D03*
D12*
X71755000Y-35718750D03*
X61595000Y-35718750D03*
D19*
X70485000Y-38258750D03*
D18*
X64135000Y-40595550D03*
D19*
X62865000Y-38258750D03*
D18*
X69215000Y-40595550D03*
D17*
X59975000Y-35718750D03*
X59975000Y-36718750D03*
X59975000Y-34718750D03*
X83787500Y-29956250D03*
X83787500Y-31956250D03*
X83787500Y-30956250D03*
D18*
X93027500Y-35833050D03*
D19*
X86677500Y-33496250D03*
D18*
X87947500Y-35833050D03*
D19*
X94297500Y-33496250D03*
D12*
X85407500Y-30956250D03*
X95567500Y-30956250D03*
D20*
X90487500Y-30956250D03*
D17*
X97187500Y-30956250D03*
X97187500Y-29956250D03*
X97187500Y-31956250D03*
D21*
X91757500Y-25876250D03*
X89217500Y-25876250D03*
X108267500Y-30638750D03*
X110807500Y-30638750D03*
D17*
X116237500Y-36718750D03*
X116237500Y-34718750D03*
X116237500Y-35718750D03*
D20*
X109537500Y-35718750D03*
D12*
X114617500Y-35718750D03*
X104457500Y-35718750D03*
D19*
X113347500Y-38258750D03*
D18*
X106997500Y-40595550D03*
D19*
X105727500Y-38258750D03*
D18*
X112077500Y-40595550D03*
D17*
X102837500Y-35718750D03*
X102837500Y-36718750D03*
X102837500Y-34718750D03*
X121887500Y-39481250D03*
X121887500Y-41481250D03*
X121887500Y-40481250D03*
D18*
X131127500Y-45358050D03*
D19*
X124777500Y-43021250D03*
D18*
X126047500Y-45358050D03*
D19*
X132397500Y-43021250D03*
D12*
X123507500Y-40481250D03*
X133667500Y-40481250D03*
D20*
X128587500Y-40481250D03*
D17*
X135287500Y-40481250D03*
X135287500Y-39481250D03*
X135287500Y-41481250D03*
D21*
X129857500Y-35401250D03*
X127317500Y-35401250D03*
X51117500Y-63976250D03*
X53657500Y-63976250D03*
D17*
X59087500Y-70056250D03*
X59087500Y-68056250D03*
X59087500Y-69056250D03*
D20*
X52387500Y-69056250D03*
D12*
X57467500Y-69056250D03*
X47307500Y-69056250D03*
D19*
X56197500Y-71596250D03*
D18*
X49847500Y-73933050D03*
D19*
X48577500Y-71596250D03*
D18*
X54927500Y-73933050D03*
D17*
X45687500Y-69056250D03*
X45687500Y-70056250D03*
X45687500Y-68056250D03*
X64737500Y-53768750D03*
X64737500Y-55768750D03*
X64737500Y-54768750D03*
D18*
X73977500Y-59645550D03*
D19*
X67627500Y-57308750D03*
D18*
X68897500Y-59645550D03*
D19*
X75247500Y-57308750D03*
D12*
X66357500Y-54768750D03*
X76517500Y-54768750D03*
D20*
X71437500Y-54768750D03*
D17*
X78137500Y-54768750D03*
X78137500Y-53768750D03*
X78137500Y-55768750D03*
D21*
X72707500Y-49688750D03*
X70167500Y-49688750D03*
X89217500Y-44926250D03*
X91757500Y-44926250D03*
D17*
X97187500Y-51006250D03*
X97187500Y-49006250D03*
X97187500Y-50006250D03*
D20*
X90487500Y-50006250D03*
D12*
X95567500Y-50006250D03*
X85407500Y-50006250D03*
D19*
X94297500Y-52546250D03*
D18*
X87947500Y-54883050D03*
D19*
X86677500Y-52546250D03*
D18*
X93027500Y-54883050D03*
D17*
X83787500Y-50006250D03*
X83787500Y-51006250D03*
X83787500Y-49006250D03*
X102837500Y-53768750D03*
X102837500Y-55768750D03*
X102837500Y-54768750D03*
D18*
X112077500Y-59645550D03*
D19*
X105727500Y-57308750D03*
D18*
X106997500Y-59645550D03*
D19*
X113347500Y-57308750D03*
D12*
X104457500Y-54768750D03*
X114617500Y-54768750D03*
D20*
X109537500Y-54768750D03*
D17*
X116237500Y-54768750D03*
X116237500Y-53768750D03*
X116237500Y-55768750D03*
D21*
X110807500Y-49688750D03*
X108267500Y-49688750D03*
X127317500Y-54451250D03*
X129857500Y-54451250D03*
D17*
X135287500Y-60531250D03*
X135287500Y-58531250D03*
X135287500Y-59531250D03*
D20*
X128587500Y-59531250D03*
D12*
X133667500Y-59531250D03*
X123507500Y-59531250D03*
D19*
X132397500Y-62071250D03*
D18*
X126047500Y-64408050D03*
D19*
X124777500Y-62071250D03*
D18*
X131127500Y-64408050D03*
D17*
X121887500Y-59531250D03*
X121887500Y-60531250D03*
X121887500Y-58531250D03*
X102837500Y-72818750D03*
X102837500Y-74818750D03*
X102837500Y-73818750D03*
D18*
X112077500Y-78695550D03*
D19*
X105727500Y-76358750D03*
D18*
X106997500Y-78695550D03*
D19*
X113347500Y-76358750D03*
D12*
X104457500Y-73818750D03*
X114617500Y-73818750D03*
D20*
X109537500Y-73818750D03*
D17*
X116237500Y-73818750D03*
X116237500Y-72818750D03*
X116237500Y-74818750D03*
D21*
X110807500Y-68738750D03*
X108267500Y-68738750D03*
X127317500Y-73501250D03*
X129857500Y-73501250D03*
D17*
X135287500Y-79581250D03*
X135287500Y-77581250D03*
X135287500Y-78581250D03*
D20*
X128587500Y-78581250D03*
D12*
X133667500Y-78581250D03*
X123507500Y-78581250D03*
D19*
X132397500Y-81121250D03*
D18*
X126047500Y-83458050D03*
D19*
X124777500Y-81121250D03*
D18*
X131127500Y-83458050D03*
D17*
X121887500Y-78581250D03*
X121887500Y-79581250D03*
X121887500Y-77581250D03*
X83787500Y-96631250D03*
X83787500Y-98631250D03*
X83787500Y-97631250D03*
D18*
X93027500Y-102508050D03*
D19*
X86677500Y-100171250D03*
D18*
X87947500Y-102508050D03*
D19*
X94297500Y-100171250D03*
D12*
X85407500Y-97631250D03*
X95567500Y-97631250D03*
D20*
X90487500Y-97631250D03*
D17*
X97187500Y-97631250D03*
X97187500Y-96631250D03*
X97187500Y-98631250D03*
D21*
X91757500Y-92551250D03*
X89217500Y-92551250D03*
X108267500Y-92551250D03*
X110807500Y-92551250D03*
D17*
X116237500Y-98631250D03*
X116237500Y-96631250D03*
X116237500Y-97631250D03*
D20*
X109537500Y-97631250D03*
D12*
X114617500Y-97631250D03*
X104457500Y-97631250D03*
D19*
X113347500Y-100171250D03*
D18*
X106997500Y-102508050D03*
D19*
X105727500Y-100171250D03*
D18*
X112077500Y-102508050D03*
D17*
X102837500Y-97631250D03*
X102837500Y-98631250D03*
X102837500Y-96631250D03*
X121887500Y-96631250D03*
X121887500Y-98631250D03*
X121887500Y-97631250D03*
D18*
X131127500Y-102508050D03*
D19*
X124777500Y-100171250D03*
D18*
X126047500Y-102508050D03*
D19*
X132397500Y-100171250D03*
D12*
X123507500Y-97631250D03*
X133667500Y-97631250D03*
D20*
X128587500Y-97631250D03*
D17*
X135287500Y-97631250D03*
X135287500Y-96631250D03*
X135287500Y-98631250D03*
D21*
X129857500Y-92551250D03*
X127317500Y-92551250D03*
X146367500Y-92551250D03*
X148907500Y-92551250D03*
D17*
X154337500Y-98631250D03*
X154337500Y-96631250D03*
X154337500Y-97631250D03*
D20*
X147637500Y-97631250D03*
D12*
X152717500Y-97631250D03*
X142557500Y-97631250D03*
D19*
X151447500Y-100171250D03*
D18*
X145097500Y-102508050D03*
D19*
X143827500Y-100171250D03*
D18*
X150177500Y-102508050D03*
D17*
X140937500Y-97631250D03*
X140937500Y-98631250D03*
X140937500Y-96631250D03*
X131412500Y-115681250D03*
X131412500Y-117681250D03*
X131412500Y-116681250D03*
D18*
X140652500Y-121558050D03*
D19*
X134302500Y-119221250D03*
D18*
X135572500Y-121558050D03*
D19*
X141922500Y-119221250D03*
D12*
X133032500Y-116681250D03*
X143192500Y-116681250D03*
D20*
X138112500Y-116681250D03*
D17*
X144812500Y-116681250D03*
X144812500Y-115681250D03*
X144812500Y-117681250D03*
D21*
X139382500Y-111601250D03*
X136842500Y-111601250D03*
X89217500Y-63976250D03*
X91757500Y-63976250D03*
D17*
X97187500Y-70056250D03*
X97187500Y-68056250D03*
X97187500Y-69056250D03*
D20*
X90487500Y-69056250D03*
D12*
X95567500Y-69056250D03*
X85407500Y-69056250D03*
D19*
X94297500Y-71596250D03*
D18*
X87947500Y-73933050D03*
D19*
X86677500Y-71596250D03*
D18*
X93027500Y-73933050D03*
D17*
X83787500Y-69056250D03*
X83787500Y-70056250D03*
X83787500Y-68056250D03*
X64737500Y-72818750D03*
X64737500Y-74818750D03*
X64737500Y-73818750D03*
D18*
X73977500Y-78695550D03*
D19*
X67627500Y-76358750D03*
D18*
X68897500Y-78695550D03*
D19*
X75247500Y-76358750D03*
D12*
X66357500Y-73818750D03*
X76517500Y-73818750D03*
D20*
X71437500Y-73818750D03*
D17*
X78137500Y-73818750D03*
X78137500Y-72818750D03*
X78137500Y-74818750D03*
D21*
X72707500Y-68738750D03*
X70167500Y-68738750D03*
X41592500Y-44926250D03*
X44132500Y-44926250D03*
D17*
X49562500Y-51006250D03*
X49562500Y-49006250D03*
X49562500Y-50006250D03*
D20*
X42862500Y-50006250D03*
D12*
X47942500Y-50006250D03*
X37782500Y-50006250D03*
D19*
X46672500Y-52546250D03*
D18*
X40322500Y-54883050D03*
D19*
X39052500Y-52546250D03*
D18*
X45402500Y-54883050D03*
D17*
X36162500Y-50006250D03*
X36162500Y-51006250D03*
X36162500Y-49006250D03*
D22*
X146558000Y-75107800D03*
X146583400Y-76250800D03*
X146583400Y-74015600D03*
X151765000Y-77279500D03*
X146639280Y-66321940D03*
X146644360Y-65234820D03*
X146608800Y-69626480D03*
X157226000Y-76898500D03*
X155067000Y-82550000D03*
X156146500Y-81470500D03*
X158369000Y-76898500D03*
X159512000Y-76898500D03*
X157243500Y-59184540D03*
X149565500Y-59148980D03*
X152527000Y-67691000D03*
X149543500Y-77418500D03*
X160543500Y-75184000D03*
X160565500Y-63447260D03*
X152843500Y-59143900D03*
X146644360Y-64129920D03*
X150643500Y-59156600D03*
X151743500Y-59156600D03*
X151193500Y-72136000D03*
X146654520Y-67416680D03*
X153943500Y-58353960D03*
X159443500Y-59184540D03*
X155043500Y-68326000D03*
X155028000Y-74319500D03*
X156146500Y-74319500D03*
X148209001Y-69913500D03*
X152527000Y-72619500D03*
X158343500Y-59184540D03*
D23*
X117348000Y-27940000D02*
X117983000Y-28575000D01*
X98806000Y-28575000D02*
X99441000Y-27940000D01*
X99441000Y-27940000D02*
X117348000Y-27940000D01*
X98806000Y-30044856D02*
X98806000Y-28575000D01*
X97894606Y-30956250D02*
X98806000Y-30044856D01*
X97187500Y-30956250D02*
X97894606Y-30956250D01*
X117983000Y-28575000D02*
X117983000Y-29845000D01*
X137591800Y-32867600D02*
X137591800Y-39039800D01*
X117983000Y-29845000D02*
X119634000Y-31496000D01*
X119634000Y-31496000D02*
X136220200Y-31496000D01*
X136220200Y-31496000D02*
X137591800Y-32867600D01*
X153924000Y-55372000D02*
X158623000Y-55372000D01*
X137591800Y-39039800D02*
X153924000Y-55372000D01*
X158623000Y-55372000D02*
X159443500Y-56192500D01*
X159443500Y-56192500D02*
X159443500Y-59184540D01*
X117998750Y-72818750D02*
X121199000Y-69618500D01*
X116237500Y-72818750D02*
X117998750Y-72818750D01*
X121199000Y-69618500D02*
X144843500Y-69618500D01*
X137604500Y-68326000D02*
X138512000Y-67418500D01*
X121091680Y-68326000D02*
X137604500Y-68326000D01*
X117535680Y-64770000D02*
X121091680Y-68326000D01*
X100584000Y-64770000D02*
X117535680Y-64770000D01*
X97187500Y-68056250D02*
X97297750Y-68056250D01*
X97297750Y-68056250D02*
X100584000Y-64770000D01*
X138512000Y-67418500D02*
X144843500Y-67418500D01*
X120269000Y-66230500D02*
X120269000Y-64135000D01*
X121285000Y-67246500D02*
X120269000Y-66230500D01*
X103060500Y-62865000D02*
X101282500Y-61087000D01*
X136334500Y-67246500D02*
X121285000Y-67246500D01*
X138366500Y-65214500D02*
X136334500Y-67246500D01*
X144843500Y-65218500D02*
X138370500Y-65218500D01*
X138370500Y-65218500D02*
X138366500Y-65214500D01*
X120269000Y-64135000D02*
X118999000Y-62865000D01*
X78917800Y-55829200D02*
X78197950Y-55829200D01*
X118999000Y-62865000D02*
X103060500Y-62865000D01*
X101282500Y-61087000D02*
X101282500Y-59309000D01*
X101282500Y-59309000D02*
X100139500Y-58166000D01*
X100139500Y-58166000D02*
X81254600Y-58166000D01*
X81254600Y-58166000D02*
X78917800Y-55829200D01*
X78197950Y-55829200D02*
X78137500Y-55768750D01*
X146547300Y-75118500D02*
X146558000Y-75107800D01*
X144843500Y-75118500D02*
X146547300Y-75118500D01*
X101282500Y-80391000D02*
X102870000Y-81978500D01*
X81241856Y-77216000D02*
X100520500Y-77216000D01*
X101282500Y-77978000D02*
X101282500Y-80391000D01*
X100520500Y-77216000D02*
X101282500Y-77978000D01*
X78844606Y-74818750D02*
X81241856Y-77216000D01*
X78137500Y-74818750D02*
X78844606Y-74818750D01*
X102870000Y-81978500D02*
X119570500Y-81978500D01*
X119570500Y-81978500D02*
X120396000Y-82804000D01*
X120396000Y-82804000D02*
X120396000Y-85471000D01*
X138054510Y-84957490D02*
X138054510Y-76702490D01*
X120396000Y-85471000D02*
X121412000Y-86487000D01*
X121412000Y-86487000D02*
X136525000Y-86487000D01*
X136525000Y-86487000D02*
X138054510Y-84957490D01*
X138054510Y-76702490D02*
X139638500Y-75118500D01*
X139638500Y-75118500D02*
X143343500Y-75118500D01*
X143343500Y-75118500D02*
X144843500Y-75118500D01*
X50736500Y-47879000D02*
X50736500Y-45177950D01*
X50736500Y-45177950D02*
X51997850Y-43916600D01*
X50109249Y-48506251D02*
X50736500Y-47879000D01*
X49562500Y-49006250D02*
X50062499Y-48506251D01*
X50062499Y-48506251D02*
X50109249Y-48506251D01*
X100705490Y-40318400D02*
X100705491Y-42667901D01*
X99953100Y-39566010D02*
X100705490Y-40318400D01*
X78264590Y-39566010D02*
X99953100Y-39566010D01*
X51997850Y-43916600D02*
X73914000Y-43916600D01*
X73914000Y-43916600D02*
X78264590Y-39566010D01*
X119755491Y-47557401D02*
X121162100Y-48964010D01*
X100705491Y-42667901D02*
X102366100Y-44328510D01*
X102366100Y-44328510D02*
X119068010Y-44328510D01*
X119068010Y-44328510D02*
X119755490Y-45015990D01*
X119755490Y-45015990D02*
X119755491Y-47557401D01*
X121162100Y-48964010D02*
X144719190Y-48964010D01*
X144719190Y-48964010D02*
X152843500Y-57088320D01*
X152843500Y-57088320D02*
X152843500Y-59143900D01*
X60134500Y-64325500D02*
X61468000Y-62992000D01*
X61468000Y-62992000D02*
X61468000Y-62865000D01*
X60134500Y-67056000D02*
X60134500Y-64325500D01*
X59634249Y-67556251D02*
X60134500Y-67056000D01*
X59087500Y-68056250D02*
X59587499Y-67556251D01*
X59587499Y-67556251D02*
X59634249Y-67556251D01*
X99898200Y-58623200D02*
X100832491Y-59557491D01*
X82854800Y-58623200D02*
X99898200Y-58623200D01*
X119818991Y-66416901D02*
X121220090Y-67818000D01*
X78613000Y-62865000D02*
X82854800Y-58623200D01*
X61468000Y-62865000D02*
X78613000Y-62865000D01*
X59087500Y-70056250D02*
X59134250Y-70056250D01*
X119818990Y-64383490D02*
X119818991Y-66416901D01*
X138405500Y-66318500D02*
X144843500Y-66318500D01*
X100832491Y-59557491D02*
X100832491Y-61273401D01*
X100832491Y-61273401D02*
X102874100Y-63315010D01*
X102874100Y-63315010D02*
X118750510Y-63315010D01*
X136906000Y-67818000D02*
X138405500Y-66318500D01*
X118750510Y-63315010D02*
X119818990Y-64383490D01*
X121220090Y-67818000D02*
X136906000Y-67818000D01*
X60261500Y-85979000D02*
X60261500Y-83172300D01*
X60261500Y-83172300D02*
X61518800Y-81915000D01*
X59634249Y-86606251D02*
X60261500Y-85979000D01*
X59087500Y-87106250D02*
X59587499Y-86606251D01*
X59587499Y-86606251D02*
X59634249Y-86606251D01*
X138504520Y-77395480D02*
X139681500Y-76218500D01*
X119945990Y-83115990D02*
X119945991Y-85657401D01*
X138504520Y-85143890D02*
X138504520Y-77395480D01*
X119258510Y-82428510D02*
X119945990Y-83115990D01*
X100272010Y-77666010D02*
X100832490Y-78226490D01*
X100832490Y-80577400D02*
X102683600Y-82428510D01*
X100832490Y-78226490D02*
X100832490Y-80577400D01*
X121225600Y-86937010D02*
X136711401Y-86937009D01*
X136711401Y-86937009D02*
X138504520Y-85143890D01*
X59087500Y-89106250D02*
X59185050Y-89106250D01*
X61518800Y-81915000D02*
X78384400Y-81915000D01*
X78384400Y-81915000D02*
X82633390Y-77666010D01*
X119945991Y-85657401D02*
X121225600Y-86937010D01*
X102683600Y-82428510D02*
X119258510Y-82428510D01*
X82633390Y-77666010D02*
X100272010Y-77666010D01*
X139681500Y-76218500D02*
X144843500Y-76218500D01*
X146583400Y-76250800D02*
X144875800Y-76250800D01*
X144875800Y-76250800D02*
X144843500Y-76218500D01*
X146580500Y-74018500D02*
X146583400Y-74015600D01*
X144843500Y-74018500D02*
X146580500Y-74018500D01*
X136096250Y-77581250D02*
X139659000Y-74018500D01*
X135287500Y-77581250D02*
X136096250Y-77581250D01*
X139659000Y-74018500D02*
X144843500Y-74018500D01*
X137007600Y-39154100D02*
X153675510Y-55822010D01*
X137007600Y-32943800D02*
X137007600Y-39154100D01*
X158369000Y-59159040D02*
X158343500Y-59184540D01*
X136042400Y-31978600D02*
X137007600Y-32943800D01*
X119684756Y-31978600D02*
X136042400Y-31978600D01*
X116237500Y-34718750D02*
X116944606Y-34718750D01*
X157803010Y-55822010D02*
X158369000Y-56388000D01*
X116944606Y-34718750D02*
X119684756Y-31978600D01*
X158369000Y-56388000D02*
X158369000Y-59159040D01*
X153675510Y-55822010D02*
X157803010Y-55822010D01*
X155067000Y-88201500D02*
X153993010Y-89275490D01*
X155067000Y-82550000D02*
X155067000Y-88201500D01*
X153993010Y-89275490D02*
X118369510Y-89275490D01*
X118369510Y-89275490D02*
X117348000Y-90297000D01*
X117348000Y-90297000D02*
X117348000Y-95520750D01*
X117348000Y-95520750D02*
X116237500Y-96631250D01*
X151743500Y-87207000D02*
X150125020Y-88825480D01*
X150125020Y-88825480D02*
X99261520Y-88825480D01*
X99261520Y-88825480D02*
X98361500Y-89725500D01*
X98361500Y-89725500D02*
X98361500Y-95457250D01*
X98361500Y-95457250D02*
X97187500Y-96631250D01*
X151743500Y-79168500D02*
X151743500Y-87207000D01*
X151743500Y-77301000D02*
X151765000Y-77279500D01*
X151743500Y-79168500D02*
X151743500Y-77301000D01*
X97187500Y-96631250D02*
X97297750Y-96631250D01*
D24*
X156210000Y-52975000D02*
X156210000Y-41275000D01*
D25*
X97187500Y-31956250D02*
X96567500Y-31956250D01*
X96567500Y-31956250D02*
X95567500Y-30956250D01*
X97187500Y-30956250D02*
X95567500Y-30956250D01*
X97187500Y-29956250D02*
X96567500Y-29956250D01*
X96567500Y-29956250D02*
X95567500Y-30956250D01*
X97187500Y-29956250D02*
X97187500Y-31956250D01*
D26*
X94297500Y-33496250D02*
X94297500Y-32226250D01*
X94297500Y-32226250D02*
X95567500Y-30956250D01*
X93027500Y-35833050D02*
X93027500Y-34766250D01*
X93027500Y-34766250D02*
X94297500Y-33496250D01*
D23*
X146635840Y-66318500D02*
X146639280Y-66321940D01*
X144843500Y-66318500D02*
X146635840Y-66318500D01*
D25*
X116237500Y-72818750D02*
X115617500Y-72818750D01*
X115617500Y-72818750D02*
X114617500Y-73818750D01*
X116237500Y-73818750D02*
X114617500Y-73818750D01*
X116237500Y-74818750D02*
X115617500Y-74818750D01*
X115617500Y-74818750D02*
X114617500Y-73818750D01*
X116237500Y-72818750D02*
X116237500Y-74818750D01*
D26*
X113347500Y-76358750D02*
X113347500Y-75088750D01*
X113347500Y-75088750D02*
X114617500Y-73818750D01*
X112077500Y-78695550D02*
X112077500Y-77628750D01*
X112077500Y-77628750D02*
X113347500Y-76358750D01*
D23*
X144346390Y-49864030D02*
X150643500Y-56161140D01*
X150643500Y-56161140D02*
X150643500Y-59156600D01*
X120849326Y-49864030D02*
X144346390Y-49864030D01*
X116237500Y-53768750D02*
X116944606Y-53768750D01*
X116944606Y-53768750D02*
X120849326Y-49864030D01*
X144843500Y-65218500D02*
X146628040Y-65218500D01*
X146628040Y-65218500D02*
X146644360Y-65234820D01*
D26*
X113347500Y-57308750D02*
X113347500Y-56038750D01*
X113347500Y-56038750D02*
X114617500Y-54768750D01*
X112077500Y-59645550D02*
X112077500Y-58578750D01*
X112077500Y-58578750D02*
X113347500Y-57308750D01*
D25*
X116237500Y-55768750D02*
X116237500Y-53768750D01*
X116237500Y-55768750D02*
X115617500Y-55768750D01*
X115617500Y-55768750D02*
X114617500Y-54768750D01*
X116237500Y-54768750D02*
X114617500Y-54768750D01*
X116237500Y-53768750D02*
X115617500Y-53768750D01*
X115617500Y-53768750D02*
X114617500Y-54768750D01*
D23*
X120975700Y-49414020D02*
X144532790Y-49414020D01*
X117345180Y-45783500D02*
X120975700Y-49414020D01*
X151743500Y-56624730D02*
X151743500Y-59156600D01*
X100520500Y-45783500D02*
X117345180Y-45783500D01*
X97797749Y-48506251D02*
X100520500Y-45783500D01*
X97187500Y-49006250D02*
X97687499Y-48506251D01*
X97687499Y-48506251D02*
X97797749Y-48506251D01*
X144532790Y-49414020D02*
X151743500Y-56624730D01*
X155044606Y-96631250D02*
X157243500Y-94432356D01*
X154337500Y-96631250D02*
X155044606Y-96631250D01*
X157243500Y-94432356D02*
X157243500Y-80668500D01*
X157243500Y-80668500D02*
X157243500Y-79168500D01*
X144843500Y-69618500D02*
X146600820Y-69618500D01*
X146600820Y-69618500D02*
X146608800Y-69626480D01*
D25*
X97187500Y-49006250D02*
X96567500Y-49006250D01*
X96567500Y-49006250D02*
X95567500Y-50006250D01*
X97187500Y-50006250D02*
X95567500Y-50006250D01*
X97187500Y-51006250D02*
X96567500Y-51006250D01*
X96567500Y-51006250D02*
X95567500Y-50006250D01*
X97187500Y-49006250D02*
X97187500Y-51006250D01*
D26*
X94297500Y-52546250D02*
X94297500Y-51276250D01*
X94297500Y-51276250D02*
X95567500Y-50006250D01*
X93027500Y-54883050D02*
X93027500Y-53816250D01*
X93027500Y-53816250D02*
X94297500Y-52546250D01*
D25*
X97187500Y-70056250D02*
X96567500Y-70056250D01*
X96567500Y-70056250D02*
X95567500Y-69056250D01*
X97187500Y-69056250D02*
X95567500Y-69056250D01*
X97187500Y-68056250D02*
X96567500Y-68056250D01*
X96567500Y-68056250D02*
X95567500Y-69056250D01*
X97187500Y-68056250D02*
X97187500Y-70056250D01*
D26*
X94297500Y-71596250D02*
X94297500Y-70326250D01*
X94297500Y-70326250D02*
X95567500Y-69056250D01*
X93027500Y-73933050D02*
X93027500Y-72866250D01*
X93027500Y-72866250D02*
X94297500Y-71596250D01*
D23*
X101155500Y-42481500D02*
X102552500Y-43878500D01*
X101155500Y-40132000D02*
X101155500Y-42481500D01*
X100139500Y-39116000D02*
X101155500Y-40132000D01*
X76479356Y-39116000D02*
X100139500Y-39116000D01*
X153943500Y-57788275D02*
X153943500Y-58353960D01*
X74082106Y-36718750D02*
X76479356Y-39116000D01*
X153943500Y-57551910D02*
X153943500Y-57788275D01*
X73375000Y-36718750D02*
X74082106Y-36718750D01*
X102552500Y-43878500D02*
X119316500Y-43878500D01*
X119316500Y-43878500D02*
X120205500Y-44767500D01*
X120205500Y-44767500D02*
X120205500Y-47371000D01*
X121348500Y-48514000D02*
X144905590Y-48514000D01*
X120205500Y-47371000D02*
X121348500Y-48514000D01*
X144905590Y-48514000D02*
X153943500Y-57551910D01*
X136810750Y-59531250D02*
X137604500Y-60325000D01*
X135287500Y-59531250D02*
X136810750Y-59531250D01*
X137604500Y-60325000D02*
X137604500Y-63309500D01*
X137604500Y-63309500D02*
X138413500Y-64118500D01*
X138413500Y-64118500D02*
X141080500Y-64118500D01*
X141080500Y-64118500D02*
X144843500Y-64118500D01*
D25*
X73375000Y-34718750D02*
X72755000Y-34718750D01*
X72755000Y-34718750D02*
X71755000Y-35718750D01*
X73375000Y-35718750D02*
X71755000Y-35718750D01*
X73375000Y-36718750D02*
X72755000Y-36718750D01*
X72755000Y-36718750D02*
X71755000Y-35718750D01*
X73375000Y-34718750D02*
X73375000Y-36718750D01*
D26*
X70485000Y-38258750D02*
X70485000Y-36988750D01*
X70485000Y-36988750D02*
X71755000Y-35718750D01*
X69215000Y-40595550D02*
X69215000Y-39528750D01*
X69215000Y-39528750D02*
X70485000Y-38258750D01*
D25*
X78137500Y-55768750D02*
X77517500Y-55768750D01*
X77517500Y-55768750D02*
X76517500Y-54768750D01*
X78137500Y-54768750D02*
X76517500Y-54768750D01*
X78137500Y-53768750D02*
X77517500Y-53768750D01*
X77517500Y-53768750D02*
X76517500Y-54768750D01*
X78137500Y-53768750D02*
X78137500Y-55768750D01*
D26*
X75247500Y-57308750D02*
X75247500Y-56038750D01*
X75247500Y-56038750D02*
X76517500Y-54768750D01*
X73977500Y-59645550D02*
X73977500Y-58578750D01*
X73977500Y-58578750D02*
X75247500Y-57308750D01*
D25*
X78137500Y-72818750D02*
X77517500Y-72818750D01*
X77517500Y-72818750D02*
X76517500Y-73818750D01*
X78137500Y-73818750D02*
X76517500Y-73818750D01*
X78137500Y-74818750D02*
X77517500Y-74818750D01*
X77517500Y-74818750D02*
X76517500Y-73818750D01*
X78137500Y-72818750D02*
X78137500Y-74818750D01*
D26*
X75247500Y-76358750D02*
X75247500Y-75088750D01*
X75247500Y-75088750D02*
X76517500Y-73818750D01*
X73977500Y-78695550D02*
X73977500Y-77628750D01*
X73977500Y-77628750D02*
X75247500Y-76358750D01*
D23*
X157243500Y-76916000D02*
X157226000Y-76898500D01*
X157243500Y-79168500D02*
X157243500Y-76916000D01*
D25*
X49562500Y-49006250D02*
X49562500Y-51006250D01*
X49562500Y-51006250D02*
X48942500Y-51006250D01*
X48942500Y-51006250D02*
X47942500Y-50006250D01*
X47942500Y-50006250D02*
X49562500Y-50006250D01*
X49562500Y-49006250D02*
X48942500Y-49006250D01*
X48942500Y-49006250D02*
X47942500Y-50006250D01*
D26*
X46672500Y-52546250D02*
X46672500Y-51276250D01*
X46672500Y-51276250D02*
X47942500Y-50006250D01*
X45402500Y-54883050D02*
X45402500Y-53816250D01*
X45402500Y-53816250D02*
X46672500Y-52546250D01*
D23*
X155043500Y-82526500D02*
X155067000Y-82550000D01*
X155043500Y-79168500D02*
X155043500Y-82526500D01*
X154686000Y-89725500D02*
X156146500Y-88265000D01*
X136842500Y-95783356D02*
X136842500Y-90614500D01*
X137731500Y-89725500D02*
X154686000Y-89725500D01*
X136842500Y-90614500D02*
X137731500Y-89725500D01*
X135287500Y-96631250D02*
X135994606Y-96631250D01*
X135994606Y-96631250D02*
X136842500Y-95783356D01*
X156146500Y-88265000D02*
X156146500Y-81470500D01*
X156143500Y-81467500D02*
X156146500Y-81470500D01*
X156143500Y-79168500D02*
X156143500Y-81467500D01*
X157543500Y-108521500D02*
X158343500Y-107721500D01*
X158343500Y-80668500D02*
X158343500Y-79168500D01*
X147256500Y-108521500D02*
X157543500Y-108521500D01*
X145986500Y-109791500D02*
X147256500Y-108521500D01*
X145986500Y-115214356D02*
X145986500Y-109791500D01*
X144812500Y-115681250D02*
X145519606Y-115681250D01*
X145519606Y-115681250D02*
X145986500Y-115214356D01*
X158343500Y-107721500D02*
X158343500Y-80668500D01*
X158343500Y-79168500D02*
X158343500Y-76924000D01*
X158343500Y-76924000D02*
X158369000Y-76898500D01*
D25*
X59087500Y-70056250D02*
X58467500Y-70056250D01*
X58467500Y-70056250D02*
X57467500Y-69056250D01*
X59087500Y-69056250D02*
X57467500Y-69056250D01*
X59087500Y-68056250D02*
X58467500Y-68056250D01*
X58467500Y-68056250D02*
X57467500Y-69056250D01*
X59087500Y-68056250D02*
X59087500Y-70056250D01*
D26*
X56197500Y-71596250D02*
X56197500Y-70326250D01*
X56197500Y-70326250D02*
X57467500Y-69056250D01*
X54927500Y-73933050D02*
X54927500Y-72866250D01*
X54927500Y-72866250D02*
X56197500Y-71596250D01*
D23*
X159443500Y-102298500D02*
X159443500Y-79168500D01*
X159443500Y-102992000D02*
X159443500Y-102298500D01*
X160464500Y-108585000D02*
X159443500Y-107564000D01*
X159443500Y-107564000D02*
X159443500Y-102298500D01*
X165036500Y-108585000D02*
X160464500Y-108585000D01*
X165036500Y-115214356D02*
X165036500Y-108585000D01*
X163862500Y-115681250D02*
X164569606Y-115681250D01*
X164569606Y-115681250D02*
X165036500Y-115214356D01*
X159443500Y-79168500D02*
X159443500Y-76967000D01*
X159443500Y-76967000D02*
X159512000Y-76898500D01*
D25*
X59087500Y-87106250D02*
X58467500Y-87106250D01*
X58467500Y-87106250D02*
X57467500Y-88106250D01*
X59087500Y-88106250D02*
X57467500Y-88106250D01*
X59087500Y-89106250D02*
X58467500Y-89106250D01*
X58467500Y-89106250D02*
X57467500Y-88106250D01*
X59087500Y-87106250D02*
X59087500Y-89106250D01*
D26*
X56197500Y-90646250D02*
X56197500Y-89376250D01*
X56197500Y-89376250D02*
X57467500Y-88106250D01*
X54927500Y-92983050D02*
X54927500Y-91916250D01*
X54927500Y-91916250D02*
X56197500Y-90646250D01*
D23*
X136636250Y-39481250D02*
X153479500Y-56324500D01*
X135287500Y-39481250D02*
X136636250Y-39481250D01*
X153479500Y-56324500D02*
X156654500Y-56324500D01*
X156654500Y-56324500D02*
X157243500Y-56913500D01*
X157243500Y-56913500D02*
X157243500Y-59184540D01*
X157243500Y-59668500D02*
X157243500Y-61168500D01*
X157243500Y-59184540D02*
X157243500Y-59668500D01*
D25*
X154337500Y-98631250D02*
X153717500Y-98631250D01*
X153717500Y-98631250D02*
X152717500Y-97631250D01*
X154337500Y-97631250D02*
X152717500Y-97631250D01*
X154337500Y-96631250D02*
X153717500Y-96631250D01*
X153717500Y-96631250D02*
X152717500Y-97631250D01*
X154337500Y-96631250D02*
X154337500Y-98631250D01*
D26*
X151447500Y-100171250D02*
X151447500Y-98901250D01*
X151447500Y-98901250D02*
X152717500Y-97631250D01*
X150177500Y-102508050D02*
X150177500Y-101441250D01*
X150177500Y-101441250D02*
X151447500Y-100171250D01*
D24*
X150316000Y-67691000D02*
X149868500Y-68138500D01*
D23*
X149543500Y-61168500D02*
X149543500Y-59170980D01*
D24*
X160543500Y-63425260D02*
X160565500Y-63447260D01*
X160543500Y-61168500D02*
X160543500Y-63425260D01*
D23*
X149543500Y-59170980D02*
X149565500Y-59148980D01*
D24*
X160543500Y-75184000D02*
X154241500Y-75184000D01*
X152527000Y-67691000D02*
X154178000Y-67691000D01*
X149543500Y-77418500D02*
X149543500Y-79168500D01*
X151778000Y-75184000D02*
X149543500Y-77418500D01*
X154241500Y-75184000D02*
X151778000Y-75184000D01*
X149868500Y-68138500D02*
X149868500Y-68963500D01*
X152527000Y-67691000D02*
X150316000Y-67691000D01*
X154178000Y-75120500D02*
X154241500Y-75184000D01*
X160543500Y-79168500D02*
X160543500Y-75184000D01*
X154178000Y-67691000D02*
X154178000Y-75120500D01*
D25*
X131412500Y-117681250D02*
X132032500Y-117681250D01*
X132032500Y-117681250D02*
X133032500Y-116681250D01*
X131412500Y-116681250D02*
X133032500Y-116681250D01*
X131412500Y-115681250D02*
X132032500Y-115681250D01*
X132032500Y-115681250D02*
X133032500Y-116681250D01*
X131412500Y-115681250D02*
X131412500Y-117681250D01*
X150462500Y-115681250D02*
X151082500Y-115681250D01*
X151082500Y-115681250D02*
X152082500Y-116681250D01*
X150462500Y-116681250D02*
X152082500Y-116681250D01*
X150462500Y-117681250D02*
X151082500Y-117681250D01*
X151082500Y-117681250D02*
X152082500Y-116681250D01*
X150462500Y-115681250D02*
X150462500Y-117681250D01*
X140937500Y-98631250D02*
X141557500Y-98631250D01*
X141557500Y-98631250D02*
X142557500Y-97631250D01*
X140937500Y-97631250D02*
X142557500Y-97631250D01*
X140937500Y-96631250D02*
X141557500Y-96631250D01*
X141557500Y-96631250D02*
X142557500Y-97631250D01*
X140937500Y-96631250D02*
X140937500Y-98631250D01*
X121887500Y-96631250D02*
X122507500Y-96631250D01*
X122507500Y-96631250D02*
X123507500Y-97631250D01*
X121887500Y-97631250D02*
X123507500Y-97631250D01*
X121887500Y-98631250D02*
X122507500Y-98631250D01*
X122507500Y-98631250D02*
X123507500Y-97631250D01*
X121887500Y-96631250D02*
X121887500Y-98631250D01*
X102837500Y-98631250D02*
X103457500Y-98631250D01*
X103457500Y-98631250D02*
X104457500Y-97631250D01*
X102837500Y-97631250D02*
X104457500Y-97631250D01*
X102837500Y-96631250D02*
X103457500Y-96631250D01*
X103457500Y-96631250D02*
X104457500Y-97631250D01*
X102837500Y-96631250D02*
X102837500Y-98631250D01*
X83787500Y-96631250D02*
X84407500Y-96631250D01*
X84407500Y-96631250D02*
X85407500Y-97631250D01*
X83787500Y-97631250D02*
X85407500Y-97631250D01*
X83787500Y-98631250D02*
X84407500Y-98631250D01*
X84407500Y-98631250D02*
X85407500Y-97631250D01*
X83787500Y-96631250D02*
X83787500Y-98631250D01*
X121887500Y-77581250D02*
X122507500Y-77581250D01*
X122507500Y-77581250D02*
X123507500Y-78581250D01*
X121887500Y-78581250D02*
X123507500Y-78581250D01*
X121887500Y-79581250D02*
X122507500Y-79581250D01*
X122507500Y-79581250D02*
X123507500Y-78581250D01*
X121887500Y-77581250D02*
X121887500Y-79581250D01*
X102837500Y-72818750D02*
X103457500Y-72818750D01*
X103457500Y-72818750D02*
X104457500Y-73818750D01*
X102837500Y-73818750D02*
X104457500Y-73818750D01*
X102837500Y-74818750D02*
X103457500Y-74818750D01*
X103457500Y-74818750D02*
X104457500Y-73818750D01*
X102837500Y-72818750D02*
X102837500Y-74818750D01*
X83787500Y-70056250D02*
X84407500Y-70056250D01*
X84407500Y-70056250D02*
X85407500Y-69056250D01*
X83787500Y-69056250D02*
X85407500Y-69056250D01*
X83787500Y-68056250D02*
X84407500Y-68056250D01*
X84407500Y-68056250D02*
X85407500Y-69056250D01*
X83787500Y-68056250D02*
X83787500Y-70056250D01*
X64737500Y-74818750D02*
X65357500Y-74818750D01*
X65357500Y-74818750D02*
X66357500Y-73818750D01*
X64737500Y-73818750D02*
X66357500Y-73818750D01*
X64737500Y-72818750D02*
X65357500Y-72818750D01*
X65357500Y-72818750D02*
X66357500Y-73818750D01*
X64737500Y-72818750D02*
X64737500Y-74818750D01*
X45687500Y-89106250D02*
X46307500Y-89106250D01*
X46307500Y-89106250D02*
X47307500Y-88106250D01*
X45687500Y-88106250D02*
X47307500Y-88106250D01*
X45687500Y-87106250D02*
X46307500Y-87106250D01*
X46307500Y-87106250D02*
X47307500Y-88106250D01*
X45687500Y-87106250D02*
X45687500Y-89106250D01*
X121887500Y-60531250D02*
X122507500Y-60531250D01*
X122507500Y-60531250D02*
X123507500Y-59531250D01*
X121887500Y-59531250D02*
X123507500Y-59531250D01*
X121887500Y-58531250D02*
X122507500Y-58531250D01*
X122507500Y-58531250D02*
X123507500Y-59531250D01*
X121887500Y-58531250D02*
X121887500Y-60531250D01*
X121887500Y-41481250D02*
X121887500Y-39481250D01*
X121887500Y-41481250D02*
X122507500Y-41481250D01*
X122507500Y-41481250D02*
X123507500Y-40481250D01*
X121887500Y-40481250D02*
X123507500Y-40481250D01*
X121887500Y-39481250D02*
X122507500Y-39481250D01*
X122507500Y-39481250D02*
X123507500Y-40481250D01*
X102837500Y-36718750D02*
X103457500Y-36718750D01*
X103457500Y-36718750D02*
X104457500Y-35718750D01*
X102837500Y-35718750D02*
X104457500Y-35718750D01*
X102837500Y-34718750D02*
X103457500Y-34718750D01*
X103457500Y-34718750D02*
X104457500Y-35718750D01*
X102837500Y-34718750D02*
X102837500Y-36718750D01*
X102837500Y-55768750D02*
X103457500Y-55768750D01*
X103457500Y-55768750D02*
X104457500Y-54768750D01*
X102837500Y-54768750D02*
X104457500Y-54768750D01*
X102837500Y-53768750D02*
X103457500Y-53768750D01*
X103457500Y-53768750D02*
X104457500Y-54768750D01*
X102837500Y-55768750D02*
X102837500Y-53768750D01*
X83787500Y-31956250D02*
X84407500Y-31956250D01*
X84407500Y-31956250D02*
X85407500Y-30956250D01*
X83787500Y-30956250D02*
X85407500Y-30956250D01*
X83787500Y-29956250D02*
X84407500Y-29956250D01*
X84407500Y-29956250D02*
X85407500Y-30956250D01*
X83787500Y-29956250D02*
X83787500Y-31956250D01*
X83787500Y-51006250D02*
X84407500Y-51006250D01*
X84407500Y-51006250D02*
X85407500Y-50006250D01*
X83787500Y-50006250D02*
X85407500Y-50006250D01*
X83787500Y-49006250D02*
X84407500Y-49006250D01*
X84407500Y-49006250D02*
X85407500Y-50006250D01*
X83787500Y-49006250D02*
X83787500Y-51006250D01*
X64737500Y-55768750D02*
X65357500Y-55768750D01*
X65357500Y-55768750D02*
X66357500Y-54768750D01*
X64737500Y-54768750D02*
X66357500Y-54768750D01*
X64737500Y-53768750D02*
X65357500Y-53768750D01*
X65357500Y-53768750D02*
X66357500Y-54768750D01*
X64737500Y-53768750D02*
X64737500Y-55768750D01*
X45687500Y-70056250D02*
X46307500Y-70056250D01*
X46307500Y-70056250D02*
X47307500Y-69056250D01*
X45687500Y-69056250D02*
X47307500Y-69056250D01*
X45687500Y-68056250D02*
X46307500Y-68056250D01*
X46307500Y-68056250D02*
X47307500Y-69056250D01*
X45687500Y-68056250D02*
X45687500Y-70056250D01*
X59975000Y-36718750D02*
X60595000Y-36718750D01*
X60595000Y-36718750D02*
X61595000Y-35718750D01*
X59975000Y-35718750D02*
X61595000Y-35718750D01*
X59975000Y-34718750D02*
X60595000Y-34718750D01*
X60595000Y-34718750D02*
X61595000Y-35718750D01*
X59975000Y-34718750D02*
X59975000Y-36718750D01*
X36162500Y-49006250D02*
X36162500Y-51006250D01*
X36162500Y-51006250D02*
X36782500Y-51006250D01*
X36782500Y-51006250D02*
X37782500Y-50006250D01*
X36162500Y-50006250D02*
X37782500Y-50006250D01*
X36162500Y-49006250D02*
X36782500Y-49006250D01*
X36782500Y-49006250D02*
X37782500Y-50006250D01*
D26*
X153352500Y-119221250D02*
X153352500Y-117951250D01*
X153352500Y-117951250D02*
X152082500Y-116681250D01*
X154622500Y-121558050D02*
X154622500Y-120491250D01*
X154622500Y-120491250D02*
X153352500Y-119221250D01*
X134302500Y-119221250D02*
X134302500Y-117951250D01*
X134302500Y-117951250D02*
X133032500Y-116681250D01*
X135572500Y-121558050D02*
X135572500Y-120491250D01*
X135572500Y-120491250D02*
X134302500Y-119221250D01*
X143827500Y-100171250D02*
X143827500Y-98901250D01*
X143827500Y-98901250D02*
X142557500Y-97631250D01*
X145097500Y-102508050D02*
X145097500Y-101441250D01*
X145097500Y-101441250D02*
X143827500Y-100171250D01*
X124777500Y-100171250D02*
X124777500Y-98901250D01*
X124777500Y-98901250D02*
X123507500Y-97631250D01*
X126047500Y-102508050D02*
X126047500Y-101441250D01*
X126047500Y-101441250D02*
X124777500Y-100171250D01*
X105727500Y-100171250D02*
X105727500Y-98901250D01*
X105727500Y-98901250D02*
X104457500Y-97631250D01*
X106997500Y-102508050D02*
X106997500Y-101441250D01*
X106997500Y-101441250D02*
X105727500Y-100171250D01*
X86677500Y-100171250D02*
X86677500Y-98901250D01*
X86677500Y-98901250D02*
X85407500Y-97631250D01*
X87947500Y-102508050D02*
X87947500Y-101441250D01*
X87947500Y-101441250D02*
X86677500Y-100171250D01*
X124777500Y-81121250D02*
X124777500Y-79851250D01*
X124777500Y-79851250D02*
X123507500Y-78581250D01*
X126047500Y-83458050D02*
X126047500Y-82391250D01*
X126047500Y-82391250D02*
X124777500Y-81121250D01*
X105727500Y-76358750D02*
X105727500Y-75088750D01*
X105727500Y-75088750D02*
X104457500Y-73818750D01*
X106997500Y-78695550D02*
X106997500Y-77628750D01*
X106997500Y-77628750D02*
X105727500Y-76358750D01*
X86677500Y-71596250D02*
X86677500Y-70326250D01*
X86677500Y-70326250D02*
X85407500Y-69056250D01*
X87947500Y-73933050D02*
X87947500Y-72866250D01*
X87947500Y-72866250D02*
X86677500Y-71596250D01*
X67627500Y-76358750D02*
X67627500Y-75088750D01*
X67627500Y-75088750D02*
X66357500Y-73818750D01*
X68897500Y-78695550D02*
X68897500Y-77628750D01*
X68897500Y-77628750D02*
X67627500Y-76358750D01*
X124777500Y-62071250D02*
X124777500Y-60801250D01*
X124777500Y-60801250D02*
X123507500Y-59531250D01*
X126047500Y-64408050D02*
X126047500Y-63341250D01*
X126047500Y-63341250D02*
X124777500Y-62071250D01*
X105727500Y-57308750D02*
X105727500Y-56038750D01*
X105727500Y-56038750D02*
X104457500Y-54768750D01*
X106997500Y-59645550D02*
X106997500Y-58578750D01*
X106997500Y-58578750D02*
X105727500Y-57308750D01*
X86677500Y-52546250D02*
X86677500Y-51276250D01*
X86677500Y-51276250D02*
X85407500Y-50006250D01*
X87947500Y-54883050D02*
X87947500Y-53816250D01*
X87947500Y-53816250D02*
X86677500Y-52546250D01*
X67627500Y-57308750D02*
X67627500Y-56038750D01*
X67627500Y-56038750D02*
X66357500Y-54768750D01*
X68897500Y-59645550D02*
X68897500Y-58578750D01*
X68897500Y-58578750D02*
X67627500Y-57308750D01*
X124777500Y-43021250D02*
X124777500Y-41751250D01*
X124777500Y-41751250D02*
X123507500Y-40481250D01*
X126047500Y-45358050D02*
X126047500Y-44291250D01*
X126047500Y-44291250D02*
X124777500Y-43021250D01*
X105727500Y-38258750D02*
X105727500Y-36988750D01*
X105727500Y-36988750D02*
X104457500Y-35718750D01*
X106997500Y-40595550D02*
X106997500Y-39528750D01*
X106997500Y-39528750D02*
X105727500Y-38258750D01*
X86677500Y-33496250D02*
X86677500Y-32226250D01*
X86677500Y-32226250D02*
X85407500Y-30956250D01*
X87947500Y-35833050D02*
X87947500Y-34766250D01*
X87947500Y-34766250D02*
X86677500Y-33496250D01*
X62865000Y-38258750D02*
X62865000Y-36988750D01*
X62865000Y-36988750D02*
X61595000Y-35718750D01*
X64135000Y-40595550D02*
X64135000Y-39528750D01*
X64135000Y-39528750D02*
X62865000Y-38258750D01*
X48577500Y-90646250D02*
X48577500Y-89376250D01*
X48577500Y-89376250D02*
X47307500Y-88106250D01*
X49847500Y-92983050D02*
X49847500Y-91916250D01*
X49847500Y-91916250D02*
X48577500Y-90646250D01*
X48577500Y-71596250D02*
X48577500Y-70326250D01*
X48577500Y-70326250D02*
X47307500Y-69056250D01*
X49847500Y-73933050D02*
X49847500Y-72866250D01*
X49847500Y-72866250D02*
X48577500Y-71596250D01*
X39052500Y-52546250D02*
X39052500Y-51276250D01*
X40322500Y-54883050D02*
X40322500Y-53816250D01*
X40322500Y-53816250D02*
X39052500Y-52546250D01*
X39052500Y-51276250D02*
X37782500Y-50006250D01*
D23*
X152843500Y-59143900D02*
X152843500Y-59668500D01*
X152843500Y-61168500D02*
X152843500Y-59143900D01*
X152843500Y-59668500D02*
X152843500Y-61168500D01*
D25*
X135287500Y-77581250D02*
X134667500Y-77581250D01*
X134667500Y-77581250D02*
X133667500Y-78581250D01*
X135287500Y-78581250D02*
X133667500Y-78581250D01*
X135287500Y-79581250D02*
X134667500Y-79581250D01*
X134667500Y-79581250D02*
X133667500Y-78581250D01*
X135287500Y-77581250D02*
X135287500Y-79581250D01*
D26*
X132397500Y-81121250D02*
X132397500Y-79851250D01*
X132397500Y-79851250D02*
X133667500Y-78581250D01*
X131127500Y-83458050D02*
X131127500Y-82391250D01*
X131127500Y-82391250D02*
X132397500Y-81121250D01*
D23*
X146632940Y-64118500D02*
X146644360Y-64129920D01*
X144843500Y-64118500D02*
X146632940Y-64118500D01*
D25*
X116237500Y-36718750D02*
X115617500Y-36718750D01*
X115617500Y-36718750D02*
X114617500Y-35718750D01*
X116237500Y-35718750D02*
X114617500Y-35718750D01*
X116237500Y-34718750D02*
X115617500Y-34718750D01*
X115617500Y-34718750D02*
X114617500Y-35718750D01*
X116237500Y-34718750D02*
X116237500Y-36718750D01*
D26*
X113347500Y-38258750D02*
X113347500Y-36988750D01*
X113347500Y-36988750D02*
X114617500Y-35718750D01*
X112077500Y-40595550D02*
X112077500Y-39528750D01*
X112077500Y-39528750D02*
X113347500Y-38258750D01*
D23*
X150643500Y-59668500D02*
X150643500Y-61168500D01*
X150643500Y-59156600D02*
X150643500Y-59668500D01*
D25*
X135287500Y-41481250D02*
X134667500Y-41481250D01*
X134667500Y-41481250D02*
X133667500Y-40481250D01*
X135287500Y-40481250D02*
X133667500Y-40481250D01*
X135287500Y-39481250D02*
X134667500Y-39481250D01*
X134667500Y-39481250D02*
X133667500Y-40481250D01*
X135287500Y-39481250D02*
X135287500Y-41481250D01*
D26*
X132397500Y-43021250D02*
X132397500Y-41751250D01*
X132397500Y-41751250D02*
X133667500Y-40481250D01*
X131127500Y-45358050D02*
X131127500Y-44291250D01*
X131127500Y-44291250D02*
X132397500Y-43021250D01*
D23*
X151743500Y-59156600D02*
X151743500Y-59668500D01*
X151743500Y-59668500D02*
X151743500Y-61168500D01*
D25*
X135287500Y-58531250D02*
X134667500Y-58531250D01*
X134667500Y-58531250D02*
X133667500Y-59531250D01*
X135287500Y-59531250D02*
X133667500Y-59531250D01*
X135287500Y-60531250D02*
X134667500Y-60531250D01*
X134667500Y-60531250D02*
X133667500Y-59531250D01*
X135287500Y-58531250D02*
X135287500Y-60531250D01*
D26*
X132397500Y-62071250D02*
X132397500Y-60801250D01*
X132397500Y-60801250D02*
X133667500Y-59531250D01*
X131127500Y-64408050D02*
X131127500Y-63341250D01*
X131127500Y-63341250D02*
X132397500Y-62071250D01*
D24*
X148443500Y-79168500D02*
X148443500Y-74886000D01*
X151193500Y-72136000D02*
X150316000Y-72136000D01*
X150316000Y-72136000D02*
X149868500Y-71688500D01*
X148443500Y-74886000D02*
X151193500Y-72136000D01*
X149868500Y-71688500D02*
X149868500Y-70863500D01*
D23*
X146652700Y-67418500D02*
X146654520Y-67416680D01*
X144843500Y-67418500D02*
X146652700Y-67418500D01*
D25*
X116237500Y-98631250D02*
X115617500Y-98631250D01*
X115617500Y-98631250D02*
X114617500Y-97631250D01*
X116237500Y-97631250D02*
X114617500Y-97631250D01*
X116237500Y-96631250D02*
X115617500Y-96631250D01*
X115617500Y-96631250D02*
X114617500Y-97631250D01*
X116237500Y-96631250D02*
X116237500Y-98631250D01*
D26*
X113347500Y-100171250D02*
X113347500Y-98901250D01*
X113347500Y-98901250D02*
X114617500Y-97631250D01*
X112077500Y-102508050D02*
X112077500Y-101441250D01*
X112077500Y-101441250D02*
X113347500Y-100171250D01*
D23*
X153943500Y-58353960D02*
X153943500Y-59668500D01*
X153943500Y-59668500D02*
X153943500Y-61168500D01*
X153943500Y-61168500D02*
X153943500Y-58353960D01*
D25*
X135287500Y-98631250D02*
X134667500Y-98631250D01*
X134667500Y-98631250D02*
X133667500Y-97631250D01*
X135287500Y-97631250D02*
X133667500Y-97631250D01*
X135287500Y-96631250D02*
X134667500Y-96631250D01*
X134667500Y-96631250D02*
X133667500Y-97631250D01*
X135287500Y-96631250D02*
X135287500Y-98631250D01*
D26*
X132397500Y-100171250D02*
X132397500Y-98901250D01*
X132397500Y-98901250D02*
X133667500Y-97631250D01*
X131127500Y-102508050D02*
X131127500Y-101441250D01*
X131127500Y-101441250D02*
X132397500Y-100171250D01*
D23*
X159443500Y-59184540D02*
X159443500Y-61168500D01*
D25*
X144812500Y-117681250D02*
X144192500Y-117681250D01*
X144192500Y-117681250D02*
X143192500Y-116681250D01*
X144812500Y-116681250D02*
X143192500Y-116681250D01*
X144812500Y-115681250D02*
X144192500Y-115681250D01*
X144192500Y-115681250D02*
X143192500Y-116681250D01*
X144812500Y-115681250D02*
X144812500Y-117681250D01*
D26*
X141922500Y-119221250D02*
X141922500Y-117951250D01*
X141922500Y-117951250D02*
X143192500Y-116681250D01*
X140652500Y-121558050D02*
X140652500Y-120491250D01*
X140652500Y-120491250D02*
X141922500Y-119221250D01*
D25*
X97187500Y-98631250D02*
X96567500Y-98631250D01*
X96567500Y-98631250D02*
X95567500Y-97631250D01*
X97187500Y-96631250D02*
X96567500Y-96631250D01*
X96567500Y-96631250D02*
X95567500Y-97631250D01*
X97187500Y-97631250D02*
X95567500Y-97631250D01*
X95567500Y-97631250D02*
X96187500Y-97631250D01*
X96187500Y-97631250D02*
X97187500Y-98631250D01*
X97187500Y-96631250D02*
X97187500Y-98631250D01*
D26*
X94297500Y-100171250D02*
X94297500Y-98901250D01*
X94297500Y-98901250D02*
X95567500Y-97631250D01*
X93027500Y-102508050D02*
X93027500Y-101441250D01*
X93027500Y-101441250D02*
X94297500Y-100171250D01*
D23*
X155043500Y-68326000D02*
X155043500Y-74304000D01*
X155043500Y-61168500D02*
X155043500Y-68326000D01*
X155043500Y-74304000D02*
X155028000Y-74319500D01*
X156143500Y-65087500D02*
X156143500Y-65849500D01*
X158813500Y-65849500D02*
X156905500Y-65849500D01*
X156143500Y-61168500D02*
X156143500Y-65087500D01*
X156905500Y-65849500D02*
X156143500Y-65087500D01*
X156143500Y-74316500D02*
X156146500Y-74319500D01*
X156143500Y-65849500D02*
X156143500Y-74316500D01*
D24*
X148209001Y-69913500D02*
X152518500Y-69913500D01*
X152527000Y-69922000D02*
X152518500Y-69913500D01*
X152527000Y-72619500D02*
X152527000Y-69922000D01*
D23*
X158343500Y-59184540D02*
X158343500Y-59668500D01*
X158343500Y-59668500D02*
X158343500Y-61168500D01*
D25*
X163862500Y-115681250D02*
X163242500Y-115681250D01*
X163242500Y-115681250D02*
X162242500Y-116681250D01*
X163862500Y-116681250D02*
X162242500Y-116681250D01*
X163862500Y-117681250D02*
X163242500Y-117681250D01*
X163242500Y-117681250D02*
X162242500Y-116681250D01*
X163862500Y-115681250D02*
X163862500Y-117681250D01*
D26*
X160972500Y-119221250D02*
X160972500Y-117951250D01*
X160972500Y-117951250D02*
X162242500Y-116681250D01*
X159702500Y-121558050D02*
X159702500Y-120491250D01*
X159702500Y-120491250D02*
X160972500Y-119221250D01*
M02*
