M48
INCH,TZ
T1C0.0157
T2C0.0197
T3C0.0354
T4C0.0433
T5C0.0551
T6C0.0670
T7C0.1570
%
G90
G05
T1
X5.77Y-2.957
X5.771Y-2.914
X5.771Y-3.002
X5.772Y-2.7412
X5.7732Y-2.6111
X5.7734Y-2.5248
X5.7734Y-2.5683
X5.7738Y-2.6542
X5.835Y-2.7525
X5.8875Y-3.048
X5.8884Y-2.3287
X5.9308Y-2.329
X5.9525Y-2.84
X5.9742Y-2.329
X5.975Y-3.0425
X6.005Y-2.665
X6.005Y-2.859
X6.0175Y-2.3285
X6.0608Y-2.2974
X6.1035Y-2.926
X6.1041Y-2.69
X6.105Y-3.25
X6.1475Y-2.926
X6.1475Y-3.2075
X6.19Y-3.0275
X6.1907Y-2.3301
X6.234Y-2.3301
X6.235Y-3.0275
X6.2773Y-2.3301
X6.28Y-3.0275
X6.3206Y-2.96
X6.3215Y-2.4979
T2
X6.0763Y-3.8044
X4.7987Y-3.8044
X4.7987Y-3.8438
X4.7987Y-3.8831
X5.3263Y-3.8044
X5.3263Y-3.8438
X5.3263Y-3.8831
X4.0487Y-3.8044
X4.0487Y-3.8438
X4.0487Y-3.8831
X4.5763Y-3.8044
X4.5763Y-3.8438
X3.2987Y-2.7188
X4.5763Y-3.8831
X3.2987Y-2.6794
X4.7987Y-2.3044
X4.7987Y-2.3438
X4.7987Y-2.3831
X5.3263Y-2.3044
X5.3263Y-2.3438
X5.3263Y-2.3831
X6.0763Y-3.8831
X3.2987Y-2.7581
X1.4237Y-1.9294
X4.0487Y-2.1169
X4.0487Y-2.1562
X4.0487Y-2.1956
X4.5763Y-2.1169
X4.5763Y-2.1562
X4.5763Y-2.1956
X2.5487Y-2.8669
X2.5487Y-2.9062
X2.5487Y-2.9456
X3.0763Y-2.8669
X3.0763Y-2.9062
X3.0763Y-2.9456
X6.0763Y-3.8438
X3.8263Y-2.6794
X3.8263Y-2.7188
X3.8263Y-2.7581
X5.1737Y-4.5544
X5.1737Y-4.5938
X5.1737Y-4.6331
X5.7013Y-4.5544
X5.7013Y-4.5938
X5.7013Y-4.6331
X5.5487Y-3.8044
X5.5487Y-3.8438
X5.5487Y-3.8831
X1.4237Y-1.9688
X1.4237Y-2.0081
X1.9513Y-1.9294
X1.9513Y-1.9688
X1.9513Y-2.0081
X4.0487Y-2.8669
X2.5487Y-2.1169
X3.2987Y-1.9688
X2.5487Y-2.1956
X3.2987Y-1.9294
X2.5487Y-2.1562
X2.8888Y-1.4456
X4.0487Y-2.9062
X4.0487Y-2.9456
X4.5763Y-2.8669
X4.5763Y-2.9062
X4.5763Y-2.9456
X3.2987Y-2.0081
X5.3263Y-1.5544
X5.3263Y-1.5938
X5.3263Y-1.6331
X3.2987Y-3.8044
X3.2987Y-3.8438
X2.3612Y-1.4062
X2.8888Y-1.3669
X2.8888Y-1.4062
X3.2987Y-3.8831
X3.0763Y-2.1169
X3.0763Y-2.1562
X3.0763Y-2.1956
X3.8263Y-1.1794
X3.8263Y-1.2188
X3.8263Y-1.2581
X3.8263Y-1.9294
X3.8263Y-1.9688
X3.2987Y-1.1794
X3.2987Y-1.2188
X3.2987Y-1.2581
X3.8263Y-2.0081
X2.3612Y-1.3669
X4.5763Y-1.3669
X4.5763Y-1.4062
X4.5763Y-1.4456
X1.7987Y-2.6794
X1.7987Y-2.7188
X1.7987Y-2.7581
X1.7987Y-3.5081
X4.0487Y-1.3669
X4.0487Y-1.4062
X4.0487Y-1.4456
X4.7987Y-1.5544
X4.7987Y-1.6331
X5.9237Y-4.5544
X5.9237Y-4.5938
X5.9237Y-4.6331
X6.4513Y-4.5544
X6.4513Y-4.5938
X5.3263Y-3.1331
X2.3263Y-2.6794
X2.3263Y-2.7581
X1.7987Y-3.4688
X4.7987Y-3.0938
X4.7987Y-3.1331
X5.3263Y-3.0544
X5.3263Y-3.0938
X2.3263Y-2.7188
X4.7987Y-3.0544
X1.7987Y-3.4294
X3.8263Y-3.8044
X3.8263Y-3.8438
X6.4513Y-4.6331
X2.3263Y-3.4294
X2.3263Y-3.4688
X3.8263Y-3.8831
X2.3263Y-3.5081
X4.7987Y-1.5938
X2.3612Y-1.4456
T3
X6.2525Y-2.5925
X6.2525Y-2.6925
X6.2525Y-2.7925
X6.2525Y-2.8925
T4
X5.1125Y-2.1437
X3.5125Y-2.5187
X3.6125Y-2.5187
X4.3625Y-1.9563
X5.3875Y-4.3937
X5.4875Y-4.3937
X5.7625Y-3.6437
X5.8625Y-3.6437
X5.0125Y-3.6437
X5.1125Y-3.6437
X5.0125Y-1.3938
X3.5125Y-1.0188
X3.6125Y-1.0188
X5.1125Y-1.3938
X3.6125Y-1.7688
X4.2625Y-1.9563
X2.575Y-1.2063
X3.5125Y-1.7688
X5.0125Y-2.8937
X5.0125Y-2.1437
X6.1375Y-4.3937
X6.2375Y-4.3937
X1.6375Y-1.7688
X4.2625Y-3.6437
X4.3625Y-3.6437
X2.7625Y-2.7062
X2.8625Y-2.7062
X2.7625Y-1.9563
X2.8625Y-1.9563
X3.6125Y-3.6437
X5.1125Y-2.8937
X2.0125Y-2.5187
X2.0125Y-3.2687
X2.1125Y-3.2687
X1.7375Y-1.7688
X3.5125Y-3.6437
X6.15Y-1.1644
X6.15Y-2.0856
X4.2625Y-1.2063
X4.3625Y-1.2063
X2.675Y-1.2063
X2.1125Y-2.5187
X4.2625Y-2.7062
X4.3625Y-2.7062
T5
X1.9125Y-3.5688
X1.9625Y-3.6607
X2.2125Y-3.5688
X4.1625Y-3.9438
X5.2875Y-4.6937
X5.3375Y-4.7858
X4.9125Y-3.9438
X4.9625Y-4.0358
X5.1625Y-4.0358
X5.2125Y-3.9438
X4.4125Y-4.0358
X5.5375Y-4.7858
X4.2125Y-4.0358
X5.9625Y-3.9438
X1.7875Y-2.1608
X5.6625Y-3.9438
X5.7125Y-4.0358
X5.9125Y-4.0358
X1.5375Y-2.0688
X1.5875Y-2.1608
X1.8375Y-2.0688
X6.2875Y-4.7858
X2.6625Y-3.0063
X2.7125Y-3.0982
X2.9125Y-3.0982
X2.9625Y-3.0063
X3.4125Y-2.8188
X3.4625Y-2.9107
X3.6625Y-2.9107
X3.7125Y-2.8188
X6.0375Y-4.6937
X6.0875Y-4.7858
X6.3375Y-4.6937
X5.5875Y-4.6937
X2.1625Y-3.6607
X4.4625Y-3.9438
X4.9125Y-1.6937
X4.9625Y-1.7857
X5.1625Y-1.7857
X4.4625Y-1.5062
X4.1625Y-3.0063
X4.2125Y-3.0982
X4.4125Y-3.0982
X4.4625Y-3.0063
X2.6625Y-2.2563
X2.7125Y-2.3482
X2.9125Y-2.3482
X2.475Y-1.5062
X2.525Y-1.5982
X2.725Y-1.5982
X2.775Y-1.5062
X2.9625Y-2.2563
X3.4125Y-2.0688
X3.4625Y-2.1608
X3.6625Y-2.1608
X3.7125Y-2.0688
X1.9125Y-2.8188
X1.9625Y-2.9107
X2.1625Y-2.9107
X3.4125Y-1.3187
X3.4625Y-1.4107
X3.6625Y-1.4107
X2.2125Y-2.8188
X3.4125Y-3.9438
X3.4625Y-4.0358
X3.6625Y-4.0358
X3.7125Y-3.9438
X4.9625Y-2.5357
X5.2125Y-2.4438
X5.2125Y-1.6937
X4.1625Y-1.5062
X4.9125Y-3.1938
X4.9625Y-3.2857
X5.1625Y-3.2857
X5.2125Y-3.1938
X3.7125Y-1.3187
X4.2125Y-1.5982
X4.4125Y-1.5982
X4.9125Y-2.4438
X5.1625Y-2.5357
X4.1625Y-2.2563
X4.2125Y-2.3482
X4.4125Y-2.3482
X4.4625Y-2.2563
T6
X5.2625Y-2.3438
X5.9875Y-4.5938
X6.3875Y-4.5938
X4.1125Y-3.8438
X3.0125Y-2.1562
X1.8625Y-3.4688
X2.2625Y-3.4688
X1.8875Y-1.9688
X4.5125Y-3.8438
X3.3625Y-2.7188
X3.7625Y-2.7188
X2.6125Y-2.1562
X4.8625Y-1.5938
X4.1125Y-2.1562
X4.5125Y-2.1562
X2.6125Y-2.9062
X3.0125Y-2.9062
X1.4875Y-1.9688
X5.2625Y-3.8438
X6.0125Y-3.8438
X5.2625Y-1.5938
X4.8625Y-2.3438
X5.6125Y-3.8438
X4.8625Y-3.8438
X5.2625Y-3.0938
X2.825Y-1.4062
X2.2625Y-2.7188
X2.425Y-1.4062
X3.3625Y-3.8438
X3.7625Y-3.8438
X5.2375Y-4.5938
X5.6375Y-4.5938
X1.8625Y-2.7188
X3.7625Y-1.2188
X4.5125Y-2.9062
X3.3625Y-1.2188
X4.1125Y-1.4062
X3.7625Y-1.9688
X4.1125Y-2.9062
X3.3625Y-1.9688
X4.8625Y-3.0938
X4.5125Y-1.4062
T7
X1.6875Y-1.9688
X4.3125Y-3.8438
X3.5625Y-2.7188
X3.5625Y-1.2188
X5.0625Y-3.0938
X2.0625Y-2.7188
X4.3125Y-1.4062
X2.8125Y-2.1562
X2.8125Y-2.9062
X5.0625Y-1.5938
X4.3125Y-2.1562
X5.0625Y-2.3438
X6.1875Y-4.5938
X5.4375Y-4.5938
X2.0625Y-3.4688
X5.8125Y-3.8438
X5.0625Y-3.8438
X2.625Y-1.4062
X3.5625Y-1.9688
X4.3125Y-2.9062
X3.5625Y-3.8438
T0
M30
