G04 #@! TF.GenerationSoftware,KiCad,Pcbnew,(5.0.0-rc2-dev-301-g33f795be4)*
G04 #@! TF.CreationDate,2018-03-30T23:59:37+02:00*
G04 #@! TF.ProjectId,kissboard,6B697373626F6172642E6B696361645F,rev?*
G04 #@! TF.SameCoordinates,Original*
G04 #@! TF.FileFunction,Copper,L1,Top,Signal*
G04 #@! TF.FilePolarity,Positive*
%FSLAX46Y46*%
G04 Gerber Fmt 4.6, Leading zero omitted, Abs format (unit mm)*
G04 Created by KiCad (PCBNEW (5.0.0-rc2-dev-301-g33f795be4)) date 03/30/18 23:59:37*
%MOMM*%
%LPD*%
G01*
G04 APERTURE LIST*
%ADD10C,1.000000*%
%ADD11O,2.500000X1.800000*%
%ADD12C,2.500000*%
%ADD13C,2.000000*%
%ADD14C,4.300000*%
%ADD15C,1.600000*%
%ADD16C,1.500000*%
%ADD17R,1.500000X1.500000*%
%ADD18O,15.000000X8.500000*%
%ADD19O,0.650000X1.550000*%
%ADD20R,0.800000X2.500000*%
%ADD21R,2.500000X0.800000*%
%ADD22C,0.800000*%
%ADD23C,0.250000*%
%ADD24C,1.270000*%
%ADD25C,2.540000*%
%ADD26C,0.500000*%
G04 APERTURE END LIST*
D10*
X150462500Y-115681250D03*
X150462500Y-117681250D03*
X150462500Y-116681250D03*
D11*
X159702500Y-121558050D03*
D12*
X153352500Y-119221250D03*
D11*
X154622500Y-121558050D03*
D12*
X160972500Y-119221250D03*
D13*
X152082500Y-116681250D03*
X162242500Y-116681250D03*
D14*
X157162500Y-116681250D03*
D10*
X163862500Y-116681250D03*
X163862500Y-115681250D03*
X163862500Y-117681250D03*
D15*
X158432500Y-111601250D03*
X155892500Y-111601250D03*
D16*
X89535000Y-117729000D03*
X86995000Y-117729000D03*
X84455000Y-117729000D03*
D17*
X81915000Y-117729000D03*
D13*
X47228000Y-115189000D03*
X70628000Y-115189000D03*
D18*
X58928000Y-115189000D03*
D10*
X45687500Y-77581250D03*
X45687500Y-79581250D03*
X45687500Y-78581250D03*
D11*
X54927500Y-83458050D03*
D12*
X48577500Y-81121250D03*
D11*
X49847500Y-83458050D03*
D12*
X56197500Y-81121250D03*
D13*
X47307500Y-78581250D03*
X57467500Y-78581250D03*
D14*
X52387500Y-78581250D03*
D10*
X59087500Y-78581250D03*
X59087500Y-77581250D03*
X59087500Y-79581250D03*
D15*
X53657500Y-73501250D03*
X51117500Y-73501250D03*
X65405000Y-30638750D03*
X67945000Y-30638750D03*
D10*
X73375000Y-36718750D03*
X73375000Y-34718750D03*
X73375000Y-35718750D03*
D14*
X66675000Y-35718750D03*
D13*
X71755000Y-35718750D03*
X61595000Y-35718750D03*
D12*
X70485000Y-38258750D03*
D11*
X64135000Y-40595550D03*
D12*
X62865000Y-38258750D03*
D11*
X69215000Y-40595550D03*
D10*
X59975000Y-35718750D03*
X59975000Y-36718750D03*
X59975000Y-34718750D03*
X83787500Y-29956250D03*
X83787500Y-31956250D03*
X83787500Y-30956250D03*
D11*
X93027500Y-35833050D03*
D12*
X86677500Y-33496250D03*
D11*
X87947500Y-35833050D03*
D12*
X94297500Y-33496250D03*
D13*
X85407500Y-30956250D03*
X95567500Y-30956250D03*
D14*
X90487500Y-30956250D03*
D10*
X97187500Y-30956250D03*
X97187500Y-29956250D03*
X97187500Y-31956250D03*
D15*
X91757500Y-25876250D03*
X89217500Y-25876250D03*
X108267500Y-30638750D03*
X110807500Y-30638750D03*
D10*
X116237500Y-36718750D03*
X116237500Y-34718750D03*
X116237500Y-35718750D03*
D14*
X109537500Y-35718750D03*
D13*
X114617500Y-35718750D03*
X104457500Y-35718750D03*
D12*
X113347500Y-38258750D03*
D11*
X106997500Y-40595550D03*
D12*
X105727500Y-38258750D03*
D11*
X112077500Y-40595550D03*
D10*
X102837500Y-35718750D03*
X102837500Y-36718750D03*
X102837500Y-34718750D03*
X121887500Y-39481250D03*
X121887500Y-41481250D03*
X121887500Y-40481250D03*
D11*
X131127500Y-45358050D03*
D12*
X124777500Y-43021250D03*
D11*
X126047500Y-45358050D03*
D12*
X132397500Y-43021250D03*
D13*
X123507500Y-40481250D03*
X133667500Y-40481250D03*
D14*
X128587500Y-40481250D03*
D10*
X135287500Y-40481250D03*
X135287500Y-39481250D03*
X135287500Y-41481250D03*
D15*
X129857500Y-35401250D03*
X127317500Y-35401250D03*
X51117500Y-54451250D03*
X53657500Y-54451250D03*
D10*
X59087500Y-60531250D03*
X59087500Y-58531250D03*
X59087500Y-59531250D03*
D14*
X52387500Y-59531250D03*
D13*
X57467500Y-59531250D03*
X47307500Y-59531250D03*
D12*
X56197500Y-62071250D03*
D11*
X49847500Y-64408050D03*
D12*
X48577500Y-62071250D03*
D11*
X54927500Y-64408050D03*
D10*
X45687500Y-59531250D03*
X45687500Y-60531250D03*
X45687500Y-58531250D03*
X64737500Y-53768750D03*
X64737500Y-55768750D03*
X64737500Y-54768750D03*
D11*
X73977500Y-59645550D03*
D12*
X67627500Y-57308750D03*
D11*
X68897500Y-59645550D03*
D12*
X75247500Y-57308750D03*
D13*
X66357500Y-54768750D03*
X76517500Y-54768750D03*
D14*
X71437500Y-54768750D03*
D10*
X78137500Y-54768750D03*
X78137500Y-53768750D03*
X78137500Y-55768750D03*
D15*
X72707500Y-49688750D03*
X70167500Y-49688750D03*
X89217500Y-44926250D03*
X91757500Y-44926250D03*
D10*
X97187500Y-51006250D03*
X97187500Y-49006250D03*
X97187500Y-50006250D03*
D14*
X90487500Y-50006250D03*
D13*
X95567500Y-50006250D03*
X85407500Y-50006250D03*
D12*
X94297500Y-52546250D03*
D11*
X87947500Y-54883050D03*
D12*
X86677500Y-52546250D03*
D11*
X93027500Y-54883050D03*
D10*
X83787500Y-50006250D03*
X83787500Y-51006250D03*
X83787500Y-49006250D03*
X102837500Y-53768750D03*
X102837500Y-55768750D03*
X102837500Y-54768750D03*
D11*
X112077500Y-59645550D03*
D12*
X105727500Y-57308750D03*
D11*
X106997500Y-59645550D03*
D12*
X113347500Y-57308750D03*
D13*
X104457500Y-54768750D03*
X114617500Y-54768750D03*
D14*
X109537500Y-54768750D03*
D10*
X116237500Y-54768750D03*
X116237500Y-53768750D03*
X116237500Y-55768750D03*
D15*
X110807500Y-49688750D03*
X108267500Y-49688750D03*
X127317500Y-54451250D03*
X129857500Y-54451250D03*
D10*
X135287500Y-60531250D03*
X135287500Y-58531250D03*
X135287500Y-59531250D03*
D14*
X128587500Y-59531250D03*
D13*
X133667500Y-59531250D03*
X123507500Y-59531250D03*
D12*
X132397500Y-62071250D03*
D11*
X126047500Y-64408050D03*
D12*
X124777500Y-62071250D03*
D11*
X131127500Y-64408050D03*
D10*
X121887500Y-59531250D03*
X121887500Y-60531250D03*
X121887500Y-58531250D03*
X102837500Y-72818750D03*
X102837500Y-74818750D03*
X102837500Y-73818750D03*
D11*
X112077500Y-78695550D03*
D12*
X105727500Y-76358750D03*
D11*
X106997500Y-78695550D03*
D12*
X113347500Y-76358750D03*
D13*
X104457500Y-73818750D03*
X114617500Y-73818750D03*
D14*
X109537500Y-73818750D03*
D10*
X116237500Y-73818750D03*
X116237500Y-72818750D03*
X116237500Y-74818750D03*
D15*
X110807500Y-68738750D03*
X108267500Y-68738750D03*
X127317500Y-73501250D03*
X129857500Y-73501250D03*
D10*
X135287500Y-79581250D03*
X135287500Y-77581250D03*
X135287500Y-78581250D03*
D14*
X128587500Y-78581250D03*
D13*
X133667500Y-78581250D03*
X123507500Y-78581250D03*
D12*
X132397500Y-81121250D03*
D11*
X126047500Y-83458050D03*
D12*
X124777500Y-81121250D03*
D11*
X131127500Y-83458050D03*
D10*
X121887500Y-78581250D03*
X121887500Y-79581250D03*
X121887500Y-77581250D03*
X83787500Y-87106250D03*
X83787500Y-89106250D03*
X83787500Y-88106250D03*
D11*
X93027500Y-92983050D03*
D12*
X86677500Y-90646250D03*
D11*
X87947500Y-92983050D03*
D12*
X94297500Y-90646250D03*
D13*
X85407500Y-88106250D03*
X95567500Y-88106250D03*
D14*
X90487500Y-88106250D03*
D10*
X97187500Y-88106250D03*
X97187500Y-87106250D03*
X97187500Y-89106250D03*
D15*
X91757500Y-83026250D03*
X89217500Y-83026250D03*
X108267500Y-87788750D03*
X110807500Y-87788750D03*
D10*
X116237500Y-93868750D03*
X116237500Y-91868750D03*
X116237500Y-92868750D03*
D14*
X109537500Y-92868750D03*
D13*
X114617500Y-92868750D03*
X104457500Y-92868750D03*
D12*
X113347500Y-95408750D03*
D11*
X106997500Y-97745550D03*
D12*
X105727500Y-95408750D03*
D11*
X112077500Y-97745550D03*
D10*
X102837500Y-92868750D03*
X102837500Y-93868750D03*
X102837500Y-91868750D03*
X121887500Y-96631250D03*
X121887500Y-98631250D03*
X121887500Y-97631250D03*
D11*
X131127500Y-102508050D03*
D12*
X124777500Y-100171250D03*
D11*
X126047500Y-102508050D03*
D12*
X132397500Y-100171250D03*
D13*
X123507500Y-97631250D03*
X133667500Y-97631250D03*
D14*
X128587500Y-97631250D03*
D10*
X135287500Y-97631250D03*
X135287500Y-96631250D03*
X135287500Y-98631250D03*
D15*
X129857500Y-92551250D03*
X127317500Y-92551250D03*
X146367500Y-92551250D03*
X148907500Y-92551250D03*
D10*
X154337500Y-98631250D03*
X154337500Y-96631250D03*
X154337500Y-97631250D03*
D14*
X147637500Y-97631250D03*
D13*
X152717500Y-97631250D03*
X142557500Y-97631250D03*
D12*
X151447500Y-100171250D03*
D11*
X145097500Y-102508050D03*
D12*
X143827500Y-100171250D03*
D11*
X150177500Y-102508050D03*
D10*
X140937500Y-97631250D03*
X140937500Y-98631250D03*
X140937500Y-96631250D03*
X131412500Y-115681250D03*
X131412500Y-117681250D03*
X131412500Y-116681250D03*
D11*
X140652500Y-121558050D03*
D12*
X134302500Y-119221250D03*
D11*
X135572500Y-121558050D03*
D12*
X141922500Y-119221250D03*
D13*
X133032500Y-116681250D03*
X143192500Y-116681250D03*
D14*
X138112500Y-116681250D03*
D10*
X144812500Y-116681250D03*
X144812500Y-115681250D03*
X144812500Y-117681250D03*
D15*
X139382500Y-111601250D03*
X136842500Y-111601250D03*
X89217500Y-63976250D03*
X91757500Y-63976250D03*
D10*
X97187500Y-70056250D03*
X97187500Y-68056250D03*
X97187500Y-69056250D03*
D14*
X90487500Y-69056250D03*
D13*
X95567500Y-69056250D03*
X85407500Y-69056250D03*
D12*
X94297500Y-71596250D03*
D11*
X87947500Y-73933050D03*
D12*
X86677500Y-71596250D03*
D11*
X93027500Y-73933050D03*
D10*
X83787500Y-69056250D03*
X83787500Y-70056250D03*
X83787500Y-68056250D03*
X64737500Y-72818750D03*
X64737500Y-74818750D03*
X64737500Y-73818750D03*
D11*
X73977500Y-78695550D03*
D12*
X67627500Y-76358750D03*
D11*
X68897500Y-78695550D03*
D12*
X75247500Y-76358750D03*
D13*
X66357500Y-73818750D03*
X76517500Y-73818750D03*
D14*
X71437500Y-73818750D03*
D10*
X78137500Y-73818750D03*
X78137500Y-72818750D03*
X78137500Y-74818750D03*
D15*
X72707500Y-68738750D03*
X70167500Y-68738750D03*
D19*
X84521000Y-111434000D03*
X86421000Y-111434000D03*
X85471000Y-108784000D03*
D15*
X41592500Y-35401250D03*
X44132500Y-35401250D03*
D10*
X49562500Y-41481250D03*
X49562500Y-39481250D03*
X49562500Y-40481250D03*
D14*
X42862500Y-40481250D03*
D13*
X47942500Y-40481250D03*
X37782500Y-40481250D03*
D12*
X46672500Y-43021250D03*
D11*
X40322500Y-45358050D03*
D12*
X39052500Y-43021250D03*
D11*
X45402500Y-45358050D03*
D10*
X36162500Y-40481250D03*
X36162500Y-41481250D03*
X36162500Y-39481250D03*
D20*
X91267000Y-103781000D03*
X90167000Y-103781000D03*
X89067000Y-103781000D03*
X87967000Y-103781000D03*
X86867000Y-103781000D03*
X85767000Y-103781000D03*
X84667000Y-103781000D03*
X83567000Y-103781000D03*
X82467000Y-103781000D03*
X81367000Y-103781000D03*
X80267000Y-103781000D03*
X79167000Y-103781000D03*
D21*
X94217000Y-119481000D03*
X94217000Y-118381000D03*
X94217000Y-117281000D03*
X94217000Y-116181000D03*
X94217000Y-115081000D03*
X94217000Y-113981000D03*
X94217000Y-112881000D03*
X94217000Y-111781000D03*
X94217000Y-110681000D03*
X94217000Y-109581000D03*
X94217000Y-108481000D03*
X94217000Y-107381000D03*
X76217000Y-107381000D03*
X76217000Y-108481000D03*
X76217000Y-109581000D03*
X76217000Y-110681000D03*
X76217000Y-111781000D03*
X76217000Y-112881000D03*
X76217000Y-113981000D03*
X76217000Y-115081000D03*
X76217000Y-116181000D03*
X76217000Y-117281000D03*
X76217000Y-118381000D03*
X76217000Y-119481000D03*
D22*
X86870540Y-105524300D03*
X89062560Y-105554780D03*
X90149680Y-105559860D03*
X85758020Y-105524300D03*
X84669996Y-105512500D03*
X81363820Y-105512500D03*
X80266540Y-105512500D03*
X79161640Y-105512500D03*
X78486000Y-116141500D03*
X78486000Y-117284500D03*
X78486000Y-118427500D03*
X96199960Y-116159000D03*
X91937240Y-119481000D03*
X96235520Y-108481000D03*
X77966000Y-108459000D03*
X80200500Y-119459000D03*
X87693500Y-111442500D03*
X96240600Y-111759000D03*
X91254580Y-105559860D03*
X96227900Y-109559000D03*
X96227900Y-110659000D03*
X83248500Y-110109000D03*
X87967820Y-105570020D03*
X97030540Y-112859000D03*
X96199960Y-118359000D03*
X83550760Y-105512500D03*
X87058500Y-113959000D03*
X81065000Y-113943500D03*
X81065000Y-115062000D03*
X82765000Y-111442500D03*
X85471000Y-107124501D03*
X96199960Y-117259000D03*
D23*
X86870540Y-105524300D02*
X86870540Y-103784540D01*
X86870540Y-103784540D02*
X86867000Y-103781000D01*
D24*
X97187500Y-31956250D02*
X96567500Y-31956250D01*
X96567500Y-31956250D02*
X95567500Y-30956250D01*
X97187500Y-30956250D02*
X95567500Y-30956250D01*
X97187500Y-29956250D02*
X96567500Y-29956250D01*
X96567500Y-29956250D02*
X95567500Y-30956250D01*
X95567500Y-30956250D02*
X96187500Y-30956250D01*
X96187500Y-30956250D02*
X97187500Y-31956250D01*
X97187500Y-29956250D02*
X97187500Y-31956250D01*
D25*
X93027500Y-35833050D02*
X93027500Y-34766250D01*
X93027500Y-34766250D02*
X94297500Y-33496250D01*
X94297500Y-32226250D02*
X95567500Y-30956250D01*
X94297500Y-33496250D02*
X94297500Y-32226250D01*
D23*
X89062560Y-105554780D02*
X89062560Y-103785440D01*
X89062560Y-103785440D02*
X89067000Y-103781000D01*
D24*
X116237500Y-72818750D02*
X115617500Y-72818750D01*
X115617500Y-72818750D02*
X114617500Y-73818750D01*
X116237500Y-73818750D02*
X114617500Y-73818750D01*
X116237500Y-74818750D02*
X115617500Y-74818750D01*
X115617500Y-74818750D02*
X114617500Y-73818750D01*
X116237500Y-72818750D02*
X116237500Y-74818750D01*
D25*
X113347500Y-76358750D02*
X113347500Y-75088750D01*
X113347500Y-75088750D02*
X114617500Y-73818750D01*
X112077500Y-78695550D02*
X112077500Y-77628750D01*
X112077500Y-77628750D02*
X113347500Y-76358750D01*
D23*
X90167000Y-103781000D02*
X90167000Y-105542540D01*
X90167000Y-105542540D02*
X90149680Y-105559860D01*
D24*
X116237500Y-53768750D02*
X115617500Y-53768750D01*
X115617500Y-53768750D02*
X114617500Y-54768750D01*
X116237500Y-55768750D02*
X115617500Y-55768750D01*
X115617500Y-55768750D02*
X114617500Y-54768750D01*
X114617500Y-54768750D02*
X116237500Y-54768750D01*
X116237500Y-53768750D02*
X116237500Y-55768750D01*
D25*
X113347500Y-57308750D02*
X113347500Y-56038750D01*
X113347500Y-56038750D02*
X114617500Y-54768750D01*
X112077500Y-59645550D02*
X112077500Y-58578750D01*
X112077500Y-58578750D02*
X113347500Y-57308750D01*
D23*
X85767000Y-103781000D02*
X85767000Y-105515320D01*
X85767000Y-105515320D02*
X85758020Y-105524300D01*
D24*
X97187500Y-49006250D02*
X96567500Y-49006250D01*
X96567500Y-49006250D02*
X95567500Y-50006250D01*
X97187500Y-50006250D02*
X95567500Y-50006250D01*
X97187500Y-51006250D02*
X96567500Y-51006250D01*
X96567500Y-51006250D02*
X95567500Y-50006250D01*
X97187500Y-49006250D02*
X97187500Y-51006250D01*
D25*
X93027500Y-53816250D02*
X94297500Y-52546250D01*
X93027500Y-54883050D02*
X93027500Y-53816250D01*
X94297500Y-52546250D02*
X94297500Y-51276250D01*
X94297500Y-51276250D02*
X95567500Y-50006250D01*
D23*
X84669996Y-105512500D02*
X84669996Y-103783996D01*
X84669996Y-103783996D02*
X84667000Y-103781000D01*
D24*
X97187500Y-70056250D02*
X96567500Y-70056250D01*
X96567500Y-70056250D02*
X95567500Y-69056250D01*
X97187500Y-69056250D02*
X95567500Y-69056250D01*
X97187500Y-69215000D02*
X97187500Y-70056250D01*
X97187500Y-68056250D02*
X97187500Y-69215000D01*
X97187500Y-69056250D02*
X97187500Y-69215000D01*
X97187500Y-68056250D02*
X96567500Y-68056250D01*
X96567500Y-68056250D02*
X95567500Y-69056250D01*
D25*
X93027500Y-72866250D02*
X94297500Y-71596250D01*
X93027500Y-73933050D02*
X93027500Y-72866250D01*
X94297500Y-71596250D02*
X94297500Y-70326250D01*
X94297500Y-70326250D02*
X95567500Y-69056250D01*
D23*
X81363820Y-105512500D02*
X81363820Y-103784180D01*
X81363820Y-103784180D02*
X81367000Y-103781000D01*
D25*
X69215000Y-40595550D02*
X69215000Y-39528750D01*
X69215000Y-39528750D02*
X70485000Y-38258750D01*
X70485000Y-36988750D02*
X71755000Y-35718750D01*
X70485000Y-38258750D02*
X70485000Y-36988750D01*
D24*
X73375000Y-36718750D02*
X72755000Y-36718750D01*
X72755000Y-36718750D02*
X71755000Y-35718750D01*
X73375000Y-35718750D02*
X71755000Y-35718750D01*
X73375000Y-34718750D02*
X72755000Y-34718750D01*
X72755000Y-34718750D02*
X71755000Y-35718750D01*
D23*
X80266540Y-105512500D02*
X80266540Y-103781460D01*
X80266540Y-103781460D02*
X80267000Y-103781000D01*
D24*
X78137500Y-53768750D02*
X77517500Y-53768750D01*
X77517500Y-53768750D02*
X76517500Y-54768750D01*
X78137500Y-54768750D02*
X76517500Y-54768750D01*
X78137500Y-55768750D02*
X77517500Y-55768750D01*
X77517500Y-55768750D02*
X76517500Y-54768750D01*
X78137500Y-53768750D02*
X78137500Y-55768750D01*
D25*
X73977500Y-58578750D02*
X75247500Y-57308750D01*
X73977500Y-59645550D02*
X73977500Y-58578750D01*
X75247500Y-57308750D02*
X75247500Y-56038750D01*
X75247500Y-56038750D02*
X76517500Y-54768750D01*
D23*
X79161640Y-105512500D02*
X79161640Y-103786360D01*
X79161640Y-103786360D02*
X79167000Y-103781000D01*
D24*
X78137500Y-72818750D02*
X77517500Y-72818750D01*
X77517500Y-72818750D02*
X76517500Y-73818750D01*
X78137500Y-73818750D02*
X76517500Y-73818750D01*
X78137500Y-74818750D02*
X77517500Y-74818750D01*
X77517500Y-74818750D02*
X76517500Y-73818750D01*
X78137500Y-72818750D02*
X78137500Y-74818750D01*
D25*
X73977500Y-78695550D02*
X73977500Y-77628750D01*
X73977500Y-77628750D02*
X75247500Y-76358750D01*
X75247500Y-75088750D02*
X76517500Y-73818750D01*
X75247500Y-76358750D02*
X75247500Y-75088750D01*
D23*
X76217000Y-116181000D02*
X78446500Y-116181000D01*
X78446500Y-116181000D02*
X78486000Y-116141500D01*
D25*
X45402500Y-45358050D02*
X45402500Y-44291250D01*
X45402500Y-44291250D02*
X46672500Y-43021250D01*
X46672500Y-41751250D02*
X47942500Y-40481250D01*
X46672500Y-43021250D02*
X46672500Y-41751250D01*
D24*
X49562500Y-41481250D02*
X48942500Y-41481250D01*
X48942500Y-41481250D02*
X47942500Y-40481250D01*
X49562500Y-39481250D02*
X48942500Y-39481250D01*
X48942500Y-39481250D02*
X47942500Y-40481250D01*
X49562500Y-40481250D02*
X47942500Y-40481250D01*
X49562500Y-39481250D02*
X49562500Y-41481250D01*
D23*
X76217000Y-117281000D02*
X78482500Y-117281000D01*
X78482500Y-117281000D02*
X78486000Y-117284500D01*
D24*
X59087500Y-58531250D02*
X58467500Y-58531250D01*
X58467500Y-58531250D02*
X57467500Y-59531250D01*
X59087500Y-59531250D02*
X57467500Y-59531250D01*
X59087500Y-60531250D02*
X58467500Y-60531250D01*
X58467500Y-60531250D02*
X57467500Y-59531250D01*
X59087500Y-58531250D02*
X59087500Y-60531250D01*
D25*
X54927500Y-63341250D02*
X56197500Y-62071250D01*
X54927500Y-64408050D02*
X54927500Y-63341250D01*
X56197500Y-62071250D02*
X56197500Y-60801250D01*
X56197500Y-60801250D02*
X57467500Y-59531250D01*
D23*
X76217000Y-118381000D02*
X78439500Y-118381000D01*
X78439500Y-118381000D02*
X78486000Y-118427500D01*
D24*
X59087500Y-79581250D02*
X58467500Y-79581250D01*
X58467500Y-79581250D02*
X57467500Y-78581250D01*
X59087500Y-77581250D02*
X58467500Y-77581250D01*
X58467500Y-77581250D02*
X57467500Y-78581250D01*
X59087500Y-78581250D02*
X57467500Y-78581250D01*
X59087500Y-77581250D02*
X59087500Y-79581250D01*
D25*
X54927500Y-82391250D02*
X56197500Y-81121250D01*
X54927500Y-83458050D02*
X54927500Y-82391250D01*
X56197500Y-79851250D02*
X57467500Y-78581250D01*
X56197500Y-81121250D02*
X56197500Y-79851250D01*
D23*
X94217000Y-116181000D02*
X96177960Y-116181000D01*
X96177960Y-116181000D02*
X96199960Y-116159000D01*
D24*
X154337500Y-98631250D02*
X153717500Y-98631250D01*
X153717500Y-98631250D02*
X152717500Y-97631250D01*
X154337500Y-97631250D02*
X152717500Y-97631250D01*
X154337500Y-96631250D02*
X153717500Y-96631250D01*
X153717500Y-96631250D02*
X152717500Y-97631250D01*
X154337500Y-96631250D02*
X154337500Y-98631250D01*
D25*
X151447500Y-100171250D02*
X151447500Y-98901250D01*
X151447500Y-98901250D02*
X152717500Y-97631250D01*
X150177500Y-102508050D02*
X150177500Y-101441250D01*
X150177500Y-101441250D02*
X151447500Y-100171250D01*
D23*
X101421084Y-97218500D02*
X101421084Y-107644084D01*
X101421084Y-94578060D02*
X101421084Y-97218500D01*
X83820000Y-97155000D02*
X101357584Y-97155000D01*
X101357584Y-97155000D02*
X101421084Y-97218500D01*
X101473000Y-107696000D02*
X100688000Y-108481000D01*
X101854000Y-107315000D02*
X101473000Y-107696000D01*
X102837500Y-93868750D02*
X102130394Y-93868750D01*
X102130394Y-93868750D02*
X101421084Y-94578060D01*
X101421084Y-107644084D02*
X101473000Y-107696000D01*
X83820000Y-97155000D02*
X82677000Y-96012000D01*
X82677000Y-96012000D02*
X82677000Y-89106250D01*
X63627000Y-46672500D02*
X63627000Y-52658250D01*
X61658500Y-44704000D02*
X63627000Y-46672500D01*
X59817000Y-44704000D02*
X61658500Y-44704000D01*
X58928000Y-43815000D02*
X59817000Y-44704000D01*
X59975000Y-36718750D02*
X58928000Y-37765750D01*
X58928000Y-37765750D02*
X58928000Y-43815000D01*
X63627000Y-52658250D02*
X64737500Y-53768750D01*
X43434000Y-48133000D02*
X44704000Y-49403000D01*
X35687000Y-48133000D02*
X43434000Y-48133000D01*
X35115500Y-47561500D02*
X35687000Y-48133000D01*
X35115500Y-41821144D02*
X35115500Y-47561500D01*
X36162500Y-41481250D02*
X35455394Y-41481250D01*
X35455394Y-41481250D02*
X35115500Y-41821144D01*
X44704000Y-57547750D02*
X45687500Y-58531250D01*
X44704000Y-49403000D02*
X44704000Y-57547750D01*
D26*
X90995500Y-118539260D02*
X91937240Y-119481000D01*
X90995500Y-111442500D02*
X90995500Y-118539260D01*
X91937240Y-119481000D02*
X94217000Y-119481000D01*
D23*
X96235520Y-108481000D02*
X94217000Y-108481000D01*
X100688000Y-108481000D02*
X96235520Y-108481000D01*
X120777000Y-107315000D02*
X101854000Y-107315000D01*
X130302000Y-107315000D02*
X120777000Y-107315000D01*
X121887500Y-98631250D02*
X121180394Y-98631250D01*
X121180394Y-98631250D02*
X120777000Y-99034644D01*
X120777000Y-99034644D02*
X120777000Y-107315000D01*
X101727000Y-56172144D02*
X101727000Y-71708250D01*
X101727000Y-71708250D02*
X102837500Y-72818750D01*
X102837500Y-55768750D02*
X102130394Y-55768750D01*
X102130394Y-55768750D02*
X101727000Y-56172144D01*
X82677000Y-89106250D02*
X83787500Y-89106250D01*
X63627000Y-89106250D02*
X82677000Y-89106250D01*
X47704250Y-89106250D02*
X63627000Y-89106250D01*
X63627000Y-75222144D02*
X63627000Y-89106250D01*
X64737500Y-74818750D02*
X64030394Y-74818750D01*
X64030394Y-74818750D02*
X63627000Y-75222144D01*
X44980394Y-79581250D02*
X44704000Y-79857644D01*
X45687500Y-79581250D02*
X44980394Y-79581250D01*
X44704000Y-79857644D02*
X44704000Y-86106000D01*
X44704000Y-86106000D02*
X47704250Y-89106250D01*
X44704000Y-60807644D02*
X44704000Y-76597750D01*
X44704000Y-76597750D02*
X45687500Y-77581250D01*
X45687500Y-60531250D02*
X44980394Y-60531250D01*
X44980394Y-60531250D02*
X44704000Y-60807644D01*
X139827000Y-107315000D02*
X130302000Y-107315000D01*
X148717000Y-107315000D02*
X139827000Y-107315000D01*
X140937500Y-98631250D02*
X140230394Y-98631250D01*
X140230394Y-98631250D02*
X139827000Y-99034644D01*
X139827000Y-99034644D02*
X139827000Y-107315000D01*
X131412500Y-115681250D02*
X130705394Y-115681250D01*
X130705394Y-115681250D02*
X130302000Y-115277856D01*
X130302000Y-115277856D02*
X130302000Y-107315000D01*
X149352000Y-107950000D02*
X148717000Y-107315000D01*
X149352000Y-115277856D02*
X149352000Y-107950000D01*
X150462500Y-115681250D02*
X149755394Y-115681250D01*
X149755394Y-115681250D02*
X149352000Y-115277856D01*
X120777000Y-79984644D02*
X120777000Y-95520750D01*
X120777000Y-95520750D02*
X121887500Y-96631250D01*
X121887500Y-79581250D02*
X121180394Y-79581250D01*
X121180394Y-79581250D02*
X120777000Y-79984644D01*
X120777000Y-60934644D02*
X120777000Y-76470750D01*
X120777000Y-76470750D02*
X121887500Y-77581250D01*
X121887500Y-60531250D02*
X121180394Y-60531250D01*
X121180394Y-60531250D02*
X120777000Y-60934644D01*
X120777000Y-41884644D02*
X120777000Y-57420750D01*
X120777000Y-57420750D02*
X121887500Y-58531250D01*
X121887500Y-41481250D02*
X121180394Y-41481250D01*
X121180394Y-41481250D02*
X120777000Y-41884644D01*
X101727000Y-75222144D02*
X101727000Y-90758250D01*
X101727000Y-90758250D02*
X102837500Y-91868750D01*
X102837500Y-74818750D02*
X102130394Y-74818750D01*
X102130394Y-74818750D02*
X101727000Y-75222144D01*
X101727000Y-37122144D02*
X101727000Y-52658250D01*
X101727000Y-52658250D02*
X102837500Y-53768750D01*
X102837500Y-36718750D02*
X102130394Y-36718750D01*
X102130394Y-36718750D02*
X101727000Y-37122144D01*
X82677000Y-71166750D02*
X82677000Y-85995750D01*
X82677000Y-85995750D02*
X83787500Y-87106250D01*
X83787500Y-70056250D02*
X82677000Y-71166750D01*
X82677000Y-52116750D02*
X82677000Y-66945750D01*
X82677000Y-66945750D02*
X83787500Y-68056250D01*
X83787500Y-51006250D02*
X82677000Y-52116750D01*
X82677000Y-32359644D02*
X82677000Y-47895750D01*
X82677000Y-47895750D02*
X83787500Y-49006250D01*
X83787500Y-31956250D02*
X83080394Y-31956250D01*
X83080394Y-31956250D02*
X82677000Y-32359644D01*
X63627000Y-56172144D02*
X63627000Y-71708250D01*
X63627000Y-71708250D02*
X64737500Y-72818750D01*
X64737500Y-55768750D02*
X64030394Y-55768750D01*
X64030394Y-55768750D02*
X63627000Y-56172144D01*
D24*
X150462500Y-117681250D02*
X151082500Y-117681250D01*
X151082500Y-117681250D02*
X152082500Y-116681250D01*
X150462500Y-116681250D02*
X152082500Y-116681250D01*
X150462500Y-115681250D02*
X151082500Y-115681250D01*
X151082500Y-115681250D02*
X152082500Y-116681250D01*
X150462500Y-115681250D02*
X150462500Y-117681250D01*
X131412500Y-117681250D02*
X132032500Y-117681250D01*
X132032500Y-117681250D02*
X133032500Y-116681250D01*
X131412500Y-116681250D02*
X133032500Y-116681250D01*
X131412500Y-115681250D02*
X132032500Y-115681250D01*
X132032500Y-115681250D02*
X133032500Y-116681250D01*
X131412500Y-115681250D02*
X131412500Y-117681250D01*
X140937500Y-98631250D02*
X141557500Y-98631250D01*
X141557500Y-98631250D02*
X142557500Y-97631250D01*
X140937500Y-97631250D02*
X142557500Y-97631250D01*
X140937500Y-96631250D02*
X141557500Y-96631250D01*
X141557500Y-96631250D02*
X142557500Y-97631250D01*
X140937500Y-96631250D02*
X140937500Y-98631250D01*
X121887500Y-98631250D02*
X122507500Y-98631250D01*
X122507500Y-98631250D02*
X123507500Y-97631250D01*
X121887500Y-97631250D02*
X123507500Y-97631250D01*
X121887500Y-96631250D02*
X122507500Y-96631250D01*
X122507500Y-96631250D02*
X123507500Y-97631250D01*
X121887500Y-96631250D02*
X121887500Y-98631250D01*
X102837500Y-91868750D02*
X103457500Y-91868750D01*
X103457500Y-91868750D02*
X104457500Y-92868750D01*
X102837500Y-92868750D02*
X104457500Y-92868750D01*
X102837500Y-93868750D02*
X103457500Y-93868750D01*
X103457500Y-93868750D02*
X104457500Y-92868750D01*
X102837500Y-91868750D02*
X102837500Y-93868750D01*
X83787500Y-89106250D02*
X84407500Y-89106250D01*
X84407500Y-89106250D02*
X85407500Y-88106250D01*
X83787500Y-88106250D02*
X85407500Y-88106250D01*
X83787500Y-87106250D02*
X84407500Y-87106250D01*
X84407500Y-87106250D02*
X85407500Y-88106250D01*
X83787500Y-87106250D02*
X83787500Y-89106250D01*
X64737500Y-74818750D02*
X65357500Y-74818750D01*
X65357500Y-74818750D02*
X66357500Y-73818750D01*
X64737500Y-73818750D02*
X66357500Y-73818750D01*
X64737500Y-72818750D02*
X65357500Y-72818750D01*
X65357500Y-72818750D02*
X66357500Y-73818750D01*
X64737500Y-72818750D02*
X64737500Y-74818750D01*
X45687500Y-79581250D02*
X46307500Y-79581250D01*
X46307500Y-79581250D02*
X47307500Y-78581250D01*
X45687500Y-78581250D02*
X47307500Y-78581250D01*
X45687500Y-77581250D02*
X46307500Y-77581250D01*
X46307500Y-77581250D02*
X47307500Y-78581250D01*
X45687500Y-77581250D02*
X45687500Y-79581250D01*
X83787500Y-68056250D02*
X84407500Y-68056250D01*
X84407500Y-68056250D02*
X85407500Y-69056250D01*
X83787500Y-69056250D02*
X85407500Y-69056250D01*
X83787500Y-70056250D02*
X84407500Y-70056250D01*
X84407500Y-70056250D02*
X85407500Y-69056250D01*
X83787500Y-68056250D02*
X83787500Y-70056250D01*
X102837500Y-72818750D02*
X103457500Y-72818750D01*
X103457500Y-72818750D02*
X104457500Y-73818750D01*
X104457500Y-73818750D02*
X102837500Y-73818750D01*
X102837500Y-74818750D02*
X103457500Y-74818750D01*
X103457500Y-74818750D02*
X104457500Y-73818750D01*
X102837500Y-72818750D02*
X102837500Y-74818750D01*
X121887500Y-77581250D02*
X122507500Y-77581250D01*
X122507500Y-77581250D02*
X123507500Y-78581250D01*
X121887500Y-78581250D02*
X123507500Y-78581250D01*
X121887500Y-79581250D02*
X122507500Y-79581250D01*
X122507500Y-79581250D02*
X123507500Y-78581250D01*
X121887500Y-77581250D02*
X121887500Y-79581250D01*
X121887500Y-58531250D02*
X122507500Y-58531250D01*
X122507500Y-58531250D02*
X123507500Y-59531250D01*
X123507500Y-59531250D02*
X121887500Y-59531250D01*
X121887500Y-60531250D02*
X122507500Y-60531250D01*
X122507500Y-60531250D02*
X123507500Y-59531250D01*
X121887500Y-58531250D02*
X121887500Y-60531250D01*
X121887500Y-39481250D02*
X122507500Y-39481250D01*
X122507500Y-39481250D02*
X123507500Y-40481250D01*
X121887500Y-40481250D02*
X123507500Y-40481250D01*
X121887500Y-41481250D02*
X122507500Y-41481250D01*
X122507500Y-41481250D02*
X123507500Y-40481250D01*
X121887500Y-39481250D02*
X121887500Y-41481250D01*
X83787500Y-29956250D02*
X84407500Y-29956250D01*
X84407500Y-29956250D02*
X85407500Y-30956250D01*
X83787500Y-30956250D02*
X85407500Y-30956250D01*
X83787500Y-31956250D02*
X84407500Y-31956250D01*
X84407500Y-31956250D02*
X85407500Y-30956250D01*
X83787500Y-29956250D02*
X83787500Y-31956250D01*
X102837500Y-36718750D02*
X103457500Y-36718750D01*
X103457500Y-36718750D02*
X104457500Y-35718750D01*
X102837500Y-35718750D02*
X104457500Y-35718750D01*
X102837500Y-34718750D02*
X103457500Y-34718750D01*
X103457500Y-34718750D02*
X104457500Y-35718750D01*
X102837500Y-34718750D02*
X102837500Y-36718750D01*
X102837500Y-53768750D02*
X103457500Y-53768750D01*
X103457500Y-53768750D02*
X104457500Y-54768750D01*
X102837500Y-54768750D02*
X104457500Y-54768750D01*
X102837500Y-55768750D02*
X103457500Y-55768750D01*
X103457500Y-55768750D02*
X104457500Y-54768750D01*
X102837500Y-53768750D02*
X102837500Y-55768750D01*
X83787500Y-49006250D02*
X84407500Y-49006250D01*
X84407500Y-49006250D02*
X85407500Y-50006250D01*
X83787500Y-50006250D02*
X85407500Y-50006250D01*
X83787500Y-51006250D02*
X84407500Y-51006250D01*
X84407500Y-51006250D02*
X85407500Y-50006250D01*
X83787500Y-49006250D02*
X83787500Y-51006250D01*
X64737500Y-53768750D02*
X65357500Y-53768750D01*
X65357500Y-53768750D02*
X66357500Y-54768750D01*
X64737500Y-54768750D02*
X66357500Y-54768750D01*
X64737500Y-55768750D02*
X65357500Y-55768750D01*
X65357500Y-55768750D02*
X66357500Y-54768750D01*
X64737500Y-53768750D02*
X64737500Y-55768750D01*
X45687500Y-60531250D02*
X46307500Y-60531250D01*
X46307500Y-60531250D02*
X47307500Y-59531250D01*
X45687500Y-59531250D02*
X47307500Y-59531250D01*
X45687500Y-58531250D02*
X46307500Y-58531250D01*
X46307500Y-58531250D02*
X47307500Y-59531250D01*
X45687500Y-58531250D02*
X45687500Y-60531250D01*
D25*
X40322500Y-45358050D02*
X40322500Y-44291250D01*
X40322500Y-44291250D02*
X39052500Y-43021250D01*
X39052500Y-43021250D02*
X39052500Y-41751250D01*
X39052500Y-41751250D02*
X37782500Y-40481250D01*
X64135000Y-39528750D02*
X62865000Y-38258750D01*
X64135000Y-40595550D02*
X64135000Y-39528750D01*
X62865000Y-38258750D02*
X62865000Y-36988750D01*
X62865000Y-36988750D02*
X61595000Y-35718750D01*
X87947500Y-34766250D02*
X86677500Y-33496250D01*
X87947500Y-35833050D02*
X87947500Y-34766250D01*
X86677500Y-33496250D02*
X86677500Y-32226250D01*
X86677500Y-32226250D02*
X85407500Y-30956250D01*
X48577500Y-62071250D02*
X48577500Y-60801250D01*
X48577500Y-60801250D02*
X47307500Y-59531250D01*
X49847500Y-64408050D02*
X49847500Y-63341250D01*
X49847500Y-63341250D02*
X48577500Y-62071250D01*
X67627500Y-56038750D02*
X66357500Y-54768750D01*
X67627500Y-57308750D02*
X67627500Y-56038750D01*
X68897500Y-59645550D02*
X68897500Y-58578750D01*
X68897500Y-58578750D02*
X67627500Y-57308750D01*
X86677500Y-51276250D02*
X85407500Y-50006250D01*
X86677500Y-52546250D02*
X86677500Y-51276250D01*
X87947500Y-54883050D02*
X87947500Y-53816250D01*
X87947500Y-53816250D02*
X86677500Y-52546250D01*
X49847500Y-83458050D02*
X49847500Y-82391250D01*
X49847500Y-82391250D02*
X48577500Y-81121250D01*
X48577500Y-79851250D02*
X47307500Y-78581250D01*
X48577500Y-81121250D02*
X48577500Y-79851250D01*
X68897500Y-77628750D02*
X67627500Y-76358750D01*
X68897500Y-78695550D02*
X68897500Y-77628750D01*
X67627500Y-75088750D02*
X66357500Y-73818750D01*
X67627500Y-76358750D02*
X67627500Y-75088750D01*
X87947500Y-73933050D02*
X87947500Y-72866250D01*
X87947500Y-72866250D02*
X86677500Y-71596250D01*
X86677500Y-70326250D02*
X85407500Y-69056250D01*
X86677500Y-71596250D02*
X86677500Y-70326250D01*
X106997500Y-58578750D02*
X105727500Y-57308750D01*
X106997500Y-59645550D02*
X106997500Y-58578750D01*
X105727500Y-57308750D02*
X105727500Y-56038750D01*
X105727500Y-56038750D02*
X104457500Y-54768750D01*
X106997500Y-39528750D02*
X105727500Y-38258750D01*
X106997500Y-40595550D02*
X106997500Y-39528750D01*
X105727500Y-36988750D02*
X104457500Y-35718750D01*
X105727500Y-38258750D02*
X105727500Y-36988750D01*
X153352500Y-119221250D02*
X153352500Y-117951250D01*
X153352500Y-117951250D02*
X152082500Y-116681250D01*
X154622500Y-121558050D02*
X154622500Y-120491250D01*
X154622500Y-120491250D02*
X153352500Y-119221250D01*
X134302500Y-119221250D02*
X134302500Y-117951250D01*
X134302500Y-117951250D02*
X133032500Y-116681250D01*
X135572500Y-121558050D02*
X135572500Y-120491250D01*
X135572500Y-120491250D02*
X134302500Y-119221250D01*
X143827500Y-100171250D02*
X143827500Y-98901250D01*
X143827500Y-98901250D02*
X142557500Y-97631250D01*
X145097500Y-102508050D02*
X145097500Y-101441250D01*
X145097500Y-101441250D02*
X143827500Y-100171250D01*
X124777500Y-100171250D02*
X124777500Y-98901250D01*
X124777500Y-98901250D02*
X123507500Y-97631250D01*
X126047500Y-102508050D02*
X126047500Y-101441250D01*
X126047500Y-101441250D02*
X124777500Y-100171250D01*
X105727500Y-95408750D02*
X105727500Y-94138750D01*
X105727500Y-94138750D02*
X104457500Y-92868750D01*
X106997500Y-97745550D02*
X106997500Y-96678750D01*
X106997500Y-96678750D02*
X105727500Y-95408750D01*
X124777500Y-81121250D02*
X124777500Y-79851250D01*
X124777500Y-79851250D02*
X123507500Y-78581250D01*
X126047500Y-83458050D02*
X126047500Y-82391250D01*
X126047500Y-82391250D02*
X124777500Y-81121250D01*
X105727500Y-76358750D02*
X105727500Y-75088750D01*
X105727500Y-75088750D02*
X104457500Y-73818750D01*
X106997500Y-78695550D02*
X106997500Y-77628750D01*
X106997500Y-77628750D02*
X105727500Y-76358750D01*
X86677500Y-90646250D02*
X86677500Y-89376250D01*
X86677500Y-89376250D02*
X85407500Y-88106250D01*
X87947500Y-92983050D02*
X87947500Y-91916250D01*
X87947500Y-91916250D02*
X86677500Y-90646250D01*
X124777500Y-62071250D02*
X124777500Y-60801250D01*
X124777500Y-60801250D02*
X123507500Y-59531250D01*
X126047500Y-64408050D02*
X126047500Y-63341250D01*
X126047500Y-63341250D02*
X124777500Y-62071250D01*
X124777500Y-43021250D02*
X124777500Y-41751250D01*
X124777500Y-41751250D02*
X123507500Y-40481250D01*
X126047500Y-45358050D02*
X126047500Y-44291250D01*
X126047500Y-44291250D02*
X124777500Y-43021250D01*
D24*
X59975000Y-36718750D02*
X60595000Y-36718750D01*
X60595000Y-36718750D02*
X61595000Y-35718750D01*
X59975000Y-35718750D02*
X61595000Y-35718750D01*
X59975000Y-34718750D02*
X60595000Y-34718750D01*
X60595000Y-34718750D02*
X61595000Y-35718750D01*
X36162500Y-41481250D02*
X36782500Y-41481250D01*
X36782500Y-41481250D02*
X37782500Y-40481250D01*
X36162500Y-39481250D02*
X36782500Y-39481250D01*
X36782500Y-39481250D02*
X37782500Y-40481250D01*
X36162500Y-40481250D02*
X37782500Y-40481250D01*
X36162500Y-39481250D02*
X36162500Y-41481250D01*
D26*
X90995500Y-110342498D02*
X90995500Y-111442500D01*
X87693500Y-111442500D02*
X90995500Y-111442500D01*
X94217000Y-108481000D02*
X92856998Y-108481000D01*
X92856998Y-108481000D02*
X90995500Y-110342498D01*
X87693500Y-111442500D02*
X88259185Y-111442500D01*
X77944000Y-108481000D02*
X77966000Y-108459000D01*
X76217000Y-108481000D02*
X77944000Y-108481000D01*
X80178500Y-119481000D02*
X80200500Y-119459000D01*
X76217000Y-119481000D02*
X80178500Y-119481000D01*
X86421000Y-111434000D02*
X87685000Y-111434000D01*
X87685000Y-111434000D02*
X87693500Y-111442500D01*
D23*
X96240600Y-113457400D02*
X95717000Y-113981000D01*
X96240600Y-111759000D02*
X96240600Y-113457400D01*
X95717000Y-113981000D02*
X94217000Y-113981000D01*
D24*
X135287500Y-77581250D02*
X134667500Y-77581250D01*
X134667500Y-77581250D02*
X133667500Y-78581250D01*
X133667500Y-78581250D02*
X135287500Y-78581250D01*
X135287500Y-79581250D02*
X134667500Y-79581250D01*
X134667500Y-79581250D02*
X133667500Y-78581250D01*
X135287500Y-77581250D02*
X135287500Y-79581250D01*
D25*
X132397500Y-81121250D02*
X132397500Y-79851250D01*
X132397500Y-79851250D02*
X133667500Y-78581250D01*
X131127500Y-83458050D02*
X131127500Y-82391250D01*
X131127500Y-82391250D02*
X132397500Y-81121250D01*
D23*
X91267000Y-103781000D02*
X91267000Y-105547440D01*
X91267000Y-105547440D02*
X91254580Y-105559860D01*
D24*
X116237500Y-36718750D02*
X115617500Y-36718750D01*
X115617500Y-36718750D02*
X114617500Y-35718750D01*
X116237500Y-35718750D02*
X114617500Y-35718750D01*
X116237500Y-34718750D02*
X115617500Y-34718750D01*
X115617500Y-34718750D02*
X114617500Y-35718750D01*
X116237500Y-34718750D02*
X116237500Y-36718750D01*
D25*
X113347500Y-38258750D02*
X113347500Y-36988750D01*
X113347500Y-36988750D02*
X114617500Y-35718750D01*
X112077500Y-40595550D02*
X112077500Y-39528750D01*
X112077500Y-39528750D02*
X113347500Y-38258750D01*
D23*
X96227900Y-109559000D02*
X94239000Y-109559000D01*
X94239000Y-109559000D02*
X94217000Y-109581000D01*
D24*
X135287500Y-41481250D02*
X134667500Y-41481250D01*
X134667500Y-41481250D02*
X133667500Y-40481250D01*
X135287500Y-40481250D02*
X133667500Y-40481250D01*
X135287500Y-39481250D02*
X134667500Y-39481250D01*
X134667500Y-39481250D02*
X133667500Y-40481250D01*
X135287500Y-39481250D02*
X135287500Y-41481250D01*
D25*
X132397500Y-43021250D02*
X132397500Y-41751250D01*
X132397500Y-41751250D02*
X133667500Y-40481250D01*
X131127500Y-45358050D02*
X131127500Y-44291250D01*
X131127500Y-44291250D02*
X132397500Y-43021250D01*
D23*
X96227900Y-110659000D02*
X94239000Y-110659000D01*
X94239000Y-110659000D02*
X94217000Y-110681000D01*
X94217000Y-110681000D02*
X96205900Y-110681000D01*
X96205900Y-110681000D02*
X96227900Y-110659000D01*
D24*
X135287500Y-58531250D02*
X134667500Y-58531250D01*
X134667500Y-58531250D02*
X133667500Y-59531250D01*
X135287500Y-59531250D02*
X133667500Y-59531250D01*
X135287500Y-60531250D02*
X134667500Y-60531250D01*
X134667500Y-60531250D02*
X133667500Y-59531250D01*
X135287500Y-58531250D02*
X135287500Y-60531250D01*
D25*
X132397500Y-62071250D02*
X132397500Y-60801250D01*
X132397500Y-60801250D02*
X133667500Y-59531250D01*
X131127500Y-64408050D02*
X131127500Y-63341250D01*
X131127500Y-63341250D02*
X132397500Y-62071250D01*
D26*
X82677000Y-110109000D02*
X83248500Y-110109000D01*
X83248500Y-110109000D02*
X84582000Y-110109000D01*
X81915000Y-110871000D02*
X82677000Y-110109000D01*
X81915000Y-117729000D02*
X81915000Y-110871000D01*
X84582000Y-110109000D02*
X89090500Y-110109000D01*
X84582000Y-110109000D02*
X84571000Y-110109000D01*
X84571000Y-110109000D02*
X84521000Y-110159000D01*
X84521000Y-110159000D02*
X84521000Y-111434000D01*
X89739000Y-110109000D02*
X92467000Y-107381000D01*
X89090500Y-110109000D02*
X89739000Y-110109000D01*
X92467000Y-107381000D02*
X94217000Y-107381000D01*
X84582000Y-111373000D02*
X84521000Y-111434000D01*
X68453000Y-120777000D02*
X68199000Y-120523000D01*
X80117000Y-120777000D02*
X68453000Y-120777000D01*
X81915000Y-118979000D02*
X80117000Y-120777000D01*
X58928000Y-115189000D02*
X68199000Y-115189000D01*
X81915000Y-117729000D02*
X81915000Y-118979000D01*
X68199000Y-115189000D02*
X70628000Y-115189000D01*
X68199000Y-120523000D02*
X68199000Y-115189000D01*
D23*
X87967820Y-105570020D02*
X87967820Y-103781820D01*
X87967820Y-103781820D02*
X87967000Y-103781000D01*
D24*
X116237500Y-93868750D02*
X115617500Y-93868750D01*
X115617500Y-93868750D02*
X114617500Y-92868750D01*
X116237500Y-92868750D02*
X114617500Y-92868750D01*
X116237500Y-91868750D02*
X115617500Y-91868750D01*
X115617500Y-91868750D02*
X114617500Y-92868750D01*
X116237500Y-91868750D02*
X116237500Y-93868750D01*
D25*
X113347500Y-95408750D02*
X113347500Y-94138750D01*
X113347500Y-94138750D02*
X114617500Y-92868750D01*
X112077500Y-97745550D02*
X112077500Y-96678750D01*
X112077500Y-96678750D02*
X113347500Y-95408750D01*
D23*
X97030540Y-113767460D02*
X95717000Y-115081000D01*
X97030540Y-112859000D02*
X97030540Y-113767460D01*
X95717000Y-115081000D02*
X94217000Y-115081000D01*
D24*
X135287500Y-98631250D02*
X134667500Y-98631250D01*
X134667500Y-98631250D02*
X133667500Y-97631250D01*
X135287500Y-97631250D02*
X133667500Y-97631250D01*
X135287500Y-96631250D02*
X134667500Y-96631250D01*
X134667500Y-96631250D02*
X133667500Y-97631250D01*
X135287500Y-96631250D02*
X135287500Y-98631250D01*
D25*
X132397500Y-100171250D02*
X132397500Y-98901250D01*
X132397500Y-98901250D02*
X133667500Y-97631250D01*
X131127500Y-102508050D02*
X131127500Y-101441250D01*
X131127500Y-101441250D02*
X132397500Y-100171250D01*
D23*
X94217000Y-118381000D02*
X96177960Y-118381000D01*
X96177960Y-118381000D02*
X96199960Y-118359000D01*
D24*
X144812500Y-117681250D02*
X144192500Y-117681250D01*
X144192500Y-117681250D02*
X143192500Y-116681250D01*
X144812500Y-116681250D02*
X143192500Y-116681250D01*
X144812500Y-115681250D02*
X144192500Y-115681250D01*
X144192500Y-115681250D02*
X143192500Y-116681250D01*
X144812500Y-115681250D02*
X144812500Y-117681250D01*
D25*
X141922500Y-119221250D02*
X141922500Y-117951250D01*
X141922500Y-117951250D02*
X143192500Y-116681250D01*
X140652500Y-121558050D02*
X140652500Y-120491250D01*
X140652500Y-120491250D02*
X141922500Y-119221250D01*
D23*
X83550760Y-105512500D02*
X83550760Y-103797240D01*
X83550760Y-103797240D02*
X83567000Y-103781000D01*
D24*
X97187500Y-87106250D02*
X96567500Y-87106250D01*
X96567500Y-87106250D02*
X95567500Y-88106250D01*
X97187500Y-88106250D02*
X95567500Y-88106250D01*
X97187500Y-89106250D02*
X96567500Y-89106250D01*
X96567500Y-89106250D02*
X95567500Y-88106250D01*
X97187500Y-87106250D02*
X97187500Y-89106250D01*
D25*
X94297500Y-90646250D02*
X94297500Y-89376250D01*
X94297500Y-89376250D02*
X95567500Y-88106250D01*
X93027500Y-92983050D02*
X93027500Y-91916250D01*
X93027500Y-91916250D02*
X94297500Y-90646250D01*
D23*
X87058500Y-113959000D02*
X87058500Y-117665500D01*
X87058500Y-117665500D02*
X86995000Y-117729000D01*
X81065000Y-113943500D02*
X76254500Y-113943500D01*
X76254500Y-113943500D02*
X76217000Y-113981000D01*
X81065000Y-115062000D02*
X76236000Y-115062000D01*
X76236000Y-115062000D02*
X76217000Y-115081000D01*
D26*
X82740500Y-114953840D02*
X82765000Y-111442500D01*
X82740500Y-111442500D02*
X82765000Y-111442500D01*
X84455000Y-117729000D02*
X84455000Y-116668340D01*
X84455000Y-116668340D02*
X82740500Y-114953840D01*
X47228000Y-107013500D02*
X47879000Y-106362500D01*
X47228000Y-107442000D02*
X47228000Y-107013500D01*
X47879000Y-106362500D02*
X84708999Y-106362500D01*
X84708999Y-106362500D02*
X85471000Y-107124501D01*
X85471000Y-108784000D02*
X85471000Y-107124501D01*
X47228000Y-107442000D02*
X47244000Y-107442000D01*
X47228000Y-115189000D02*
X47228000Y-107442000D01*
D23*
X94217000Y-117281000D02*
X96177960Y-117281000D01*
X96177960Y-117281000D02*
X96199960Y-117259000D01*
D24*
X163862500Y-115681250D02*
X163242500Y-115681250D01*
X163242500Y-115681250D02*
X162242500Y-116681250D01*
X163862500Y-116681250D02*
X162242500Y-116681250D01*
X163862500Y-117681250D02*
X163242500Y-117681250D01*
X163242500Y-117681250D02*
X162242500Y-116681250D01*
X163862500Y-115681250D02*
X163862500Y-117681250D01*
D25*
X160972500Y-119221250D02*
X160972500Y-117951250D01*
X160972500Y-117951250D02*
X162242500Y-116681250D01*
X159702500Y-121558050D02*
X159702500Y-120491250D01*
X159702500Y-120491250D02*
X160972500Y-119221250D01*
M02*
