G04 #@! TF.GenerationSoftware,KiCad,Pcbnew,(5.0.0-rc2-dev-301-g33f795be4)*
G04 #@! TF.CreationDate,2018-06-10T21:23:58+02:00*
G04 #@! TF.ProjectId,kissboard,6B697373626F6172642E6B696361645F,rev?*
G04 #@! TF.SameCoordinates,Original*
G04 #@! TF.FileFunction,Profile,NP*
%FSLAX46Y46*%
G04 Gerber Fmt 4.6, Leading zero omitted, Abs format (unit mm)*
G04 Created by KiCad (PCBNEW (5.0.0-rc2-dev-301-g33f795be4)) date 06/10/18 21:23:58*
%MOMM*%
%LPD*%
G01*
G04 APERTURE LIST*
%ADD10C,0.200000*%
%ADD11C,0.100000*%
G04 APERTURE END LIST*
D10*
X170941577Y-26669577D02*
G75*
G02X175704500Y-31432500I0J-4762923D01*
G01*
X170942000Y-26670000D02*
X104140000Y-26670000D01*
X99448259Y-21970440D02*
G75*
G02X101797759Y-24319940I0J-2349500D01*
G01*
X104147259Y-26669440D02*
G75*
G02X101797759Y-24319940I0J2349500D01*
G01*
X78486000Y-24320500D02*
G75*
G02X76136500Y-26670000I-2349500J0D01*
G01*
X78486000Y-24320500D02*
G75*
G02X80835500Y-21971000I2349500J0D01*
G01*
X80835500Y-21971000D02*
X99441000Y-21971000D01*
X127381458Y-125347815D02*
G75*
G03X129095500Y-125666923I1714042J4443815D01*
G01*
X46453591Y-101536514D02*
G75*
G02X43370500Y-97091500I1679832J4456876D01*
G01*
X46456600Y-101536500D02*
X127381000Y-125349000D01*
X38608000Y-26670000D02*
X76136553Y-26670000D01*
X33845500Y-31432500D02*
G75*
G02X38608423Y-26669577I4762923J0D01*
G01*
X38607577Y-63881000D02*
G75*
G02X43370500Y-68643923I0J-4762923D01*
G01*
X38608423Y-63881846D02*
G75*
G02X33845500Y-59055000I0J4763346D01*
G01*
X33845500Y-59055000D02*
X33845500Y-31432428D01*
X175704500Y-124777500D02*
G75*
G02X174815500Y-125666500I-889000J0D01*
G01*
X175704500Y-124777500D02*
X175704500Y-31432479D01*
X129095500Y-125666500D02*
X174815500Y-125666500D01*
X43370500Y-68643500D02*
X43370500Y-97091500D01*
D11*
X160091120Y-109681010D02*
X173299120Y-109681010D01*
X172887640Y-110483630D02*
X172887640Y-114514630D01*
X173291500Y-109680807D02*
G75*
G02X173687740Y-110064550I0J-396443D01*
G01*
X173690280Y-110074710D02*
X173690280Y-114519710D01*
X160487360Y-114507038D02*
X160487360Y-110481110D01*
X160489899Y-110481110D02*
X172880020Y-110481110D01*
X173685232Y-114484150D02*
G75*
G02X172887640Y-114489230I-398812J0D01*
G01*
X159687260Y-114527330D02*
X159687260Y-110082330D01*
X160080960Y-109681011D02*
G75*
G03X159688343Y-110056938I-1457J-391465D01*
G01*
X160487392Y-114481610D02*
G75*
G02X159689800Y-114486690I-398812J0D01*
G01*
X172887608Y-118880890D02*
G75*
G02X173685200Y-118875810I398812J0D01*
G01*
X159689768Y-118878350D02*
G75*
G02X160487360Y-118873270I398812J0D01*
G01*
X160083500Y-123681693D02*
G75*
G02X159687260Y-123297950I0J396443D01*
G01*
X172887640Y-118855462D02*
X172887640Y-122881390D01*
X173294040Y-123681489D02*
G75*
G03X173686657Y-123305562I1457J391465D01*
G01*
X172885101Y-122881390D02*
X160494980Y-122881390D01*
X160487360Y-122878870D02*
X160487360Y-118847870D01*
X159684720Y-123287790D02*
X159684720Y-118842790D01*
X173687740Y-118835170D02*
X173687740Y-123280170D01*
X173283880Y-123681490D02*
X160075880Y-123681490D01*
X45791120Y-81106010D02*
X58999120Y-81106010D01*
X58587640Y-81908630D02*
X58587640Y-85939630D01*
X58991500Y-81105807D02*
G75*
G02X59387740Y-81489550I0J-396443D01*
G01*
X59390280Y-81499710D02*
X59390280Y-85944710D01*
X46187360Y-85932038D02*
X46187360Y-81906110D01*
X46189899Y-81906110D02*
X58580020Y-81906110D01*
X59385232Y-85909150D02*
G75*
G02X58587640Y-85914230I-398812J0D01*
G01*
X45387260Y-85952330D02*
X45387260Y-81507330D01*
X45780960Y-81106011D02*
G75*
G03X45388343Y-81481938I-1457J-391465D01*
G01*
X46187392Y-85906610D02*
G75*
G02X45389800Y-85911690I-398812J0D01*
G01*
X58587608Y-90305890D02*
G75*
G02X59385200Y-90300810I398812J0D01*
G01*
X45389768Y-90303350D02*
G75*
G02X46187360Y-90298270I398812J0D01*
G01*
X45783500Y-95106693D02*
G75*
G02X45387260Y-94722950I0J396443D01*
G01*
X58587640Y-90280462D02*
X58587640Y-94306390D01*
X58994040Y-95106489D02*
G75*
G03X59386657Y-94730562I1457J391465D01*
G01*
X58585101Y-94306390D02*
X46194980Y-94306390D01*
X46187360Y-94303870D02*
X46187360Y-90272870D01*
X45384720Y-94712790D02*
X45384720Y-90267790D01*
X59387740Y-90260170D02*
X59387740Y-94705170D01*
X58983880Y-95106490D02*
X45775880Y-95106490D01*
X73271380Y-42718990D02*
X60063380Y-42718990D01*
X73675240Y-37872670D02*
X73675240Y-42317670D01*
X59672220Y-42325290D02*
X59672220Y-37880290D01*
X60474860Y-41916370D02*
X60474860Y-37885370D01*
X72872601Y-41918890D02*
X60482480Y-41918890D01*
X73281540Y-42718989D02*
G75*
G03X73674157Y-42343062I1457J391465D01*
G01*
X72875140Y-37892962D02*
X72875140Y-41918890D01*
X60071000Y-42719193D02*
G75*
G02X59674760Y-42335450I0J396443D01*
G01*
X59677268Y-37915850D02*
G75*
G02X60474860Y-37910770I398812J0D01*
G01*
X72875108Y-37918390D02*
G75*
G02X73672700Y-37913310I398812J0D01*
G01*
X60474892Y-33519110D02*
G75*
G02X59677300Y-33524190I-398812J0D01*
G01*
X60068460Y-28718511D02*
G75*
G03X59675843Y-29094438I-1457J-391465D01*
G01*
X59674760Y-33564830D02*
X59674760Y-29119830D01*
X73672732Y-33521650D02*
G75*
G02X72875140Y-33526730I-398812J0D01*
G01*
X60477399Y-29518610D02*
X72867520Y-29518610D01*
X60474860Y-33544538D02*
X60474860Y-29518610D01*
X73677780Y-29112210D02*
X73677780Y-33557210D01*
X73279000Y-28718307D02*
G75*
G02X73675240Y-29102050I0J-396443D01*
G01*
X72875140Y-29521130D02*
X72875140Y-33552130D01*
X60078620Y-28718510D02*
X73286620Y-28718510D01*
X83891120Y-23956010D02*
X97099120Y-23956010D01*
X96687640Y-24758630D02*
X96687640Y-28789630D01*
X97091500Y-23955807D02*
G75*
G02X97487740Y-24339550I0J-396443D01*
G01*
X97490280Y-24349710D02*
X97490280Y-28794710D01*
X84287360Y-28782038D02*
X84287360Y-24756110D01*
X84289899Y-24756110D02*
X96680020Y-24756110D01*
X97485232Y-28759150D02*
G75*
G02X96687640Y-28764230I-398812J0D01*
G01*
X83487260Y-28802330D02*
X83487260Y-24357330D01*
X83880960Y-23956011D02*
G75*
G03X83488343Y-24331938I-1457J-391465D01*
G01*
X84287392Y-28756610D02*
G75*
G02X83489800Y-28761690I-398812J0D01*
G01*
X96687608Y-33155890D02*
G75*
G02X97485200Y-33150810I398812J0D01*
G01*
X83489768Y-33153350D02*
G75*
G02X84287360Y-33148270I398812J0D01*
G01*
X83883500Y-37956693D02*
G75*
G02X83487260Y-37572950I0J396443D01*
G01*
X96687640Y-33130462D02*
X96687640Y-37156390D01*
X97094040Y-37956489D02*
G75*
G03X97486657Y-37580562I1457J391465D01*
G01*
X96685101Y-37156390D02*
X84294980Y-37156390D01*
X84287360Y-37153870D02*
X84287360Y-33122870D01*
X83484720Y-37562790D02*
X83484720Y-33117790D01*
X97487740Y-33110170D02*
X97487740Y-37555170D01*
X97083880Y-37956490D02*
X83875880Y-37956490D01*
X116133880Y-42718990D02*
X102925880Y-42718990D01*
X116537740Y-37872670D02*
X116537740Y-42317670D01*
X102534720Y-42325290D02*
X102534720Y-37880290D01*
X103337360Y-41916370D02*
X103337360Y-37885370D01*
X115735101Y-41918890D02*
X103344980Y-41918890D01*
X116144040Y-42718989D02*
G75*
G03X116536657Y-42343062I1457J391465D01*
G01*
X115737640Y-37892962D02*
X115737640Y-41918890D01*
X102933500Y-42719193D02*
G75*
G02X102537260Y-42335450I0J396443D01*
G01*
X102539768Y-37915850D02*
G75*
G02X103337360Y-37910770I398812J0D01*
G01*
X115737608Y-37918390D02*
G75*
G02X116535200Y-37913310I398812J0D01*
G01*
X103337392Y-33519110D02*
G75*
G02X102539800Y-33524190I-398812J0D01*
G01*
X102930960Y-28718511D02*
G75*
G03X102538343Y-29094438I-1457J-391465D01*
G01*
X102537260Y-33564830D02*
X102537260Y-29119830D01*
X116535232Y-33521650D02*
G75*
G02X115737640Y-33526730I-398812J0D01*
G01*
X103339899Y-29518610D02*
X115730020Y-29518610D01*
X103337360Y-33544538D02*
X103337360Y-29518610D01*
X116540280Y-29112210D02*
X116540280Y-33557210D01*
X116141500Y-28718307D02*
G75*
G02X116537740Y-29102050I0J-396443D01*
G01*
X115737640Y-29521130D02*
X115737640Y-33552130D01*
X102941120Y-28718510D02*
X116149120Y-28718510D01*
X121991120Y-33481010D02*
X135199120Y-33481010D01*
X134787640Y-34283630D02*
X134787640Y-38314630D01*
X135191500Y-33480807D02*
G75*
G02X135587740Y-33864550I0J-396443D01*
G01*
X135590280Y-33874710D02*
X135590280Y-38319710D01*
X122387360Y-38307038D02*
X122387360Y-34281110D01*
X122389899Y-34281110D02*
X134780020Y-34281110D01*
X135585232Y-38284150D02*
G75*
G02X134787640Y-38289230I-398812J0D01*
G01*
X121587260Y-38327330D02*
X121587260Y-33882330D01*
X121980960Y-33481011D02*
G75*
G03X121588343Y-33856938I-1457J-391465D01*
G01*
X122387392Y-38281610D02*
G75*
G02X121589800Y-38286690I-398812J0D01*
G01*
X134787608Y-42680890D02*
G75*
G02X135585200Y-42675810I398812J0D01*
G01*
X121589768Y-42678350D02*
G75*
G02X122387360Y-42673270I398812J0D01*
G01*
X121983500Y-47481693D02*
G75*
G02X121587260Y-47097950I0J396443D01*
G01*
X134787640Y-42655462D02*
X134787640Y-46681390D01*
X135194040Y-47481489D02*
G75*
G03X135586657Y-47105562I1457J391465D01*
G01*
X134785101Y-46681390D02*
X122394980Y-46681390D01*
X122387360Y-46678870D02*
X122387360Y-42647870D01*
X121584720Y-47087790D02*
X121584720Y-42642790D01*
X135587740Y-42635170D02*
X135587740Y-47080170D01*
X135183880Y-47481490D02*
X121975880Y-47481490D01*
X58983880Y-76056490D02*
X45775880Y-76056490D01*
X59387740Y-71210170D02*
X59387740Y-75655170D01*
X45384720Y-75662790D02*
X45384720Y-71217790D01*
X46187360Y-75253870D02*
X46187360Y-71222870D01*
X58585101Y-75256390D02*
X46194980Y-75256390D01*
X58994040Y-76056489D02*
G75*
G03X59386657Y-75680562I1457J391465D01*
G01*
X58587640Y-71230462D02*
X58587640Y-75256390D01*
X45783500Y-76056693D02*
G75*
G02X45387260Y-75672950I0J396443D01*
G01*
X45389768Y-71253350D02*
G75*
G02X46187360Y-71248270I398812J0D01*
G01*
X58587608Y-71255890D02*
G75*
G02X59385200Y-71250810I398812J0D01*
G01*
X46187392Y-66856610D02*
G75*
G02X45389800Y-66861690I-398812J0D01*
G01*
X45780960Y-62056011D02*
G75*
G03X45388343Y-62431938I-1457J-391465D01*
G01*
X45387260Y-66902330D02*
X45387260Y-62457330D01*
X59385232Y-66859150D02*
G75*
G02X58587640Y-66864230I-398812J0D01*
G01*
X46189899Y-62856110D02*
X58580020Y-62856110D01*
X46187360Y-66882038D02*
X46187360Y-62856110D01*
X59390280Y-62449710D02*
X59390280Y-66894710D01*
X58991500Y-62055807D02*
G75*
G02X59387740Y-62439550I0J-396443D01*
G01*
X58587640Y-62858630D02*
X58587640Y-66889630D01*
X45791120Y-62056010D02*
X58999120Y-62056010D01*
X64841120Y-47768510D02*
X78049120Y-47768510D01*
X77637640Y-48571130D02*
X77637640Y-52602130D01*
X78041500Y-47768307D02*
G75*
G02X78437740Y-48152050I0J-396443D01*
G01*
X78440280Y-48162210D02*
X78440280Y-52607210D01*
X65237360Y-52594538D02*
X65237360Y-48568610D01*
X65239899Y-48568610D02*
X77630020Y-48568610D01*
X78435232Y-52571650D02*
G75*
G02X77637640Y-52576730I-398812J0D01*
G01*
X64437260Y-52614830D02*
X64437260Y-48169830D01*
X64830960Y-47768511D02*
G75*
G03X64438343Y-48144438I-1457J-391465D01*
G01*
X65237392Y-52569110D02*
G75*
G02X64439800Y-52574190I-398812J0D01*
G01*
X77637608Y-56968390D02*
G75*
G02X78435200Y-56963310I398812J0D01*
G01*
X64439768Y-56965850D02*
G75*
G02X65237360Y-56960770I398812J0D01*
G01*
X64833500Y-61769193D02*
G75*
G02X64437260Y-61385450I0J396443D01*
G01*
X77637640Y-56942962D02*
X77637640Y-60968890D01*
X78044040Y-61768989D02*
G75*
G03X78436657Y-61393062I1457J391465D01*
G01*
X77635101Y-60968890D02*
X65244980Y-60968890D01*
X65237360Y-60966370D02*
X65237360Y-56935370D01*
X64434720Y-61375290D02*
X64434720Y-56930290D01*
X78437740Y-56922670D02*
X78437740Y-61367670D01*
X78033880Y-61768990D02*
X64825880Y-61768990D01*
X97083880Y-57006490D02*
X83875880Y-57006490D01*
X97487740Y-52160170D02*
X97487740Y-56605170D01*
X83484720Y-56612790D02*
X83484720Y-52167790D01*
X84287360Y-56203870D02*
X84287360Y-52172870D01*
X96685101Y-56206390D02*
X84294980Y-56206390D01*
X97094040Y-57006489D02*
G75*
G03X97486657Y-56630562I1457J391465D01*
G01*
X96687640Y-52180462D02*
X96687640Y-56206390D01*
X83883500Y-57006693D02*
G75*
G02X83487260Y-56622950I0J396443D01*
G01*
X83489768Y-52203350D02*
G75*
G02X84287360Y-52198270I398812J0D01*
G01*
X96687608Y-52205890D02*
G75*
G02X97485200Y-52200810I398812J0D01*
G01*
X84287392Y-47806610D02*
G75*
G02X83489800Y-47811690I-398812J0D01*
G01*
X83880960Y-43006011D02*
G75*
G03X83488343Y-43381938I-1457J-391465D01*
G01*
X83487260Y-47852330D02*
X83487260Y-43407330D01*
X97485232Y-47809150D02*
G75*
G02X96687640Y-47814230I-398812J0D01*
G01*
X84289899Y-43806110D02*
X96680020Y-43806110D01*
X84287360Y-47832038D02*
X84287360Y-43806110D01*
X97490280Y-43399710D02*
X97490280Y-47844710D01*
X97091500Y-43005807D02*
G75*
G02X97487740Y-43389550I0J-396443D01*
G01*
X96687640Y-43808630D02*
X96687640Y-47839630D01*
X83891120Y-43006010D02*
X97099120Y-43006010D01*
X102941120Y-47768510D02*
X116149120Y-47768510D01*
X115737640Y-48571130D02*
X115737640Y-52602130D01*
X116141500Y-47768307D02*
G75*
G02X116537740Y-48152050I0J-396443D01*
G01*
X116540280Y-48162210D02*
X116540280Y-52607210D01*
X103337360Y-52594538D02*
X103337360Y-48568610D01*
X103339899Y-48568610D02*
X115730020Y-48568610D01*
X116535232Y-52571650D02*
G75*
G02X115737640Y-52576730I-398812J0D01*
G01*
X102537260Y-52614830D02*
X102537260Y-48169830D01*
X102930960Y-47768511D02*
G75*
G03X102538343Y-48144438I-1457J-391465D01*
G01*
X103337392Y-52569110D02*
G75*
G02X102539800Y-52574190I-398812J0D01*
G01*
X115737608Y-56968390D02*
G75*
G02X116535200Y-56963310I398812J0D01*
G01*
X102539768Y-56965850D02*
G75*
G02X103337360Y-56960770I398812J0D01*
G01*
X102933500Y-61769193D02*
G75*
G02X102537260Y-61385450I0J396443D01*
G01*
X115737640Y-56942962D02*
X115737640Y-60968890D01*
X116144040Y-61768989D02*
G75*
G03X116536657Y-61393062I1457J391465D01*
G01*
X115735101Y-60968890D02*
X103344980Y-60968890D01*
X103337360Y-60966370D02*
X103337360Y-56935370D01*
X102534720Y-61375290D02*
X102534720Y-56930290D01*
X116537740Y-56922670D02*
X116537740Y-61367670D01*
X116133880Y-61768990D02*
X102925880Y-61768990D01*
X135183880Y-66531490D02*
X121975880Y-66531490D01*
X135587740Y-61685170D02*
X135587740Y-66130170D01*
X121584720Y-66137790D02*
X121584720Y-61692790D01*
X122387360Y-65728870D02*
X122387360Y-61697870D01*
X134785101Y-65731390D02*
X122394980Y-65731390D01*
X135194040Y-66531489D02*
G75*
G03X135586657Y-66155562I1457J391465D01*
G01*
X134787640Y-61705462D02*
X134787640Y-65731390D01*
X121983500Y-66531693D02*
G75*
G02X121587260Y-66147950I0J396443D01*
G01*
X121589768Y-61728350D02*
G75*
G02X122387360Y-61723270I398812J0D01*
G01*
X134787608Y-61730890D02*
G75*
G02X135585200Y-61725810I398812J0D01*
G01*
X122387392Y-57331610D02*
G75*
G02X121589800Y-57336690I-398812J0D01*
G01*
X121980960Y-52531011D02*
G75*
G03X121588343Y-52906938I-1457J-391465D01*
G01*
X121587260Y-57377330D02*
X121587260Y-52932330D01*
X135585232Y-57334150D02*
G75*
G02X134787640Y-57339230I-398812J0D01*
G01*
X122389899Y-53331110D02*
X134780020Y-53331110D01*
X122387360Y-57357038D02*
X122387360Y-53331110D01*
X135590280Y-52924710D02*
X135590280Y-57369710D01*
X135191500Y-52530807D02*
G75*
G02X135587740Y-52914550I0J-396443D01*
G01*
X134787640Y-53333630D02*
X134787640Y-57364630D01*
X121991120Y-52531010D02*
X135199120Y-52531010D01*
X102941120Y-66818510D02*
X116149120Y-66818510D01*
X115737640Y-67621130D02*
X115737640Y-71652130D01*
X116141500Y-66818307D02*
G75*
G02X116537740Y-67202050I0J-396443D01*
G01*
X116540280Y-67212210D02*
X116540280Y-71657210D01*
X103337360Y-71644538D02*
X103337360Y-67618610D01*
X103339899Y-67618610D02*
X115730020Y-67618610D01*
X116535232Y-71621650D02*
G75*
G02X115737640Y-71626730I-398812J0D01*
G01*
X102537260Y-71664830D02*
X102537260Y-67219830D01*
X102930960Y-66818511D02*
G75*
G03X102538343Y-67194438I-1457J-391465D01*
G01*
X103337392Y-71619110D02*
G75*
G02X102539800Y-71624190I-398812J0D01*
G01*
X115737608Y-76018390D02*
G75*
G02X116535200Y-76013310I398812J0D01*
G01*
X102539768Y-76015850D02*
G75*
G02X103337360Y-76010770I398812J0D01*
G01*
X102933500Y-80819193D02*
G75*
G02X102537260Y-80435450I0J396443D01*
G01*
X115737640Y-75992962D02*
X115737640Y-80018890D01*
X116144040Y-80818989D02*
G75*
G03X116536657Y-80443062I1457J391465D01*
G01*
X115735101Y-80018890D02*
X103344980Y-80018890D01*
X103337360Y-80016370D02*
X103337360Y-75985370D01*
X102534720Y-80425290D02*
X102534720Y-75980290D01*
X116537740Y-75972670D02*
X116537740Y-80417670D01*
X116133880Y-80818990D02*
X102925880Y-80818990D01*
X135183880Y-85581490D02*
X121975880Y-85581490D01*
X135587740Y-80735170D02*
X135587740Y-85180170D01*
X121584720Y-85187790D02*
X121584720Y-80742790D01*
X122387360Y-84778870D02*
X122387360Y-80747870D01*
X134785101Y-84781390D02*
X122394980Y-84781390D01*
X135194040Y-85581489D02*
G75*
G03X135586657Y-85205562I1457J391465D01*
G01*
X134787640Y-80755462D02*
X134787640Y-84781390D01*
X121983500Y-85581693D02*
G75*
G02X121587260Y-85197950I0J396443D01*
G01*
X121589768Y-80778350D02*
G75*
G02X122387360Y-80773270I398812J0D01*
G01*
X134787608Y-80780890D02*
G75*
G02X135585200Y-80775810I398812J0D01*
G01*
X122387392Y-76381610D02*
G75*
G02X121589800Y-76386690I-398812J0D01*
G01*
X121980960Y-71581011D02*
G75*
G03X121588343Y-71956938I-1457J-391465D01*
G01*
X121587260Y-76427330D02*
X121587260Y-71982330D01*
X135585232Y-76384150D02*
G75*
G02X134787640Y-76389230I-398812J0D01*
G01*
X122389899Y-72381110D02*
X134780020Y-72381110D01*
X122387360Y-76407038D02*
X122387360Y-72381110D01*
X135590280Y-71974710D02*
X135590280Y-76419710D01*
X135191500Y-71580807D02*
G75*
G02X135587740Y-71964550I0J-396443D01*
G01*
X134787640Y-72383630D02*
X134787640Y-76414630D01*
X121991120Y-71581010D02*
X135199120Y-71581010D01*
X93416120Y-90631010D02*
X106624120Y-90631010D01*
X106212640Y-91433630D02*
X106212640Y-95464630D01*
X106616500Y-90630807D02*
G75*
G02X107012740Y-91014550I0J-396443D01*
G01*
X107015280Y-91024710D02*
X107015280Y-95469710D01*
X93812360Y-95457038D02*
X93812360Y-91431110D01*
X93814899Y-91431110D02*
X106205020Y-91431110D01*
X107010232Y-95434150D02*
G75*
G02X106212640Y-95439230I-398812J0D01*
G01*
X93012260Y-95477330D02*
X93012260Y-91032330D01*
X93405960Y-90631011D02*
G75*
G03X93013343Y-91006938I-1457J-391465D01*
G01*
X93812392Y-95431610D02*
G75*
G02X93014800Y-95436690I-398812J0D01*
G01*
X106212608Y-99830890D02*
G75*
G02X107010200Y-99825810I398812J0D01*
G01*
X93014768Y-99828350D02*
G75*
G02X93812360Y-99823270I398812J0D01*
G01*
X93408500Y-104631693D02*
G75*
G02X93012260Y-104247950I0J396443D01*
G01*
X106212640Y-99805462D02*
X106212640Y-103831390D01*
X106619040Y-104631489D02*
G75*
G03X107011657Y-104255562I1457J391465D01*
G01*
X106210101Y-103831390D02*
X93819980Y-103831390D01*
X93812360Y-103828870D02*
X93812360Y-99797870D01*
X93009720Y-104237790D02*
X93009720Y-99792790D01*
X107012740Y-99785170D02*
X107012740Y-104230170D01*
X106608880Y-104631490D02*
X93400880Y-104631490D01*
X125658880Y-104631490D02*
X112450880Y-104631490D01*
X126062740Y-99785170D02*
X126062740Y-104230170D01*
X112059720Y-104237790D02*
X112059720Y-99792790D01*
X112862360Y-103828870D02*
X112862360Y-99797870D01*
X125260101Y-103831390D02*
X112869980Y-103831390D01*
X125669040Y-104631489D02*
G75*
G03X126061657Y-104255562I1457J391465D01*
G01*
X125262640Y-99805462D02*
X125262640Y-103831390D01*
X112458500Y-104631693D02*
G75*
G02X112062260Y-104247950I0J396443D01*
G01*
X112064768Y-99828350D02*
G75*
G02X112862360Y-99823270I398812J0D01*
G01*
X125262608Y-99830890D02*
G75*
G02X126060200Y-99825810I398812J0D01*
G01*
X112862392Y-95431610D02*
G75*
G02X112064800Y-95436690I-398812J0D01*
G01*
X112455960Y-90631011D02*
G75*
G03X112063343Y-91006938I-1457J-391465D01*
G01*
X112062260Y-95477330D02*
X112062260Y-91032330D01*
X126060232Y-95434150D02*
G75*
G02X125262640Y-95439230I-398812J0D01*
G01*
X112864899Y-91431110D02*
X125255020Y-91431110D01*
X112862360Y-95457038D02*
X112862360Y-91431110D01*
X126065280Y-91024710D02*
X126065280Y-95469710D01*
X125666500Y-90630807D02*
G75*
G02X126062740Y-91014550I0J-396443D01*
G01*
X125262640Y-91433630D02*
X125262640Y-95464630D01*
X112466120Y-90631010D02*
X125674120Y-90631010D01*
X131516120Y-90631010D02*
X144724120Y-90631010D01*
X144312640Y-91433630D02*
X144312640Y-95464630D01*
X144716500Y-90630807D02*
G75*
G02X145112740Y-91014550I0J-396443D01*
G01*
X145115280Y-91024710D02*
X145115280Y-95469710D01*
X131912360Y-95457038D02*
X131912360Y-91431110D01*
X131914899Y-91431110D02*
X144305020Y-91431110D01*
X145110232Y-95434150D02*
G75*
G02X144312640Y-95439230I-398812J0D01*
G01*
X131112260Y-95477330D02*
X131112260Y-91032330D01*
X131505960Y-90631011D02*
G75*
G03X131113343Y-91006938I-1457J-391465D01*
G01*
X131912392Y-95431610D02*
G75*
G02X131114800Y-95436690I-398812J0D01*
G01*
X144312608Y-99830890D02*
G75*
G02X145110200Y-99825810I398812J0D01*
G01*
X131114768Y-99828350D02*
G75*
G02X131912360Y-99823270I398812J0D01*
G01*
X131508500Y-104631693D02*
G75*
G02X131112260Y-104247950I0J396443D01*
G01*
X144312640Y-99805462D02*
X144312640Y-103831390D01*
X144719040Y-104631489D02*
G75*
G03X145111657Y-104255562I1457J391465D01*
G01*
X144310101Y-103831390D02*
X131919980Y-103831390D01*
X131912360Y-103828870D02*
X131912360Y-99797870D01*
X131109720Y-104237790D02*
X131109720Y-99792790D01*
X145112740Y-99785170D02*
X145112740Y-104230170D01*
X144708880Y-104631490D02*
X131500880Y-104631490D01*
X163758880Y-104631490D02*
X150550880Y-104631490D01*
X164162740Y-99785170D02*
X164162740Y-104230170D01*
X150159720Y-104237790D02*
X150159720Y-99792790D01*
X150962360Y-103828870D02*
X150962360Y-99797870D01*
X163360101Y-103831390D02*
X150969980Y-103831390D01*
X163769040Y-104631489D02*
G75*
G03X164161657Y-104255562I1457J391465D01*
G01*
X163362640Y-99805462D02*
X163362640Y-103831390D01*
X150558500Y-104631693D02*
G75*
G02X150162260Y-104247950I0J396443D01*
G01*
X150164768Y-99828350D02*
G75*
G02X150962360Y-99823270I398812J0D01*
G01*
X163362608Y-99830890D02*
G75*
G02X164160200Y-99825810I398812J0D01*
G01*
X150962392Y-95431610D02*
G75*
G02X150164800Y-95436690I-398812J0D01*
G01*
X150555960Y-90631011D02*
G75*
G03X150163343Y-91006938I-1457J-391465D01*
G01*
X150162260Y-95477330D02*
X150162260Y-91032330D01*
X164160232Y-95434150D02*
G75*
G02X163362640Y-95439230I-398812J0D01*
G01*
X150964899Y-91431110D02*
X163355020Y-91431110D01*
X150962360Y-95457038D02*
X150962360Y-91431110D01*
X164165280Y-91024710D02*
X164165280Y-95469710D01*
X163766500Y-90630807D02*
G75*
G02X164162740Y-91014550I0J-396443D01*
G01*
X163362640Y-91433630D02*
X163362640Y-95464630D01*
X150566120Y-90631010D02*
X163774120Y-90631010D01*
X141041120Y-109681010D02*
X154249120Y-109681010D01*
X153837640Y-110483630D02*
X153837640Y-114514630D01*
X154241500Y-109680807D02*
G75*
G02X154637740Y-110064550I0J-396443D01*
G01*
X154640280Y-110074710D02*
X154640280Y-114519710D01*
X141437360Y-114507038D02*
X141437360Y-110481110D01*
X141439899Y-110481110D02*
X153830020Y-110481110D01*
X154635232Y-114484150D02*
G75*
G02X153837640Y-114489230I-398812J0D01*
G01*
X140637260Y-114527330D02*
X140637260Y-110082330D01*
X141030960Y-109681011D02*
G75*
G03X140638343Y-110056938I-1457J-391465D01*
G01*
X141437392Y-114481610D02*
G75*
G02X140639800Y-114486690I-398812J0D01*
G01*
X153837608Y-118880890D02*
G75*
G02X154635200Y-118875810I398812J0D01*
G01*
X140639768Y-118878350D02*
G75*
G02X141437360Y-118873270I398812J0D01*
G01*
X141033500Y-123681693D02*
G75*
G02X140637260Y-123297950I0J396443D01*
G01*
X153837640Y-118855462D02*
X153837640Y-122881390D01*
X154244040Y-123681489D02*
G75*
G03X154636657Y-123305562I1457J391465D01*
G01*
X153835101Y-122881390D02*
X141444980Y-122881390D01*
X141437360Y-122878870D02*
X141437360Y-118847870D01*
X140634720Y-123287790D02*
X140634720Y-118842790D01*
X154637740Y-118835170D02*
X154637740Y-123280170D01*
X154233880Y-123681490D02*
X141025880Y-123681490D01*
X97083880Y-76056490D02*
X83875880Y-76056490D01*
X97487740Y-71210170D02*
X97487740Y-75655170D01*
X83484720Y-75662790D02*
X83484720Y-71217790D01*
X84287360Y-75253870D02*
X84287360Y-71222870D01*
X96685101Y-75256390D02*
X84294980Y-75256390D01*
X97094040Y-76056489D02*
G75*
G03X97486657Y-75680562I1457J391465D01*
G01*
X96687640Y-71230462D02*
X96687640Y-75256390D01*
X83883500Y-76056693D02*
G75*
G02X83487260Y-75672950I0J396443D01*
G01*
X83489768Y-71253350D02*
G75*
G02X84287360Y-71248270I398812J0D01*
G01*
X96687608Y-71255890D02*
G75*
G02X97485200Y-71250810I398812J0D01*
G01*
X84287392Y-66856610D02*
G75*
G02X83489800Y-66861690I-398812J0D01*
G01*
X83880960Y-62056011D02*
G75*
G03X83488343Y-62431938I-1457J-391465D01*
G01*
X83487260Y-66902330D02*
X83487260Y-62457330D01*
X97485232Y-66859150D02*
G75*
G02X96687640Y-66864230I-398812J0D01*
G01*
X84289899Y-62856110D02*
X96680020Y-62856110D01*
X84287360Y-66882038D02*
X84287360Y-62856110D01*
X97490280Y-62449710D02*
X97490280Y-66894710D01*
X97091500Y-62055807D02*
G75*
G02X97487740Y-62439550I0J-396443D01*
G01*
X96687640Y-62858630D02*
X96687640Y-66889630D01*
X83891120Y-62056010D02*
X97099120Y-62056010D01*
X64841120Y-66818510D02*
X78049120Y-66818510D01*
X77637640Y-67621130D02*
X77637640Y-71652130D01*
X78041500Y-66818307D02*
G75*
G02X78437740Y-67202050I0J-396443D01*
G01*
X78440280Y-67212210D02*
X78440280Y-71657210D01*
X65237360Y-71644538D02*
X65237360Y-67618610D01*
X65239899Y-67618610D02*
X77630020Y-67618610D01*
X78435232Y-71621650D02*
G75*
G02X77637640Y-71626730I-398812J0D01*
G01*
X64437260Y-71664830D02*
X64437260Y-67219830D01*
X64830960Y-66818511D02*
G75*
G03X64438343Y-67194438I-1457J-391465D01*
G01*
X65237392Y-71619110D02*
G75*
G02X64439800Y-71624190I-398812J0D01*
G01*
X77637608Y-76018390D02*
G75*
G02X78435200Y-76013310I398812J0D01*
G01*
X64439768Y-76015850D02*
G75*
G02X65237360Y-76010770I398812J0D01*
G01*
X64833500Y-80819193D02*
G75*
G02X64437260Y-80435450I0J396443D01*
G01*
X77637640Y-75992962D02*
X77637640Y-80018890D01*
X78044040Y-80818989D02*
G75*
G03X78436657Y-80443062I1457J391465D01*
G01*
X77635101Y-80018890D02*
X65244980Y-80018890D01*
X65237360Y-80016370D02*
X65237360Y-75985370D01*
X64434720Y-80425290D02*
X64434720Y-75980290D01*
X78437740Y-75972670D02*
X78437740Y-80417670D01*
X78033880Y-80818990D02*
X64825880Y-80818990D01*
X49458880Y-57006490D02*
X36250880Y-57006490D01*
X49862740Y-52160170D02*
X49862740Y-56605170D01*
X35859720Y-56612790D02*
X35859720Y-52167790D01*
X36662360Y-56203870D02*
X36662360Y-52172870D01*
X49060101Y-56206390D02*
X36669980Y-56206390D01*
X49469040Y-57006489D02*
G75*
G03X49861657Y-56630562I1457J391465D01*
G01*
X49062640Y-52180462D02*
X49062640Y-56206390D01*
X36258500Y-57006693D02*
G75*
G02X35862260Y-56622950I0J396443D01*
G01*
X35864768Y-52203350D02*
G75*
G02X36662360Y-52198270I398812J0D01*
G01*
X49062608Y-52205890D02*
G75*
G02X49860200Y-52200810I398812J0D01*
G01*
X36662392Y-47806610D02*
G75*
G02X35864800Y-47811690I-398812J0D01*
G01*
X36255960Y-43006011D02*
G75*
G03X35863343Y-43381938I-1457J-391465D01*
G01*
X35862260Y-47852330D02*
X35862260Y-43407330D01*
X49860232Y-47809150D02*
G75*
G02X49062640Y-47814230I-398812J0D01*
G01*
X36664899Y-43806110D02*
X49055020Y-43806110D01*
X36662360Y-47832038D02*
X36662360Y-43806110D01*
X49865280Y-43399710D02*
X49865280Y-47844710D01*
X49466500Y-43005807D02*
G75*
G02X49862740Y-43389550I0J-396443D01*
G01*
X49062640Y-43808630D02*
X49062640Y-47839630D01*
X36266120Y-43006010D02*
X49474120Y-43006010D01*
M02*
