G04 #@! TF.GenerationSoftware,KiCad,Pcbnew,(5.0.0-rc2-dev-301-g33f795be4)*
G04 #@! TF.CreationDate,2018-03-30T23:59:37+02:00*
G04 #@! TF.ProjectId,kissboard,6B697373626F6172642E6B696361645F,rev?*
G04 #@! TF.SameCoordinates,Original*
G04 #@! TF.FileFunction,Legend,Top*
G04 #@! TF.FilePolarity,Positive*
%FSLAX46Y46*%
G04 Gerber Fmt 4.6, Leading zero omitted, Abs format (unit mm)*
G04 Created by KiCad (PCBNEW (5.0.0-rc2-dev-301-g33f795be4)) date 03/30/18 23:59:37*
%MOMM*%
%LPD*%
G01*
G04 APERTURE LIST*
%ADD10C,0.300000*%
%ADD11C,0.150000*%
G04 APERTURE END LIST*
D10*
X46760785Y-95611071D02*
X46760785Y-94111071D01*
X47617928Y-95611071D02*
X46975071Y-94753928D01*
X47617928Y-94111071D02*
X46760785Y-94968214D01*
X48260785Y-95611071D02*
X48260785Y-94111071D01*
X48903642Y-95539642D02*
X49117928Y-95611071D01*
X49475071Y-95611071D01*
X49617928Y-95539642D01*
X49689357Y-95468214D01*
X49760785Y-95325357D01*
X49760785Y-95182500D01*
X49689357Y-95039642D01*
X49617928Y-94968214D01*
X49475071Y-94896785D01*
X49189357Y-94825357D01*
X49046500Y-94753928D01*
X48975071Y-94682500D01*
X48903642Y-94539642D01*
X48903642Y-94396785D01*
X48975071Y-94253928D01*
X49046500Y-94182500D01*
X49189357Y-94111071D01*
X49546500Y-94111071D01*
X49760785Y-94182500D01*
X50332214Y-95539642D02*
X50546500Y-95611071D01*
X50903642Y-95611071D01*
X51046500Y-95539642D01*
X51117928Y-95468214D01*
X51189357Y-95325357D01*
X51189357Y-95182500D01*
X51117928Y-95039642D01*
X51046500Y-94968214D01*
X50903642Y-94896785D01*
X50617928Y-94825357D01*
X50475071Y-94753928D01*
X50403642Y-94682500D01*
X50332214Y-94539642D01*
X50332214Y-94396785D01*
X50403642Y-94253928D01*
X50475071Y-94182500D01*
X50617928Y-94111071D01*
X50975071Y-94111071D01*
X51189357Y-94182500D01*
X52332214Y-94825357D02*
X52546500Y-94896785D01*
X52617928Y-94968214D01*
X52689357Y-95111071D01*
X52689357Y-95325357D01*
X52617928Y-95468214D01*
X52546500Y-95539642D01*
X52403642Y-95611071D01*
X51832214Y-95611071D01*
X51832214Y-94111071D01*
X52332214Y-94111071D01*
X52475071Y-94182500D01*
X52546500Y-94253928D01*
X52617928Y-94396785D01*
X52617928Y-94539642D01*
X52546500Y-94682500D01*
X52475071Y-94753928D01*
X52332214Y-94825357D01*
X51832214Y-94825357D01*
X53617928Y-94111071D02*
X53903642Y-94111071D01*
X54046500Y-94182500D01*
X54189357Y-94325357D01*
X54260785Y-94611071D01*
X54260785Y-95111071D01*
X54189357Y-95396785D01*
X54046500Y-95539642D01*
X53903642Y-95611071D01*
X53617928Y-95611071D01*
X53475071Y-95539642D01*
X53332214Y-95396785D01*
X53260785Y-95111071D01*
X53260785Y-94611071D01*
X53332214Y-94325357D01*
X53475071Y-94182500D01*
X53617928Y-94111071D01*
X54832214Y-95182500D02*
X55546500Y-95182500D01*
X54689357Y-95611071D02*
X55189357Y-94111071D01*
X55689357Y-95611071D01*
X57046500Y-95611071D02*
X56546500Y-94896785D01*
X56189357Y-95611071D02*
X56189357Y-94111071D01*
X56760785Y-94111071D01*
X56903642Y-94182500D01*
X56975071Y-94253928D01*
X57046500Y-94396785D01*
X57046500Y-94611071D01*
X56975071Y-94753928D01*
X56903642Y-94825357D01*
X56760785Y-94896785D01*
X56189357Y-94896785D01*
X57689357Y-95611071D02*
X57689357Y-94111071D01*
X58046500Y-94111071D01*
X58260785Y-94182500D01*
X58403642Y-94325357D01*
X58475071Y-94468214D01*
X58546500Y-94753928D01*
X58546500Y-94968214D01*
X58475071Y-95253928D01*
X58403642Y-95396785D01*
X58260785Y-95539642D01*
X58046500Y-95611071D01*
X57689357Y-95611071D01*
X60117928Y-94111071D02*
X60617928Y-95611071D01*
X61117928Y-94111071D01*
X62403642Y-95611071D02*
X61546500Y-95611071D01*
X61975071Y-95611071D02*
X61975071Y-94111071D01*
X61832214Y-94325357D01*
X61689357Y-94468214D01*
X61546500Y-94539642D01*
D11*
X93717000Y-105681000D02*
X93717000Y-104281000D01*
X76717000Y-125081000D02*
X93717000Y-125081000D01*
X76717000Y-104281000D02*
X76717000Y-105681000D01*
X93717000Y-104281000D02*
X92717000Y-104281000D01*
X93717000Y-125081000D02*
X93717000Y-121681000D01*
X76717000Y-121681000D02*
X76717000Y-125081000D01*
X76717000Y-104281000D02*
X77717000Y-104281000D01*
X78827380Y-118062333D02*
X79541666Y-118062333D01*
X79684523Y-118109952D01*
X79779761Y-118205190D01*
X79827380Y-118348047D01*
X79827380Y-118443285D01*
X79827380Y-117062333D02*
X79827380Y-117633761D01*
X79827380Y-117348047D02*
X78827380Y-117348047D01*
X78970238Y-117443285D01*
X79065476Y-117538523D01*
X79113095Y-117633761D01*
X58142285Y-107497571D02*
X58285142Y-107545190D01*
X58332761Y-107592809D01*
X58380380Y-107688047D01*
X58380380Y-107830904D01*
X58332761Y-107926142D01*
X58285142Y-107973761D01*
X58189904Y-108021380D01*
X57808952Y-108021380D01*
X57808952Y-107021380D01*
X58142285Y-107021380D01*
X58237523Y-107069000D01*
X58285142Y-107116619D01*
X58332761Y-107211857D01*
X58332761Y-107307095D01*
X58285142Y-107402333D01*
X58237523Y-107449952D01*
X58142285Y-107497571D01*
X57808952Y-107497571D01*
X58666095Y-107021380D02*
X59237523Y-107021380D01*
X58951809Y-108021380D02*
X58951809Y-107021380D01*
X60094666Y-108021380D02*
X59523238Y-108021380D01*
X59808952Y-108021380D02*
X59808952Y-107021380D01*
X59713714Y-107164238D01*
X59618476Y-107259476D01*
X59523238Y-107307095D01*
X84455095Y-106513380D02*
X84455095Y-107322904D01*
X84502714Y-107418142D01*
X84550333Y-107465761D01*
X84645571Y-107513380D01*
X84836047Y-107513380D01*
X84931285Y-107465761D01*
X84978904Y-107418142D01*
X85026523Y-107322904D01*
X85026523Y-106513380D01*
X86026523Y-107513380D02*
X85455095Y-107513380D01*
X85740809Y-107513380D02*
X85740809Y-106513380D01*
X85645571Y-106656238D01*
X85550333Y-106751476D01*
X85455095Y-106799095D01*
M02*
