G04 #@! TF.GenerationSoftware,KiCad,Pcbnew,(5.0.0-rc2-dev-301-g33f795be4)*
G04 #@! TF.CreationDate,2018-03-30T23:59:37+02:00*
G04 #@! TF.ProjectId,kissboard,6B697373626F6172642E6B696361645F,rev?*
G04 #@! TF.SameCoordinates,Original*
G04 #@! TF.FileFunction,Soldermask,Top*
G04 #@! TF.FilePolarity,Negative*
%FSLAX46Y46*%
G04 Gerber Fmt 4.6, Leading zero omitted, Abs format (unit mm)*
G04 Created by KiCad (PCBNEW (5.0.0-rc2-dev-301-g33f795be4)) date 03/30/18 23:59:37*
%MOMM*%
%LPD*%
G01*
G04 APERTURE LIST*
%ADD10C,1.400000*%
%ADD11O,2.900000X2.200000*%
%ADD12C,2.900000*%
%ADD13C,2.400000*%
%ADD14C,4.700000*%
%ADD15C,2.000000*%
%ADD16C,1.900000*%
%ADD17R,1.900000X1.900000*%
%ADD18O,15.400000X8.900000*%
%ADD19O,1.050000X1.950000*%
%ADD20R,1.200000X2.900000*%
%ADD21R,2.900000X1.200000*%
G04 APERTURE END LIST*
D10*
X150462500Y-115681250D03*
X150462500Y-117681250D03*
X150462500Y-116681250D03*
D11*
X159702500Y-121558050D03*
D12*
X153352500Y-119221250D03*
D11*
X154622500Y-121558050D03*
D12*
X160972500Y-119221250D03*
D13*
X152082500Y-116681250D03*
X162242500Y-116681250D03*
D14*
X157162500Y-116681250D03*
D10*
X163862500Y-116681250D03*
X163862500Y-115681250D03*
X163862500Y-117681250D03*
D15*
X158432500Y-111601250D03*
X155892500Y-111601250D03*
D16*
X89535000Y-117729000D03*
X86995000Y-117729000D03*
X84455000Y-117729000D03*
D17*
X81915000Y-117729000D03*
D13*
X47228000Y-115189000D03*
X70628000Y-115189000D03*
D18*
X58928000Y-115189000D03*
D10*
X45687500Y-77581250D03*
X45687500Y-79581250D03*
X45687500Y-78581250D03*
D11*
X54927500Y-83458050D03*
D12*
X48577500Y-81121250D03*
D11*
X49847500Y-83458050D03*
D12*
X56197500Y-81121250D03*
D13*
X47307500Y-78581250D03*
X57467500Y-78581250D03*
D14*
X52387500Y-78581250D03*
D10*
X59087500Y-78581250D03*
X59087500Y-77581250D03*
X59087500Y-79581250D03*
D15*
X53657500Y-73501250D03*
X51117500Y-73501250D03*
X65405000Y-30638750D03*
X67945000Y-30638750D03*
D10*
X73375000Y-36718750D03*
X73375000Y-34718750D03*
X73375000Y-35718750D03*
D14*
X66675000Y-35718750D03*
D13*
X71755000Y-35718750D03*
X61595000Y-35718750D03*
D12*
X70485000Y-38258750D03*
D11*
X64135000Y-40595550D03*
D12*
X62865000Y-38258750D03*
D11*
X69215000Y-40595550D03*
D10*
X59975000Y-35718750D03*
X59975000Y-36718750D03*
X59975000Y-34718750D03*
X83787500Y-29956250D03*
X83787500Y-31956250D03*
X83787500Y-30956250D03*
D11*
X93027500Y-35833050D03*
D12*
X86677500Y-33496250D03*
D11*
X87947500Y-35833050D03*
D12*
X94297500Y-33496250D03*
D13*
X85407500Y-30956250D03*
X95567500Y-30956250D03*
D14*
X90487500Y-30956250D03*
D10*
X97187500Y-30956250D03*
X97187500Y-29956250D03*
X97187500Y-31956250D03*
D15*
X91757500Y-25876250D03*
X89217500Y-25876250D03*
X108267500Y-30638750D03*
X110807500Y-30638750D03*
D10*
X116237500Y-36718750D03*
X116237500Y-34718750D03*
X116237500Y-35718750D03*
D14*
X109537500Y-35718750D03*
D13*
X114617500Y-35718750D03*
X104457500Y-35718750D03*
D12*
X113347500Y-38258750D03*
D11*
X106997500Y-40595550D03*
D12*
X105727500Y-38258750D03*
D11*
X112077500Y-40595550D03*
D10*
X102837500Y-35718750D03*
X102837500Y-36718750D03*
X102837500Y-34718750D03*
X121887500Y-39481250D03*
X121887500Y-41481250D03*
X121887500Y-40481250D03*
D11*
X131127500Y-45358050D03*
D12*
X124777500Y-43021250D03*
D11*
X126047500Y-45358050D03*
D12*
X132397500Y-43021250D03*
D13*
X123507500Y-40481250D03*
X133667500Y-40481250D03*
D14*
X128587500Y-40481250D03*
D10*
X135287500Y-40481250D03*
X135287500Y-39481250D03*
X135287500Y-41481250D03*
D15*
X129857500Y-35401250D03*
X127317500Y-35401250D03*
X51117500Y-54451250D03*
X53657500Y-54451250D03*
D10*
X59087500Y-60531250D03*
X59087500Y-58531250D03*
X59087500Y-59531250D03*
D14*
X52387500Y-59531250D03*
D13*
X57467500Y-59531250D03*
X47307500Y-59531250D03*
D12*
X56197500Y-62071250D03*
D11*
X49847500Y-64408050D03*
D12*
X48577500Y-62071250D03*
D11*
X54927500Y-64408050D03*
D10*
X45687500Y-59531250D03*
X45687500Y-60531250D03*
X45687500Y-58531250D03*
X64737500Y-53768750D03*
X64737500Y-55768750D03*
X64737500Y-54768750D03*
D11*
X73977500Y-59645550D03*
D12*
X67627500Y-57308750D03*
D11*
X68897500Y-59645550D03*
D12*
X75247500Y-57308750D03*
D13*
X66357500Y-54768750D03*
X76517500Y-54768750D03*
D14*
X71437500Y-54768750D03*
D10*
X78137500Y-54768750D03*
X78137500Y-53768750D03*
X78137500Y-55768750D03*
D15*
X72707500Y-49688750D03*
X70167500Y-49688750D03*
X89217500Y-44926250D03*
X91757500Y-44926250D03*
D10*
X97187500Y-51006250D03*
X97187500Y-49006250D03*
X97187500Y-50006250D03*
D14*
X90487500Y-50006250D03*
D13*
X95567500Y-50006250D03*
X85407500Y-50006250D03*
D12*
X94297500Y-52546250D03*
D11*
X87947500Y-54883050D03*
D12*
X86677500Y-52546250D03*
D11*
X93027500Y-54883050D03*
D10*
X83787500Y-50006250D03*
X83787500Y-51006250D03*
X83787500Y-49006250D03*
X102837500Y-53768750D03*
X102837500Y-55768750D03*
X102837500Y-54768750D03*
D11*
X112077500Y-59645550D03*
D12*
X105727500Y-57308750D03*
D11*
X106997500Y-59645550D03*
D12*
X113347500Y-57308750D03*
D13*
X104457500Y-54768750D03*
X114617500Y-54768750D03*
D14*
X109537500Y-54768750D03*
D10*
X116237500Y-54768750D03*
X116237500Y-53768750D03*
X116237500Y-55768750D03*
D15*
X110807500Y-49688750D03*
X108267500Y-49688750D03*
X127317500Y-54451250D03*
X129857500Y-54451250D03*
D10*
X135287500Y-60531250D03*
X135287500Y-58531250D03*
X135287500Y-59531250D03*
D14*
X128587500Y-59531250D03*
D13*
X133667500Y-59531250D03*
X123507500Y-59531250D03*
D12*
X132397500Y-62071250D03*
D11*
X126047500Y-64408050D03*
D12*
X124777500Y-62071250D03*
D11*
X131127500Y-64408050D03*
D10*
X121887500Y-59531250D03*
X121887500Y-60531250D03*
X121887500Y-58531250D03*
X102837500Y-72818750D03*
X102837500Y-74818750D03*
X102837500Y-73818750D03*
D11*
X112077500Y-78695550D03*
D12*
X105727500Y-76358750D03*
D11*
X106997500Y-78695550D03*
D12*
X113347500Y-76358750D03*
D13*
X104457500Y-73818750D03*
X114617500Y-73818750D03*
D14*
X109537500Y-73818750D03*
D10*
X116237500Y-73818750D03*
X116237500Y-72818750D03*
X116237500Y-74818750D03*
D15*
X110807500Y-68738750D03*
X108267500Y-68738750D03*
X127317500Y-73501250D03*
X129857500Y-73501250D03*
D10*
X135287500Y-79581250D03*
X135287500Y-77581250D03*
X135287500Y-78581250D03*
D14*
X128587500Y-78581250D03*
D13*
X133667500Y-78581250D03*
X123507500Y-78581250D03*
D12*
X132397500Y-81121250D03*
D11*
X126047500Y-83458050D03*
D12*
X124777500Y-81121250D03*
D11*
X131127500Y-83458050D03*
D10*
X121887500Y-78581250D03*
X121887500Y-79581250D03*
X121887500Y-77581250D03*
X83787500Y-87106250D03*
X83787500Y-89106250D03*
X83787500Y-88106250D03*
D11*
X93027500Y-92983050D03*
D12*
X86677500Y-90646250D03*
D11*
X87947500Y-92983050D03*
D12*
X94297500Y-90646250D03*
D13*
X85407500Y-88106250D03*
X95567500Y-88106250D03*
D14*
X90487500Y-88106250D03*
D10*
X97187500Y-88106250D03*
X97187500Y-87106250D03*
X97187500Y-89106250D03*
D15*
X91757500Y-83026250D03*
X89217500Y-83026250D03*
X108267500Y-87788750D03*
X110807500Y-87788750D03*
D10*
X116237500Y-93868750D03*
X116237500Y-91868750D03*
X116237500Y-92868750D03*
D14*
X109537500Y-92868750D03*
D13*
X114617500Y-92868750D03*
X104457500Y-92868750D03*
D12*
X113347500Y-95408750D03*
D11*
X106997500Y-97745550D03*
D12*
X105727500Y-95408750D03*
D11*
X112077500Y-97745550D03*
D10*
X102837500Y-92868750D03*
X102837500Y-93868750D03*
X102837500Y-91868750D03*
X121887500Y-96631250D03*
X121887500Y-98631250D03*
X121887500Y-97631250D03*
D11*
X131127500Y-102508050D03*
D12*
X124777500Y-100171250D03*
D11*
X126047500Y-102508050D03*
D12*
X132397500Y-100171250D03*
D13*
X123507500Y-97631250D03*
X133667500Y-97631250D03*
D14*
X128587500Y-97631250D03*
D10*
X135287500Y-97631250D03*
X135287500Y-96631250D03*
X135287500Y-98631250D03*
D15*
X129857500Y-92551250D03*
X127317500Y-92551250D03*
X146367500Y-92551250D03*
X148907500Y-92551250D03*
D10*
X154337500Y-98631250D03*
X154337500Y-96631250D03*
X154337500Y-97631250D03*
D14*
X147637500Y-97631250D03*
D13*
X152717500Y-97631250D03*
X142557500Y-97631250D03*
D12*
X151447500Y-100171250D03*
D11*
X145097500Y-102508050D03*
D12*
X143827500Y-100171250D03*
D11*
X150177500Y-102508050D03*
D10*
X140937500Y-97631250D03*
X140937500Y-98631250D03*
X140937500Y-96631250D03*
X131412500Y-115681250D03*
X131412500Y-117681250D03*
X131412500Y-116681250D03*
D11*
X140652500Y-121558050D03*
D12*
X134302500Y-119221250D03*
D11*
X135572500Y-121558050D03*
D12*
X141922500Y-119221250D03*
D13*
X133032500Y-116681250D03*
X143192500Y-116681250D03*
D14*
X138112500Y-116681250D03*
D10*
X144812500Y-116681250D03*
X144812500Y-115681250D03*
X144812500Y-117681250D03*
D15*
X139382500Y-111601250D03*
X136842500Y-111601250D03*
X89217500Y-63976250D03*
X91757500Y-63976250D03*
D10*
X97187500Y-70056250D03*
X97187500Y-68056250D03*
X97187500Y-69056250D03*
D14*
X90487500Y-69056250D03*
D13*
X95567500Y-69056250D03*
X85407500Y-69056250D03*
D12*
X94297500Y-71596250D03*
D11*
X87947500Y-73933050D03*
D12*
X86677500Y-71596250D03*
D11*
X93027500Y-73933050D03*
D10*
X83787500Y-69056250D03*
X83787500Y-70056250D03*
X83787500Y-68056250D03*
X64737500Y-72818750D03*
X64737500Y-74818750D03*
X64737500Y-73818750D03*
D11*
X73977500Y-78695550D03*
D12*
X67627500Y-76358750D03*
D11*
X68897500Y-78695550D03*
D12*
X75247500Y-76358750D03*
D13*
X66357500Y-73818750D03*
X76517500Y-73818750D03*
D14*
X71437500Y-73818750D03*
D10*
X78137500Y-73818750D03*
X78137500Y-72818750D03*
X78137500Y-74818750D03*
D15*
X72707500Y-68738750D03*
X70167500Y-68738750D03*
D19*
X84521000Y-111434000D03*
X86421000Y-111434000D03*
X85471000Y-108784000D03*
D15*
X41592500Y-35401250D03*
X44132500Y-35401250D03*
D10*
X49562500Y-41481250D03*
X49562500Y-39481250D03*
X49562500Y-40481250D03*
D14*
X42862500Y-40481250D03*
D13*
X47942500Y-40481250D03*
X37782500Y-40481250D03*
D12*
X46672500Y-43021250D03*
D11*
X40322500Y-45358050D03*
D12*
X39052500Y-43021250D03*
D11*
X45402500Y-45358050D03*
D10*
X36162500Y-40481250D03*
X36162500Y-41481250D03*
X36162500Y-39481250D03*
D20*
X91267000Y-103781000D03*
X90167000Y-103781000D03*
X89067000Y-103781000D03*
X87967000Y-103781000D03*
X86867000Y-103781000D03*
X85767000Y-103781000D03*
X84667000Y-103781000D03*
X83567000Y-103781000D03*
X82467000Y-103781000D03*
X81367000Y-103781000D03*
X80267000Y-103781000D03*
X79167000Y-103781000D03*
D21*
X94217000Y-119481000D03*
X94217000Y-118381000D03*
X94217000Y-117281000D03*
X94217000Y-116181000D03*
X94217000Y-115081000D03*
X94217000Y-113981000D03*
X94217000Y-112881000D03*
X94217000Y-111781000D03*
X94217000Y-110681000D03*
X94217000Y-109581000D03*
X94217000Y-108481000D03*
X94217000Y-107381000D03*
X76217000Y-107381000D03*
X76217000Y-108481000D03*
X76217000Y-109581000D03*
X76217000Y-110681000D03*
X76217000Y-111781000D03*
X76217000Y-112881000D03*
X76217000Y-113981000D03*
X76217000Y-115081000D03*
X76217000Y-116181000D03*
X76217000Y-117281000D03*
X76217000Y-118381000D03*
X76217000Y-119481000D03*
M02*
