G04 #@! TF.GenerationSoftware,KiCad,Pcbnew,(5.0.0-rc2-dev-301-g33f795be4)*
G04 #@! TF.CreationDate,2018-03-30T23:59:37+02:00*
G04 #@! TF.ProjectId,kissboard,6B697373626F6172642E6B696361645F,rev?*
G04 #@! TF.SameCoordinates,Original*
G04 #@! TF.FileFunction,Copper,L2,Bot,Signal*
G04 #@! TF.FilePolarity,Positive*
%FSLAX46Y46*%
G04 Gerber Fmt 4.6, Leading zero omitted, Abs format (unit mm)*
G04 Created by KiCad (PCBNEW (5.0.0-rc2-dev-301-g33f795be4)) date 03/30/18 23:59:37*
%MOMM*%
%LPD*%
G01*
G04 APERTURE LIST*
%ADD10C,1.000000*%
%ADD11O,2.500000X1.800000*%
%ADD12C,2.500000*%
%ADD13C,2.000000*%
%ADD14C,4.300000*%
%ADD15C,1.600000*%
%ADD16C,1.500000*%
%ADD17R,1.500000X1.500000*%
%ADD18O,15.000000X8.500000*%
%ADD19O,0.650000X1.550000*%
%ADD20R,0.800000X2.500000*%
%ADD21R,2.500000X0.800000*%
%ADD22C,0.800000*%
%ADD23C,0.250000*%
%ADD24C,1.270000*%
%ADD25C,2.540000*%
%ADD26C,0.500000*%
G04 APERTURE END LIST*
D10*
X150462500Y-115681250D03*
X150462500Y-117681250D03*
X150462500Y-116681250D03*
D11*
X159702500Y-121558050D03*
D12*
X153352500Y-119221250D03*
D11*
X154622500Y-121558050D03*
D12*
X160972500Y-119221250D03*
D13*
X152082500Y-116681250D03*
X162242500Y-116681250D03*
D14*
X157162500Y-116681250D03*
D10*
X163862500Y-116681250D03*
X163862500Y-115681250D03*
X163862500Y-117681250D03*
D15*
X158432500Y-111601250D03*
X155892500Y-111601250D03*
D16*
X89535000Y-117729000D03*
X86995000Y-117729000D03*
X84455000Y-117729000D03*
D17*
X81915000Y-117729000D03*
D13*
X47228000Y-115189000D03*
X70628000Y-115189000D03*
D18*
X58928000Y-115189000D03*
D10*
X45687500Y-77581250D03*
X45687500Y-79581250D03*
X45687500Y-78581250D03*
D11*
X54927500Y-83458050D03*
D12*
X48577500Y-81121250D03*
D11*
X49847500Y-83458050D03*
D12*
X56197500Y-81121250D03*
D13*
X47307500Y-78581250D03*
X57467500Y-78581250D03*
D14*
X52387500Y-78581250D03*
D10*
X59087500Y-78581250D03*
X59087500Y-77581250D03*
X59087500Y-79581250D03*
D15*
X53657500Y-73501250D03*
X51117500Y-73501250D03*
X65405000Y-30638750D03*
X67945000Y-30638750D03*
D10*
X73375000Y-36718750D03*
X73375000Y-34718750D03*
X73375000Y-35718750D03*
D14*
X66675000Y-35718750D03*
D13*
X71755000Y-35718750D03*
X61595000Y-35718750D03*
D12*
X70485000Y-38258750D03*
D11*
X64135000Y-40595550D03*
D12*
X62865000Y-38258750D03*
D11*
X69215000Y-40595550D03*
D10*
X59975000Y-35718750D03*
X59975000Y-36718750D03*
X59975000Y-34718750D03*
X83787500Y-29956250D03*
X83787500Y-31956250D03*
X83787500Y-30956250D03*
D11*
X93027500Y-35833050D03*
D12*
X86677500Y-33496250D03*
D11*
X87947500Y-35833050D03*
D12*
X94297500Y-33496250D03*
D13*
X85407500Y-30956250D03*
X95567500Y-30956250D03*
D14*
X90487500Y-30956250D03*
D10*
X97187500Y-30956250D03*
X97187500Y-29956250D03*
X97187500Y-31956250D03*
D15*
X91757500Y-25876250D03*
X89217500Y-25876250D03*
X108267500Y-30638750D03*
X110807500Y-30638750D03*
D10*
X116237500Y-36718750D03*
X116237500Y-34718750D03*
X116237500Y-35718750D03*
D14*
X109537500Y-35718750D03*
D13*
X114617500Y-35718750D03*
X104457500Y-35718750D03*
D12*
X113347500Y-38258750D03*
D11*
X106997500Y-40595550D03*
D12*
X105727500Y-38258750D03*
D11*
X112077500Y-40595550D03*
D10*
X102837500Y-35718750D03*
X102837500Y-36718750D03*
X102837500Y-34718750D03*
X121887500Y-39481250D03*
X121887500Y-41481250D03*
X121887500Y-40481250D03*
D11*
X131127500Y-45358050D03*
D12*
X124777500Y-43021250D03*
D11*
X126047500Y-45358050D03*
D12*
X132397500Y-43021250D03*
D13*
X123507500Y-40481250D03*
X133667500Y-40481250D03*
D14*
X128587500Y-40481250D03*
D10*
X135287500Y-40481250D03*
X135287500Y-39481250D03*
X135287500Y-41481250D03*
D15*
X129857500Y-35401250D03*
X127317500Y-35401250D03*
X51117500Y-54451250D03*
X53657500Y-54451250D03*
D10*
X59087500Y-60531250D03*
X59087500Y-58531250D03*
X59087500Y-59531250D03*
D14*
X52387500Y-59531250D03*
D13*
X57467500Y-59531250D03*
X47307500Y-59531250D03*
D12*
X56197500Y-62071250D03*
D11*
X49847500Y-64408050D03*
D12*
X48577500Y-62071250D03*
D11*
X54927500Y-64408050D03*
D10*
X45687500Y-59531250D03*
X45687500Y-60531250D03*
X45687500Y-58531250D03*
X64737500Y-53768750D03*
X64737500Y-55768750D03*
X64737500Y-54768750D03*
D11*
X73977500Y-59645550D03*
D12*
X67627500Y-57308750D03*
D11*
X68897500Y-59645550D03*
D12*
X75247500Y-57308750D03*
D13*
X66357500Y-54768750D03*
X76517500Y-54768750D03*
D14*
X71437500Y-54768750D03*
D10*
X78137500Y-54768750D03*
X78137500Y-53768750D03*
X78137500Y-55768750D03*
D15*
X72707500Y-49688750D03*
X70167500Y-49688750D03*
X89217500Y-44926250D03*
X91757500Y-44926250D03*
D10*
X97187500Y-51006250D03*
X97187500Y-49006250D03*
X97187500Y-50006250D03*
D14*
X90487500Y-50006250D03*
D13*
X95567500Y-50006250D03*
X85407500Y-50006250D03*
D12*
X94297500Y-52546250D03*
D11*
X87947500Y-54883050D03*
D12*
X86677500Y-52546250D03*
D11*
X93027500Y-54883050D03*
D10*
X83787500Y-50006250D03*
X83787500Y-51006250D03*
X83787500Y-49006250D03*
X102837500Y-53768750D03*
X102837500Y-55768750D03*
X102837500Y-54768750D03*
D11*
X112077500Y-59645550D03*
D12*
X105727500Y-57308750D03*
D11*
X106997500Y-59645550D03*
D12*
X113347500Y-57308750D03*
D13*
X104457500Y-54768750D03*
X114617500Y-54768750D03*
D14*
X109537500Y-54768750D03*
D10*
X116237500Y-54768750D03*
X116237500Y-53768750D03*
X116237500Y-55768750D03*
D15*
X110807500Y-49688750D03*
X108267500Y-49688750D03*
X127317500Y-54451250D03*
X129857500Y-54451250D03*
D10*
X135287500Y-60531250D03*
X135287500Y-58531250D03*
X135287500Y-59531250D03*
D14*
X128587500Y-59531250D03*
D13*
X133667500Y-59531250D03*
X123507500Y-59531250D03*
D12*
X132397500Y-62071250D03*
D11*
X126047500Y-64408050D03*
D12*
X124777500Y-62071250D03*
D11*
X131127500Y-64408050D03*
D10*
X121887500Y-59531250D03*
X121887500Y-60531250D03*
X121887500Y-58531250D03*
X102837500Y-72818750D03*
X102837500Y-74818750D03*
X102837500Y-73818750D03*
D11*
X112077500Y-78695550D03*
D12*
X105727500Y-76358750D03*
D11*
X106997500Y-78695550D03*
D12*
X113347500Y-76358750D03*
D13*
X104457500Y-73818750D03*
X114617500Y-73818750D03*
D14*
X109537500Y-73818750D03*
D10*
X116237500Y-73818750D03*
X116237500Y-72818750D03*
X116237500Y-74818750D03*
D15*
X110807500Y-68738750D03*
X108267500Y-68738750D03*
X127317500Y-73501250D03*
X129857500Y-73501250D03*
D10*
X135287500Y-79581250D03*
X135287500Y-77581250D03*
X135287500Y-78581250D03*
D14*
X128587500Y-78581250D03*
D13*
X133667500Y-78581250D03*
X123507500Y-78581250D03*
D12*
X132397500Y-81121250D03*
D11*
X126047500Y-83458050D03*
D12*
X124777500Y-81121250D03*
D11*
X131127500Y-83458050D03*
D10*
X121887500Y-78581250D03*
X121887500Y-79581250D03*
X121887500Y-77581250D03*
X83787500Y-87106250D03*
X83787500Y-89106250D03*
X83787500Y-88106250D03*
D11*
X93027500Y-92983050D03*
D12*
X86677500Y-90646250D03*
D11*
X87947500Y-92983050D03*
D12*
X94297500Y-90646250D03*
D13*
X85407500Y-88106250D03*
X95567500Y-88106250D03*
D14*
X90487500Y-88106250D03*
D10*
X97187500Y-88106250D03*
X97187500Y-87106250D03*
X97187500Y-89106250D03*
D15*
X91757500Y-83026250D03*
X89217500Y-83026250D03*
X108267500Y-87788750D03*
X110807500Y-87788750D03*
D10*
X116237500Y-93868750D03*
X116237500Y-91868750D03*
X116237500Y-92868750D03*
D14*
X109537500Y-92868750D03*
D13*
X114617500Y-92868750D03*
X104457500Y-92868750D03*
D12*
X113347500Y-95408750D03*
D11*
X106997500Y-97745550D03*
D12*
X105727500Y-95408750D03*
D11*
X112077500Y-97745550D03*
D10*
X102837500Y-92868750D03*
X102837500Y-93868750D03*
X102837500Y-91868750D03*
X121887500Y-96631250D03*
X121887500Y-98631250D03*
X121887500Y-97631250D03*
D11*
X131127500Y-102508050D03*
D12*
X124777500Y-100171250D03*
D11*
X126047500Y-102508050D03*
D12*
X132397500Y-100171250D03*
D13*
X123507500Y-97631250D03*
X133667500Y-97631250D03*
D14*
X128587500Y-97631250D03*
D10*
X135287500Y-97631250D03*
X135287500Y-96631250D03*
X135287500Y-98631250D03*
D15*
X129857500Y-92551250D03*
X127317500Y-92551250D03*
X146367500Y-92551250D03*
X148907500Y-92551250D03*
D10*
X154337500Y-98631250D03*
X154337500Y-96631250D03*
X154337500Y-97631250D03*
D14*
X147637500Y-97631250D03*
D13*
X152717500Y-97631250D03*
X142557500Y-97631250D03*
D12*
X151447500Y-100171250D03*
D11*
X145097500Y-102508050D03*
D12*
X143827500Y-100171250D03*
D11*
X150177500Y-102508050D03*
D10*
X140937500Y-97631250D03*
X140937500Y-98631250D03*
X140937500Y-96631250D03*
X131412500Y-115681250D03*
X131412500Y-117681250D03*
X131412500Y-116681250D03*
D11*
X140652500Y-121558050D03*
D12*
X134302500Y-119221250D03*
D11*
X135572500Y-121558050D03*
D12*
X141922500Y-119221250D03*
D13*
X133032500Y-116681250D03*
X143192500Y-116681250D03*
D14*
X138112500Y-116681250D03*
D10*
X144812500Y-116681250D03*
X144812500Y-115681250D03*
X144812500Y-117681250D03*
D15*
X139382500Y-111601250D03*
X136842500Y-111601250D03*
X89217500Y-63976250D03*
X91757500Y-63976250D03*
D10*
X97187500Y-70056250D03*
X97187500Y-68056250D03*
X97187500Y-69056250D03*
D14*
X90487500Y-69056250D03*
D13*
X95567500Y-69056250D03*
X85407500Y-69056250D03*
D12*
X94297500Y-71596250D03*
D11*
X87947500Y-73933050D03*
D12*
X86677500Y-71596250D03*
D11*
X93027500Y-73933050D03*
D10*
X83787500Y-69056250D03*
X83787500Y-70056250D03*
X83787500Y-68056250D03*
X64737500Y-72818750D03*
X64737500Y-74818750D03*
X64737500Y-73818750D03*
D11*
X73977500Y-78695550D03*
D12*
X67627500Y-76358750D03*
D11*
X68897500Y-78695550D03*
D12*
X75247500Y-76358750D03*
D13*
X66357500Y-73818750D03*
X76517500Y-73818750D03*
D14*
X71437500Y-73818750D03*
D10*
X78137500Y-73818750D03*
X78137500Y-72818750D03*
X78137500Y-74818750D03*
D15*
X72707500Y-68738750D03*
X70167500Y-68738750D03*
D19*
X85471000Y-111434000D03*
X86421000Y-108784000D03*
X84521000Y-108784000D03*
D15*
X41592500Y-35401250D03*
X44132500Y-35401250D03*
D10*
X49562500Y-41481250D03*
X49562500Y-39481250D03*
X49562500Y-40481250D03*
D14*
X42862500Y-40481250D03*
D13*
X47942500Y-40481250D03*
X37782500Y-40481250D03*
D12*
X46672500Y-43021250D03*
D11*
X40322500Y-45358050D03*
D12*
X39052500Y-43021250D03*
D11*
X45402500Y-45358050D03*
D10*
X36162500Y-40481250D03*
X36162500Y-41481250D03*
X36162500Y-39481250D03*
D20*
X79166000Y-103759000D03*
X80266000Y-103759000D03*
X81366000Y-103759000D03*
X82466000Y-103759000D03*
X83566000Y-103759000D03*
X84666000Y-103759000D03*
X85766000Y-103759000D03*
X86866000Y-103759000D03*
X87966000Y-103759000D03*
X89066000Y-103759000D03*
X90166000Y-103759000D03*
X91266000Y-103759000D03*
D21*
X76216000Y-119459000D03*
X76216000Y-118359000D03*
X76216000Y-117259000D03*
X76216000Y-116159000D03*
X76216000Y-115059000D03*
X76216000Y-113959000D03*
X76216000Y-112859000D03*
X76216000Y-111759000D03*
X76216000Y-110659000D03*
X76216000Y-109559000D03*
X76216000Y-108459000D03*
X76216000Y-107359000D03*
X94216000Y-107359000D03*
X94216000Y-108459000D03*
X94216000Y-109559000D03*
X94216000Y-110659000D03*
X94216000Y-111759000D03*
X94216000Y-112859000D03*
X94216000Y-113959000D03*
X94216000Y-115059000D03*
X94216000Y-116159000D03*
X94216000Y-117259000D03*
X94216000Y-118359000D03*
X94216000Y-119459000D03*
D22*
X86870540Y-105524300D03*
X89062560Y-105554780D03*
X90149680Y-105559860D03*
X85758020Y-105524300D03*
X84669996Y-105512500D03*
X81363820Y-105512500D03*
X80266540Y-105512500D03*
X79161640Y-105512500D03*
X78486000Y-116141500D03*
X78486000Y-117284500D03*
X78486000Y-118427500D03*
X96199960Y-116159000D03*
X91937240Y-119481000D03*
X96235520Y-108481000D03*
X77966000Y-108459000D03*
X80200500Y-119459000D03*
X87693500Y-111442500D03*
X96240600Y-111759000D03*
X91254580Y-105559860D03*
X96227900Y-109559000D03*
X96227900Y-110659000D03*
X83248500Y-110109000D03*
X87967820Y-105570020D03*
X97030540Y-112859000D03*
X96199960Y-118359000D03*
X83550760Y-105512500D03*
X87058500Y-113959000D03*
X81065000Y-113943500D03*
X81065000Y-115062000D03*
X82765000Y-111442500D03*
X85471000Y-107124501D03*
X96199960Y-117259000D03*
D23*
X86866000Y-105519760D02*
X86870540Y-105524300D01*
X86866000Y-103759000D02*
X86866000Y-105519760D01*
X90926490Y-97732010D02*
X86866000Y-101792500D01*
X99700509Y-95756721D02*
X97725220Y-97732010D01*
X97725220Y-97732010D02*
X90926490Y-97732010D01*
X99700510Y-33762154D02*
X99700509Y-95756721D01*
X97187500Y-31956250D02*
X97894606Y-31956250D01*
X97894606Y-31956250D02*
X99700510Y-33762154D01*
X86866000Y-101792500D02*
X86866000Y-103759000D01*
D24*
X97187500Y-31956250D02*
X96567500Y-31956250D01*
X96567500Y-31956250D02*
X95567500Y-30956250D01*
X97187500Y-30956250D02*
X95567500Y-30956250D01*
X97187500Y-29956250D02*
X96567500Y-29956250D01*
X96567500Y-29956250D02*
X95567500Y-30956250D01*
X97187500Y-29956250D02*
X97187500Y-31956250D01*
D25*
X94297500Y-33496250D02*
X94297500Y-32226250D01*
X94297500Y-32226250D02*
X95567500Y-30956250D01*
X93027500Y-35833050D02*
X93027500Y-34766250D01*
X93027500Y-34766250D02*
X94297500Y-33496250D01*
D23*
X89066000Y-105551340D02*
X89062560Y-105554780D01*
X89066000Y-103759000D02*
X89066000Y-105551340D01*
X117671008Y-76252258D02*
X117671008Y-99817902D01*
X116237500Y-74818750D02*
X117671008Y-76252258D01*
X117671008Y-99817902D02*
X116656421Y-100832489D01*
X116656421Y-100832489D02*
X90112011Y-100832489D01*
X90112011Y-100832489D02*
X89066000Y-101878500D01*
X89066000Y-101878500D02*
X89066000Y-103759000D01*
D24*
X116237500Y-72818750D02*
X115617500Y-72818750D01*
X115617500Y-72818750D02*
X114617500Y-73818750D01*
X116237500Y-73818750D02*
X114617500Y-73818750D01*
X116237500Y-74818750D02*
X115617500Y-74818750D01*
X115617500Y-74818750D02*
X114617500Y-73818750D01*
X116237500Y-72818750D02*
X116237500Y-74818750D01*
D25*
X113347500Y-76358750D02*
X113347500Y-75088750D01*
X113347500Y-75088750D02*
X114617500Y-73818750D01*
X112077500Y-78695550D02*
X112077500Y-77628750D01*
X112077500Y-77628750D02*
X113347500Y-76358750D01*
D23*
X90166000Y-105543540D02*
X90149680Y-105559860D01*
X90166000Y-103759000D02*
X90166000Y-105543540D01*
X118121019Y-57652269D02*
X118121019Y-100004302D01*
X116237500Y-55768750D02*
X118121019Y-57652269D01*
X118121019Y-100004302D02*
X116842821Y-101282500D01*
X116842821Y-101282500D02*
X90805000Y-101282500D01*
X90805000Y-101282500D02*
X90166000Y-101921500D01*
X90166000Y-101921500D02*
X90166000Y-103759000D01*
D25*
X113347500Y-57308750D02*
X113347500Y-56038750D01*
X113347500Y-56038750D02*
X114617500Y-54768750D01*
X112077500Y-59645550D02*
X112077500Y-58578750D01*
X112077500Y-58578750D02*
X113347500Y-57308750D01*
D24*
X116237500Y-55768750D02*
X116237500Y-53768750D01*
X116237500Y-55768750D02*
X115617500Y-55768750D01*
X115617500Y-55768750D02*
X114617500Y-54768750D01*
X116237500Y-54768750D02*
X114617500Y-54768750D01*
X116237500Y-53768750D02*
X115617500Y-53768750D01*
X115617500Y-53768750D02*
X114617500Y-54768750D01*
D23*
X85766000Y-105516320D02*
X85758020Y-105524300D01*
X85766000Y-103759000D02*
X85766000Y-105516320D01*
X90279410Y-97282000D02*
X85766000Y-101795410D01*
X99250500Y-95570320D02*
X97538820Y-97282000D01*
X97538820Y-97282000D02*
X90279410Y-97282000D01*
X99250500Y-52362144D02*
X99250500Y-95570320D01*
X97187500Y-51006250D02*
X97894606Y-51006250D01*
X97894606Y-51006250D02*
X99250500Y-52362144D01*
X85766000Y-101795410D02*
X85766000Y-103759000D01*
D24*
X97187500Y-49006250D02*
X96567500Y-49006250D01*
X96567500Y-49006250D02*
X95567500Y-50006250D01*
X97187500Y-50006250D02*
X95567500Y-50006250D01*
X97187500Y-51006250D02*
X96567500Y-51006250D01*
X96567500Y-51006250D02*
X95567500Y-50006250D01*
X97187500Y-49006250D02*
X97187500Y-51006250D01*
D25*
X94297500Y-52546250D02*
X94297500Y-51276250D01*
X94297500Y-51276250D02*
X95567500Y-50006250D01*
X93027500Y-54883050D02*
X93027500Y-53816250D01*
X93027500Y-53816250D02*
X94297500Y-52546250D01*
D23*
X84666000Y-105508504D02*
X84669996Y-105512500D01*
X84666000Y-103759000D02*
X84666000Y-105508504D01*
X89719990Y-96779510D02*
X84666000Y-101833500D01*
X97404900Y-96779510D02*
X89719990Y-96779510D01*
X98742500Y-95441910D02*
X97404900Y-96779510D01*
X98742500Y-70904144D02*
X98742500Y-95441910D01*
X97187500Y-70056250D02*
X97894606Y-70056250D01*
X97894606Y-70056250D02*
X98742500Y-70904144D01*
X84666000Y-101833500D02*
X84666000Y-103759000D01*
D24*
X97187500Y-70056250D02*
X96567500Y-70056250D01*
X96567500Y-70056250D02*
X95567500Y-69056250D01*
X97187500Y-69056250D02*
X95567500Y-69056250D01*
X97187500Y-68056250D02*
X96567500Y-68056250D01*
X96567500Y-68056250D02*
X95567500Y-69056250D01*
X97187500Y-68056250D02*
X97187500Y-70056250D01*
D25*
X94297500Y-71596250D02*
X94297500Y-70326250D01*
X94297500Y-70326250D02*
X95567500Y-69056250D01*
X93027500Y-73933050D02*
X93027500Y-72866250D01*
X93027500Y-72866250D02*
X94297500Y-71596250D01*
D23*
X81366000Y-105510320D02*
X81363820Y-105512500D01*
X81366000Y-103759000D02*
X81366000Y-105510320D01*
X73375000Y-36718750D02*
X74082106Y-36718750D01*
X74082106Y-36718750D02*
X74422000Y-37058644D01*
X74422000Y-44386500D02*
X76581000Y-46545500D01*
X74422000Y-37058644D02*
X74422000Y-44386500D01*
X81366000Y-101622500D02*
X81366000Y-103759000D01*
X76581000Y-46545500D02*
X78486000Y-46545500D01*
X78486000Y-46545500D02*
X80073500Y-48133000D01*
X80073500Y-48133000D02*
X80073500Y-100330000D01*
X80073500Y-100330000D02*
X81366000Y-101622500D01*
D24*
X73375000Y-34718750D02*
X72755000Y-34718750D01*
X72755000Y-34718750D02*
X71755000Y-35718750D01*
X73375000Y-35718750D02*
X71755000Y-35718750D01*
X73375000Y-36718750D02*
X72755000Y-36718750D01*
X72755000Y-36718750D02*
X71755000Y-35718750D01*
X73375000Y-34718750D02*
X73375000Y-36718750D01*
D25*
X70485000Y-38258750D02*
X70485000Y-36988750D01*
X70485000Y-36988750D02*
X71755000Y-35718750D01*
X69215000Y-40595550D02*
X69215000Y-39528750D01*
X69215000Y-39528750D02*
X70485000Y-38258750D01*
D23*
X80266000Y-105511960D02*
X80266540Y-105512500D01*
X80266000Y-103759000D02*
X80266000Y-105511960D01*
X79623489Y-57254739D02*
X79623489Y-100578489D01*
X78137500Y-55768750D02*
X79623489Y-57254739D01*
X80266000Y-101221000D02*
X80266000Y-102259000D01*
X80266000Y-102259000D02*
X80266000Y-103759000D01*
X79623489Y-100578489D02*
X80266000Y-101221000D01*
D24*
X78137500Y-55768750D02*
X77517500Y-55768750D01*
X77517500Y-55768750D02*
X76517500Y-54768750D01*
X78137500Y-54768750D02*
X76517500Y-54768750D01*
X78137500Y-53768750D02*
X77517500Y-53768750D01*
X77517500Y-53768750D02*
X76517500Y-54768750D01*
X78137500Y-53768750D02*
X78137500Y-55768750D01*
D25*
X75247500Y-57308750D02*
X75247500Y-56038750D01*
X75247500Y-56038750D02*
X76517500Y-54768750D01*
X73977500Y-59645550D02*
X73977500Y-58578750D01*
X73977500Y-58578750D02*
X75247500Y-57308750D01*
D23*
X79166000Y-105508140D02*
X79161640Y-105512500D01*
X79166000Y-103759000D02*
X79166000Y-105508140D01*
X78844606Y-74818750D02*
X79166000Y-75140144D01*
X78137500Y-74818750D02*
X78844606Y-74818750D01*
X79166000Y-75140144D02*
X79166000Y-93109500D01*
X79166000Y-93109500D02*
X79166000Y-103759000D01*
D24*
X78137500Y-72818750D02*
X77517500Y-72818750D01*
X77517500Y-72818750D02*
X76517500Y-73818750D01*
X78137500Y-73818750D02*
X76517500Y-73818750D01*
X78137500Y-74818750D02*
X77517500Y-74818750D01*
X77517500Y-74818750D02*
X76517500Y-73818750D01*
X78137500Y-72818750D02*
X78137500Y-74818750D01*
D25*
X75247500Y-76358750D02*
X75247500Y-75088750D01*
X75247500Y-75088750D02*
X76517500Y-73818750D01*
X73977500Y-78695550D02*
X73977500Y-77628750D01*
X73977500Y-77628750D02*
X75247500Y-76358750D01*
D23*
X78468500Y-116159000D02*
X78486000Y-116141500D01*
X76216000Y-116159000D02*
X78468500Y-116159000D01*
X73290020Y-98433200D02*
X73290020Y-115196610D01*
X73290020Y-115196610D02*
X74252410Y-116159000D01*
X61161520Y-86304700D02*
X73290020Y-98433200D01*
X61161520Y-52081020D02*
X61161520Y-86304700D01*
X50269606Y-41481250D02*
X50609500Y-41821144D01*
X74252410Y-116159000D02*
X76216000Y-116159000D01*
X49562500Y-41481250D02*
X50269606Y-41481250D01*
X50609500Y-41821144D02*
X50609500Y-49212500D01*
X50609500Y-49212500D02*
X52768500Y-51371500D01*
X52768500Y-51371500D02*
X60452000Y-51371500D01*
X60452000Y-51371500D02*
X61161520Y-52081020D01*
D24*
X49562500Y-39481250D02*
X49562500Y-41481250D01*
X49562500Y-41481250D02*
X48942500Y-41481250D01*
X48942500Y-41481250D02*
X47942500Y-40481250D01*
X47942500Y-40481250D02*
X49562500Y-40481250D01*
X49562500Y-39481250D02*
X48942500Y-39481250D01*
X48942500Y-39481250D02*
X47942500Y-40481250D01*
D25*
X46672500Y-43021250D02*
X46672500Y-41751250D01*
X46672500Y-41751250D02*
X47942500Y-40481250D01*
X45402500Y-45358050D02*
X45402500Y-44291250D01*
X45402500Y-44291250D02*
X46672500Y-43021250D01*
D23*
X78460500Y-117259000D02*
X78486000Y-117284500D01*
X76216000Y-117259000D02*
X78460500Y-117259000D01*
X74269500Y-117259000D02*
X76216000Y-117259000D01*
X59794606Y-60531250D02*
X60711510Y-61448154D01*
X59087500Y-60531250D02*
X59794606Y-60531250D01*
X60711510Y-61448154D02*
X60711510Y-86491100D01*
X60711510Y-86491100D02*
X72840010Y-98619600D01*
X72840010Y-98619600D02*
X72840010Y-115829510D01*
X72840010Y-115829510D02*
X74269500Y-117259000D01*
D24*
X59087500Y-60531250D02*
X58467500Y-60531250D01*
X58467500Y-60531250D02*
X57467500Y-59531250D01*
X59087500Y-59531250D02*
X57467500Y-59531250D01*
X59087500Y-58531250D02*
X58467500Y-58531250D01*
X58467500Y-58531250D02*
X57467500Y-59531250D01*
X59087500Y-58531250D02*
X59087500Y-60531250D01*
D25*
X56197500Y-62071250D02*
X56197500Y-60801250D01*
X56197500Y-60801250D02*
X57467500Y-59531250D01*
X54927500Y-64408050D02*
X54927500Y-63341250D01*
X54927500Y-63341250D02*
X56197500Y-62071250D01*
D23*
X78417500Y-118359000D02*
X78486000Y-118427500D01*
X76216000Y-118359000D02*
X78417500Y-118359000D01*
X74290000Y-118359000D02*
X76216000Y-118359000D01*
X59087500Y-79581250D02*
X59794606Y-79581250D01*
X60261500Y-80048144D02*
X60261500Y-86677500D01*
X60261500Y-86677500D02*
X72390000Y-98806000D01*
X72390000Y-98806000D02*
X72390000Y-116459000D01*
X59794606Y-79581250D02*
X60261500Y-80048144D01*
X72390000Y-116459000D02*
X74290000Y-118359000D01*
D24*
X59087500Y-77581250D02*
X58467500Y-77581250D01*
X58467500Y-77581250D02*
X57467500Y-78581250D01*
X59087500Y-78581250D02*
X57467500Y-78581250D01*
X59087500Y-79581250D02*
X58467500Y-79581250D01*
X58467500Y-79581250D02*
X57467500Y-78581250D01*
X59087500Y-77581250D02*
X59087500Y-79581250D01*
D25*
X56197500Y-81121250D02*
X56197500Y-79851250D01*
X56197500Y-79851250D02*
X57467500Y-78581250D01*
X54927500Y-83458050D02*
X54927500Y-82391250D01*
X54927500Y-82391250D02*
X56197500Y-81121250D01*
D23*
X96199960Y-116159000D02*
X95716000Y-116159000D01*
X110472500Y-116159000D02*
X96199960Y-116159000D01*
X118560010Y-108071490D02*
X110472500Y-116159000D01*
X154564510Y-108071490D02*
X118560010Y-108071490D01*
X155257500Y-107378500D02*
X154564510Y-108071490D01*
X155257500Y-98844144D02*
X155257500Y-107378500D01*
X154337500Y-98631250D02*
X155044606Y-98631250D01*
X155044606Y-98631250D02*
X155257500Y-98844144D01*
X95716000Y-116159000D02*
X94216000Y-116159000D01*
D24*
X154337500Y-98631250D02*
X153717500Y-98631250D01*
X153717500Y-98631250D02*
X152717500Y-97631250D01*
X154337500Y-97631250D02*
X152717500Y-97631250D01*
X154337500Y-96631250D02*
X153717500Y-96631250D01*
X153717500Y-96631250D02*
X152717500Y-97631250D01*
X154337500Y-96631250D02*
X154337500Y-98631250D01*
D25*
X151447500Y-100171250D02*
X151447500Y-98901250D01*
X151447500Y-98901250D02*
X152717500Y-97631250D01*
X150177500Y-102508050D02*
X150177500Y-101441250D01*
X150177500Y-101441250D02*
X151447500Y-100171250D01*
D26*
X91959240Y-119459000D02*
X91937240Y-119481000D01*
X94216000Y-119459000D02*
X91959240Y-119459000D01*
D23*
X94216000Y-108459000D02*
X96213520Y-108459000D01*
X96213520Y-108459000D02*
X96235520Y-108481000D01*
D24*
X131412500Y-117681250D02*
X132032500Y-117681250D01*
X132032500Y-117681250D02*
X133032500Y-116681250D01*
X131412500Y-116681250D02*
X133032500Y-116681250D01*
X131412500Y-115681250D02*
X132032500Y-115681250D01*
X132032500Y-115681250D02*
X133032500Y-116681250D01*
X131412500Y-115681250D02*
X131412500Y-117681250D01*
X150462500Y-115681250D02*
X151082500Y-115681250D01*
X151082500Y-115681250D02*
X152082500Y-116681250D01*
X150462500Y-116681250D02*
X152082500Y-116681250D01*
X150462500Y-117681250D02*
X151082500Y-117681250D01*
X151082500Y-117681250D02*
X152082500Y-116681250D01*
X150462500Y-115681250D02*
X150462500Y-117681250D01*
X140937500Y-98631250D02*
X141557500Y-98631250D01*
X141557500Y-98631250D02*
X142557500Y-97631250D01*
X140937500Y-97631250D02*
X142557500Y-97631250D01*
X140937500Y-96631250D02*
X141557500Y-96631250D01*
X141557500Y-96631250D02*
X142557500Y-97631250D01*
X140937500Y-96631250D02*
X140937500Y-98631250D01*
X121887500Y-96631250D02*
X122507500Y-96631250D01*
X122507500Y-96631250D02*
X123507500Y-97631250D01*
X121887500Y-97631250D02*
X123507500Y-97631250D01*
X121887500Y-98631250D02*
X122507500Y-98631250D01*
X122507500Y-98631250D02*
X123507500Y-97631250D01*
X121887500Y-96631250D02*
X121887500Y-98631250D01*
X102837500Y-93868750D02*
X103457500Y-93868750D01*
X103457500Y-93868750D02*
X104457500Y-92868750D01*
X102837500Y-92868750D02*
X104457500Y-92868750D01*
X102837500Y-91868750D02*
X103457500Y-91868750D01*
X103457500Y-91868750D02*
X104457500Y-92868750D01*
X102837500Y-91868750D02*
X102837500Y-93868750D01*
X83787500Y-87106250D02*
X84407500Y-87106250D01*
X84407500Y-87106250D02*
X85407500Y-88106250D01*
X83787500Y-88106250D02*
X85407500Y-88106250D01*
X83787500Y-89106250D02*
X84407500Y-89106250D01*
X84407500Y-89106250D02*
X85407500Y-88106250D01*
X83787500Y-87106250D02*
X83787500Y-89106250D01*
X121887500Y-77581250D02*
X122507500Y-77581250D01*
X122507500Y-77581250D02*
X123507500Y-78581250D01*
X121887500Y-78581250D02*
X123507500Y-78581250D01*
X121887500Y-79581250D02*
X122507500Y-79581250D01*
X122507500Y-79581250D02*
X123507500Y-78581250D01*
X121887500Y-77581250D02*
X121887500Y-79581250D01*
X102837500Y-72818750D02*
X103457500Y-72818750D01*
X103457500Y-72818750D02*
X104457500Y-73818750D01*
X102837500Y-73818750D02*
X104457500Y-73818750D01*
X102837500Y-74818750D02*
X103457500Y-74818750D01*
X103457500Y-74818750D02*
X104457500Y-73818750D01*
X102837500Y-72818750D02*
X102837500Y-74818750D01*
X83787500Y-70056250D02*
X84407500Y-70056250D01*
X84407500Y-70056250D02*
X85407500Y-69056250D01*
X83787500Y-69056250D02*
X85407500Y-69056250D01*
X83787500Y-68056250D02*
X84407500Y-68056250D01*
X84407500Y-68056250D02*
X85407500Y-69056250D01*
X83787500Y-68056250D02*
X83787500Y-70056250D01*
X64737500Y-74818750D02*
X65357500Y-74818750D01*
X65357500Y-74818750D02*
X66357500Y-73818750D01*
X64737500Y-73818750D02*
X66357500Y-73818750D01*
X64737500Y-72818750D02*
X65357500Y-72818750D01*
X65357500Y-72818750D02*
X66357500Y-73818750D01*
X64737500Y-72818750D02*
X64737500Y-74818750D01*
X45687500Y-79581250D02*
X46307500Y-79581250D01*
X46307500Y-79581250D02*
X47307500Y-78581250D01*
X45687500Y-78581250D02*
X47307500Y-78581250D01*
X45687500Y-77581250D02*
X46307500Y-77581250D01*
X46307500Y-77581250D02*
X47307500Y-78581250D01*
X45687500Y-77581250D02*
X45687500Y-79581250D01*
X121887500Y-60531250D02*
X122507500Y-60531250D01*
X122507500Y-60531250D02*
X123507500Y-59531250D01*
X121887500Y-59531250D02*
X123507500Y-59531250D01*
X121887500Y-58531250D02*
X122507500Y-58531250D01*
X122507500Y-58531250D02*
X123507500Y-59531250D01*
X121887500Y-58531250D02*
X121887500Y-60531250D01*
X121887500Y-41481250D02*
X121887500Y-39481250D01*
X121887500Y-41481250D02*
X122507500Y-41481250D01*
X122507500Y-41481250D02*
X123507500Y-40481250D01*
X121887500Y-40481250D02*
X123507500Y-40481250D01*
X121887500Y-39481250D02*
X122507500Y-39481250D01*
X122507500Y-39481250D02*
X123507500Y-40481250D01*
X102837500Y-36718750D02*
X103457500Y-36718750D01*
X103457500Y-36718750D02*
X104457500Y-35718750D01*
X102837500Y-35718750D02*
X104457500Y-35718750D01*
X102837500Y-34718750D02*
X103457500Y-34718750D01*
X103457500Y-34718750D02*
X104457500Y-35718750D01*
X102837500Y-34718750D02*
X102837500Y-36718750D01*
X102837500Y-55768750D02*
X103457500Y-55768750D01*
X103457500Y-55768750D02*
X104457500Y-54768750D01*
X102837500Y-54768750D02*
X104457500Y-54768750D01*
X102837500Y-53768750D02*
X103457500Y-53768750D01*
X103457500Y-53768750D02*
X104457500Y-54768750D01*
X102837500Y-55768750D02*
X102837500Y-53768750D01*
X83787500Y-31956250D02*
X84407500Y-31956250D01*
X84407500Y-31956250D02*
X85407500Y-30956250D01*
X83787500Y-30956250D02*
X85407500Y-30956250D01*
X83787500Y-29956250D02*
X84407500Y-29956250D01*
X84407500Y-29956250D02*
X85407500Y-30956250D01*
X83787500Y-29956250D02*
X83787500Y-31956250D01*
X83787500Y-51006250D02*
X84407500Y-51006250D01*
X84407500Y-51006250D02*
X85407500Y-50006250D01*
X83787500Y-50006250D02*
X85407500Y-50006250D01*
X83787500Y-49006250D02*
X84407500Y-49006250D01*
X84407500Y-49006250D02*
X85407500Y-50006250D01*
X83787500Y-49006250D02*
X83787500Y-51006250D01*
X64737500Y-55768750D02*
X65357500Y-55768750D01*
X65357500Y-55768750D02*
X66357500Y-54768750D01*
X64737500Y-54768750D02*
X66357500Y-54768750D01*
X64737500Y-53768750D02*
X65357500Y-53768750D01*
X65357500Y-53768750D02*
X66357500Y-54768750D01*
X64737500Y-53768750D02*
X64737500Y-55768750D01*
X45687500Y-60531250D02*
X46307500Y-60531250D01*
X46307500Y-60531250D02*
X47307500Y-59531250D01*
X45687500Y-59531250D02*
X47307500Y-59531250D01*
X45687500Y-58531250D02*
X46307500Y-58531250D01*
X46307500Y-58531250D02*
X47307500Y-59531250D01*
X45687500Y-58531250D02*
X45687500Y-60531250D01*
X59975000Y-36718750D02*
X60595000Y-36718750D01*
X60595000Y-36718750D02*
X61595000Y-35718750D01*
X59975000Y-35718750D02*
X61595000Y-35718750D01*
X59975000Y-34718750D02*
X60595000Y-34718750D01*
X60595000Y-34718750D02*
X61595000Y-35718750D01*
X59975000Y-34718750D02*
X59975000Y-36718750D01*
X36162500Y-39481250D02*
X36162500Y-41481250D01*
X36162500Y-41481250D02*
X36782500Y-41481250D01*
X36782500Y-41481250D02*
X37782500Y-40481250D01*
X36162500Y-40481250D02*
X37782500Y-40481250D01*
X36162500Y-39481250D02*
X36782500Y-39481250D01*
X36782500Y-39481250D02*
X37782500Y-40481250D01*
D25*
X153352500Y-119221250D02*
X153352500Y-117951250D01*
X153352500Y-117951250D02*
X152082500Y-116681250D01*
X154622500Y-121558050D02*
X154622500Y-120491250D01*
X154622500Y-120491250D02*
X153352500Y-119221250D01*
X134302500Y-119221250D02*
X134302500Y-117951250D01*
X134302500Y-117951250D02*
X133032500Y-116681250D01*
X135572500Y-121558050D02*
X135572500Y-120491250D01*
X135572500Y-120491250D02*
X134302500Y-119221250D01*
X143827500Y-100171250D02*
X143827500Y-98901250D01*
X143827500Y-98901250D02*
X142557500Y-97631250D01*
X145097500Y-102508050D02*
X145097500Y-101441250D01*
X145097500Y-101441250D02*
X143827500Y-100171250D01*
X124777500Y-100171250D02*
X124777500Y-98901250D01*
X124777500Y-98901250D02*
X123507500Y-97631250D01*
X126047500Y-102508050D02*
X126047500Y-101441250D01*
X126047500Y-101441250D02*
X124777500Y-100171250D01*
X105727500Y-95408750D02*
X105727500Y-94138750D01*
X105727500Y-94138750D02*
X104457500Y-92868750D01*
X106997500Y-97745550D02*
X106997500Y-96678750D01*
X106997500Y-96678750D02*
X105727500Y-95408750D01*
X86677500Y-90646250D02*
X86677500Y-89376250D01*
X86677500Y-89376250D02*
X85407500Y-88106250D01*
X87947500Y-92983050D02*
X87947500Y-91916250D01*
X87947500Y-91916250D02*
X86677500Y-90646250D01*
X124777500Y-81121250D02*
X124777500Y-79851250D01*
X124777500Y-79851250D02*
X123507500Y-78581250D01*
X126047500Y-83458050D02*
X126047500Y-82391250D01*
X126047500Y-82391250D02*
X124777500Y-81121250D01*
X105727500Y-76358750D02*
X105727500Y-75088750D01*
X105727500Y-75088750D02*
X104457500Y-73818750D01*
X106997500Y-78695550D02*
X106997500Y-77628750D01*
X106997500Y-77628750D02*
X105727500Y-76358750D01*
X86677500Y-71596250D02*
X86677500Y-70326250D01*
X86677500Y-70326250D02*
X85407500Y-69056250D01*
X87947500Y-73933050D02*
X87947500Y-72866250D01*
X87947500Y-72866250D02*
X86677500Y-71596250D01*
X67627500Y-76358750D02*
X67627500Y-75088750D01*
X67627500Y-75088750D02*
X66357500Y-73818750D01*
X68897500Y-78695550D02*
X68897500Y-77628750D01*
X68897500Y-77628750D02*
X67627500Y-76358750D01*
X124777500Y-62071250D02*
X124777500Y-60801250D01*
X124777500Y-60801250D02*
X123507500Y-59531250D01*
X126047500Y-64408050D02*
X126047500Y-63341250D01*
X126047500Y-63341250D02*
X124777500Y-62071250D01*
X105727500Y-57308750D02*
X105727500Y-56038750D01*
X105727500Y-56038750D02*
X104457500Y-54768750D01*
X106997500Y-59645550D02*
X106997500Y-58578750D01*
X106997500Y-58578750D02*
X105727500Y-57308750D01*
X86677500Y-52546250D02*
X86677500Y-51276250D01*
X86677500Y-51276250D02*
X85407500Y-50006250D01*
X87947500Y-54883050D02*
X87947500Y-53816250D01*
X87947500Y-53816250D02*
X86677500Y-52546250D01*
X67627500Y-57308750D02*
X67627500Y-56038750D01*
X67627500Y-56038750D02*
X66357500Y-54768750D01*
X68897500Y-59645550D02*
X68897500Y-58578750D01*
X68897500Y-58578750D02*
X67627500Y-57308750D01*
X124777500Y-43021250D02*
X124777500Y-41751250D01*
X124777500Y-41751250D02*
X123507500Y-40481250D01*
X126047500Y-45358050D02*
X126047500Y-44291250D01*
X126047500Y-44291250D02*
X124777500Y-43021250D01*
X105727500Y-38258750D02*
X105727500Y-36988750D01*
X105727500Y-36988750D02*
X104457500Y-35718750D01*
X106997500Y-40595550D02*
X106997500Y-39528750D01*
X106997500Y-39528750D02*
X105727500Y-38258750D01*
X86677500Y-33496250D02*
X86677500Y-32226250D01*
X86677500Y-32226250D02*
X85407500Y-30956250D01*
X87947500Y-35833050D02*
X87947500Y-34766250D01*
X87947500Y-34766250D02*
X86677500Y-33496250D01*
X62865000Y-38258750D02*
X62865000Y-36988750D01*
X62865000Y-36988750D02*
X61595000Y-35718750D01*
X64135000Y-40595550D02*
X64135000Y-39528750D01*
X64135000Y-39528750D02*
X62865000Y-38258750D01*
X48577500Y-81121250D02*
X48577500Y-79851250D01*
X48577500Y-79851250D02*
X47307500Y-78581250D01*
X49847500Y-83458050D02*
X49847500Y-82391250D01*
X49847500Y-82391250D02*
X48577500Y-81121250D01*
X48577500Y-62071250D02*
X48577500Y-60801250D01*
X48577500Y-60801250D02*
X47307500Y-59531250D01*
X49847500Y-64408050D02*
X49847500Y-63341250D01*
X49847500Y-63341250D02*
X48577500Y-62071250D01*
X39052500Y-43021250D02*
X39052500Y-41751250D01*
X40322500Y-45358050D02*
X40322500Y-44291250D01*
X40322500Y-44291250D02*
X39052500Y-43021250D01*
X39052500Y-41751250D02*
X37782500Y-40481250D01*
D26*
X80200500Y-113157000D02*
X80200500Y-110693500D01*
X80200500Y-119459000D02*
X80200500Y-113157000D01*
X87693500Y-111442500D02*
X87693500Y-113093500D01*
X87693500Y-113093500D02*
X80264000Y-113093500D01*
X80264000Y-113093500D02*
X80200500Y-113157000D01*
X76216000Y-119459000D02*
X80200500Y-119459000D01*
X80200500Y-110693500D02*
X77966000Y-108459000D01*
X77966000Y-108459000D02*
X76216000Y-108459000D01*
X87693500Y-111442500D02*
X87693500Y-109231500D01*
X87693500Y-109231500D02*
X87246000Y-108784000D01*
X87246000Y-108784000D02*
X86421000Y-108784000D01*
D23*
X120650000Y-70421500D02*
X120280022Y-70791478D01*
X135255000Y-70421500D02*
X120650000Y-70421500D01*
X136207500Y-71374000D02*
X135255000Y-70421500D01*
X136032750Y-77581250D02*
X136207500Y-77406500D01*
X136207500Y-77406500D02*
X136207500Y-71374000D01*
X135287500Y-77581250D02*
X136032750Y-77581250D01*
X120280022Y-70791478D02*
X120280022Y-101969978D01*
X120280022Y-101969978D02*
X110491000Y-111759000D01*
X110491000Y-111759000D02*
X96240600Y-111759000D01*
X96240600Y-111759000D02*
X95716000Y-111759000D01*
X94216000Y-111759000D02*
X96240600Y-111759000D01*
X95716000Y-111759000D02*
X94216000Y-111759000D01*
D24*
X135287500Y-77581250D02*
X134667500Y-77581250D01*
X134667500Y-77581250D02*
X133667500Y-78581250D01*
X135287500Y-78581250D02*
X133667500Y-78581250D01*
X135287500Y-79581250D02*
X134667500Y-79581250D01*
X134667500Y-79581250D02*
X133667500Y-78581250D01*
X135287500Y-77581250D02*
X135287500Y-79581250D01*
D25*
X132397500Y-81121250D02*
X132397500Y-79851250D01*
X132397500Y-79851250D02*
X133667500Y-78581250D01*
X131127500Y-83458050D02*
X131127500Y-82391250D01*
X131127500Y-82391250D02*
X132397500Y-81121250D01*
D23*
X91266000Y-105548440D02*
X91254580Y-105559860D01*
X91266000Y-103759000D02*
X91266000Y-105548440D01*
X91688490Y-101732510D02*
X91266000Y-102155000D01*
X117029221Y-101732510D02*
X91688490Y-101732510D01*
X118571028Y-100190703D02*
X117029221Y-101732510D01*
X91266000Y-102155000D02*
X91266000Y-103759000D01*
X118571029Y-38345173D02*
X118571028Y-100190703D01*
X116237500Y-36718750D02*
X116944606Y-36718750D01*
X116944606Y-36718750D02*
X118571029Y-38345173D01*
D24*
X116237500Y-36718750D02*
X115617500Y-36718750D01*
X115617500Y-36718750D02*
X114617500Y-35718750D01*
X116237500Y-35718750D02*
X114617500Y-35718750D01*
X116237500Y-34718750D02*
X115617500Y-34718750D01*
X115617500Y-34718750D02*
X114617500Y-35718750D01*
X116237500Y-34718750D02*
X116237500Y-36718750D01*
D25*
X113347500Y-38258750D02*
X113347500Y-36988750D01*
X113347500Y-36988750D02*
X114617500Y-35718750D01*
X112077500Y-40595550D02*
X112077500Y-39528750D01*
X112077500Y-39528750D02*
X113347500Y-38258750D01*
D23*
X110532000Y-109559000D02*
X96227900Y-109559000D01*
X96227900Y-109559000D02*
X95716000Y-109559000D01*
X95716000Y-109559000D02*
X94216000Y-109559000D01*
X135287500Y-41481250D02*
X135787499Y-41981249D01*
X119380000Y-51560590D02*
X119380000Y-100711000D01*
X135787499Y-41981249D02*
X135787499Y-48172001D01*
X135787499Y-48172001D02*
X135318500Y-48641000D01*
X135318500Y-48641000D02*
X122299590Y-48641000D01*
X122299590Y-48641000D02*
X119380000Y-51560590D01*
X119380000Y-100711000D02*
X110532000Y-109559000D01*
D24*
X135287500Y-41481250D02*
X134667500Y-41481250D01*
X134667500Y-41481250D02*
X133667500Y-40481250D01*
X135287500Y-40481250D02*
X133667500Y-40481250D01*
X135287500Y-39481250D02*
X134667500Y-39481250D01*
X134667500Y-39481250D02*
X133667500Y-40481250D01*
X135287500Y-39481250D02*
X135287500Y-41481250D01*
D25*
X132397500Y-43021250D02*
X132397500Y-41751250D01*
X132397500Y-41751250D02*
X133667500Y-40481250D01*
X131127500Y-45358050D02*
X131127500Y-44291250D01*
X131127500Y-44291250D02*
X132397500Y-43021250D01*
D23*
X120269000Y-51308000D02*
X119830011Y-51746989D01*
X135382000Y-51308000D02*
X120269000Y-51308000D01*
X136207500Y-52133500D02*
X135382000Y-51308000D01*
X136207500Y-58318356D02*
X136207500Y-52133500D01*
X135287500Y-58531250D02*
X135994606Y-58531250D01*
X135994606Y-58531250D02*
X136207500Y-58318356D01*
X119830011Y-51746989D02*
X119830011Y-101403989D01*
X119830011Y-101403989D02*
X110575000Y-110659000D01*
X110575000Y-110659000D02*
X96227900Y-110659000D01*
X96227900Y-110659000D02*
X95716000Y-110659000D01*
X95716000Y-110659000D02*
X94216000Y-110659000D01*
D24*
X135287500Y-58531250D02*
X134667500Y-58531250D01*
X134667500Y-58531250D02*
X133667500Y-59531250D01*
X135287500Y-59531250D02*
X133667500Y-59531250D01*
X135287500Y-60531250D02*
X134667500Y-60531250D01*
X134667500Y-60531250D02*
X133667500Y-59531250D01*
X135287500Y-58531250D02*
X135287500Y-60531250D01*
D25*
X132397500Y-62071250D02*
X132397500Y-60801250D01*
X132397500Y-60801250D02*
X133667500Y-59531250D01*
X131127500Y-64408050D02*
X131127500Y-63341250D01*
X131127500Y-63341250D02*
X132397500Y-62071250D01*
D26*
X76216000Y-107359000D02*
X80498500Y-107359000D01*
X80498500Y-107359000D02*
X83248500Y-110109000D01*
X83248500Y-110109000D02*
X83248500Y-109231500D01*
X83248500Y-109231500D02*
X83696000Y-108784000D01*
X83696000Y-108784000D02*
X84521000Y-108784000D01*
D23*
X87966000Y-105568200D02*
X87967820Y-105570020D01*
X87966000Y-103759000D02*
X87966000Y-105568200D01*
X89471500Y-100330000D02*
X87966000Y-101835500D01*
X116944606Y-93868750D02*
X117221000Y-94145144D01*
X116522500Y-100330000D02*
X89471500Y-100330000D01*
X117221000Y-99631500D02*
X116522500Y-100330000D01*
X117221000Y-94145144D02*
X117221000Y-99631500D01*
X116237500Y-93868750D02*
X116944606Y-93868750D01*
X87966000Y-101835500D02*
X87966000Y-103759000D01*
D24*
X116237500Y-93868750D02*
X115617500Y-93868750D01*
X115617500Y-93868750D02*
X114617500Y-92868750D01*
X116237500Y-92868750D02*
X114617500Y-92868750D01*
X116237500Y-91868750D02*
X115617500Y-91868750D01*
X115617500Y-91868750D02*
X114617500Y-92868750D01*
X116237500Y-91868750D02*
X116237500Y-93868750D01*
D25*
X113347500Y-95408750D02*
X113347500Y-94138750D01*
X113347500Y-94138750D02*
X114617500Y-92868750D01*
X112077500Y-97745550D02*
X112077500Y-96678750D01*
X112077500Y-96678750D02*
X113347500Y-95408750D01*
D23*
X121158000Y-89471500D02*
X120730033Y-89899467D01*
X135445500Y-89471500D02*
X121158000Y-89471500D01*
X110470500Y-112859000D02*
X97030540Y-112859000D01*
X136398000Y-90424000D02*
X135445500Y-89471500D01*
X136398000Y-96202500D02*
X136398000Y-90424000D01*
X135287500Y-96631250D02*
X135969250Y-96631250D01*
X135969250Y-96631250D02*
X136398000Y-96202500D01*
X120730033Y-102599467D02*
X110470500Y-112859000D01*
X120730033Y-89899467D02*
X120730033Y-102599467D01*
X97030540Y-112859000D02*
X95716000Y-112859000D01*
X94216000Y-112859000D02*
X97030540Y-112859000D01*
X95716000Y-112859000D02*
X94216000Y-112859000D01*
D24*
X135287500Y-98631250D02*
X134667500Y-98631250D01*
X134667500Y-98631250D02*
X133667500Y-97631250D01*
X135287500Y-97631250D02*
X133667500Y-97631250D01*
X135287500Y-96631250D02*
X134667500Y-96631250D01*
X134667500Y-96631250D02*
X133667500Y-97631250D01*
X135287500Y-96631250D02*
X135287500Y-98631250D01*
D25*
X132397500Y-100171250D02*
X132397500Y-98901250D01*
X132397500Y-98901250D02*
X133667500Y-97631250D01*
X131127500Y-102508050D02*
X131127500Y-101441250D01*
X131127500Y-101441250D02*
X132397500Y-100171250D01*
D23*
X96199960Y-118359000D02*
X94216000Y-118359000D01*
X110294500Y-118359000D02*
X96199960Y-118359000D01*
X119818990Y-108971510D02*
X110426500Y-118364000D01*
X145230010Y-108971510D02*
X119818990Y-108971510D01*
X145923000Y-109664500D02*
X145230010Y-108971510D01*
X145923000Y-115277856D02*
X145923000Y-109664500D01*
X144812500Y-115681250D02*
X145519606Y-115681250D01*
X145519606Y-115681250D02*
X145923000Y-115277856D01*
X110426500Y-118364000D02*
X110299500Y-118364000D01*
X110299500Y-118364000D02*
X110294500Y-118359000D01*
D24*
X144812500Y-117681250D02*
X144192500Y-117681250D01*
X144192500Y-117681250D02*
X143192500Y-116681250D01*
X144812500Y-116681250D02*
X143192500Y-116681250D01*
X144812500Y-115681250D02*
X144192500Y-115681250D01*
X144192500Y-115681250D02*
X143192500Y-116681250D01*
X144812500Y-115681250D02*
X144812500Y-117681250D01*
D25*
X141922500Y-119221250D02*
X141922500Y-117951250D01*
X141922500Y-117951250D02*
X143192500Y-116681250D01*
X140652500Y-121558050D02*
X140652500Y-120491250D01*
X140652500Y-120491250D02*
X141922500Y-119221250D01*
D24*
X97187500Y-89106250D02*
X96567500Y-89106250D01*
X96567500Y-89106250D02*
X95567500Y-88106250D01*
D23*
X83566000Y-105497260D02*
X83550760Y-105512500D01*
X83566000Y-103759000D02*
X83566000Y-105497260D01*
X89090500Y-96329500D02*
X83566000Y-101854000D01*
X97218500Y-96329500D02*
X89090500Y-96329500D01*
X98171000Y-95377000D02*
X97218500Y-96329500D01*
X98171000Y-89382644D02*
X98171000Y-95377000D01*
X97187500Y-89106250D02*
X97894606Y-89106250D01*
X97894606Y-89106250D02*
X98171000Y-89382644D01*
X83566000Y-101854000D02*
X83566000Y-103759000D01*
D24*
X97187500Y-87106250D02*
X96567500Y-87106250D01*
X96567500Y-87106250D02*
X95567500Y-88106250D01*
X97187500Y-88106250D02*
X95567500Y-88106250D01*
X95567500Y-88106250D02*
X96187500Y-88106250D01*
X96187500Y-88106250D02*
X97187500Y-89106250D01*
X97187500Y-87106250D02*
X97187500Y-89106250D01*
D25*
X94297500Y-90646250D02*
X94297500Y-89376250D01*
X94297500Y-89376250D02*
X95567500Y-88106250D01*
X93027500Y-92983050D02*
X93027500Y-91916250D01*
X93027500Y-91916250D02*
X94297500Y-90646250D01*
D23*
X94216000Y-113959000D02*
X87058500Y-113959000D01*
X87058500Y-113959000D02*
X81080500Y-113959000D01*
X81080500Y-113959000D02*
X81065000Y-113943500D01*
X90297000Y-115059000D02*
X89535000Y-115059000D01*
X94216000Y-115059000D02*
X90297000Y-115059000D01*
X89535000Y-117729000D02*
X89535000Y-115821000D01*
X89535000Y-115821000D02*
X90297000Y-115059000D01*
X89535000Y-115059000D02*
X81068000Y-115059000D01*
X81068000Y-115059000D02*
X81065000Y-115062000D01*
D26*
X82765000Y-111442500D02*
X85462500Y-111442500D01*
X85462500Y-111442500D02*
X85471000Y-111434000D01*
X85471000Y-107124501D02*
X85471000Y-111434000D01*
X58928000Y-115189000D02*
X51178000Y-115189000D01*
X51178000Y-115189000D02*
X47228000Y-115189000D01*
D23*
X96199960Y-117259000D02*
X95716000Y-117259000D01*
X110452000Y-117259000D02*
X96199960Y-117259000D01*
X119189500Y-108521500D02*
X110452000Y-117259000D01*
X164569606Y-115681250D02*
X164782500Y-115468356D01*
X163703000Y-108521500D02*
X119189500Y-108521500D01*
X164782500Y-109601000D02*
X163703000Y-108521500D01*
X164782500Y-115468356D02*
X164782500Y-109601000D01*
X163862500Y-115681250D02*
X164569606Y-115681250D01*
X95716000Y-117259000D02*
X94216000Y-117259000D01*
D24*
X163862500Y-115681250D02*
X163242500Y-115681250D01*
X163242500Y-115681250D02*
X162242500Y-116681250D01*
X163862500Y-116681250D02*
X162242500Y-116681250D01*
X163862500Y-117681250D02*
X163242500Y-117681250D01*
X163242500Y-117681250D02*
X162242500Y-116681250D01*
X163862500Y-115681250D02*
X163862500Y-117681250D01*
D25*
X160972500Y-119221250D02*
X160972500Y-117951250D01*
X160972500Y-117951250D02*
X162242500Y-116681250D01*
X159702500Y-121558050D02*
X159702500Y-120491250D01*
X159702500Y-120491250D02*
X160972500Y-119221250D01*
M02*
